<svg width="20" height="20" viewBox="0 0 20 20" fill="none" xmlns="http://www.w3.org/2000/svg">
<path d="M20 0H0V20H20V0Z" fill="black"/>
<path d="M7.40231 12.1397C6.78259 11.5199 6.43977 10.7024 6.43977 9.82561C6.43977 9.22567 6.59799 8.63891 6.90785 8.13127C7.0463 7.90711 7.21112 7.69615 7.40231 7.50496L8.78679 6.12707C9.2285 5.69195 9.47244 5.092 9.47244 4.47229V2L5.76731 5.69195C4.62016 6.83249 3.98067 8.36861 4.00045 9.90472C4.02022 11.4013 4.61357 12.8055 5.67501 13.867L10.7053 18.8841V16.392C10.7053 15.7855 10.4613 15.1987 10.0328 14.7702L7.40231 12.1397Z" fill="white"/>
<path d="M14.2456 5.69855L10.5405 2.0066V4.47888C10.5405 5.0986 10.7844 5.69195 11.2261 6.13367L12.604 7.51155C13.2237 8.13127 13.5665 8.95537 13.5665 9.83221C13.5665 10.4387 13.4017 11.0189 13.0985 11.5265C13.0853 11.5463 13.0787 11.5595 13.0655 11.5793L8.92524 7.44563V9.95747C8.92524 10.5508 9.16258 11.1178 9.58452 11.5397L13.1248 15.0735L14.1269 14.0779L14.3247 13.8802C14.5027 13.7022 14.6675 13.5176 14.8126 13.333C14.8389 13.3 14.8653 13.267 14.8917 13.2275C15.6367 12.2188 16.019 11.0189 15.9993 9.75309C15.9927 8.24335 15.3598 6.81272 14.2456 5.69855Z" fill="white"/>
</svg>
