<svg width="114" height="114" viewBox="0 0 114 114" fill="none" xmlns="http://www.w3.org/2000/svg">
<path d="M105.511 69.7245C105.514 74.4502 104.603 79.0595 102.797 83.4226C100.988 87.7924 98.3773 91.6967 95.0417 95.0355C91.696 98.3777 87.7883 100.985 83.425 102.791C79.0684 104.593 74.4689 105.511 69.7564 105.511H69.7298H69.7232H69.5835C62.0342 105.511 54.5414 103.05 48.4687 98.5773C42.356 94.0744 37.7632 87.5962 35.4785 80.117C34.4542 76.7448 33.9354 73.2563 33.942 69.7379V43.3494C33.9454 40.8352 34.9231 38.4741 36.7023 36.6949C38.4816 34.919 40.8428 33.9413 43.3504 33.938C45.8613 33.9446 48.2226 34.929 49.9985 36.7015C51.7711 38.4774 52.7521 40.8386 52.7588 43.3461V69.7279C52.7621 74.2573 54.5314 78.5207 57.744 81.7232C60.1252 84.0977 63.1283 85.6973 66.4274 86.3458C69.7232 87.0009 73.112 86.6651 76.2216 85.3781C79.3278 84.0911 81.9584 81.9361 83.8308 79.1393C85.7064 76.3458 86.7008 73.0934 86.7075 69.7245V16.9709C86.7075 15.7304 86.9469 14.5166 87.4225 13.3693C87.8947 12.2253 88.5798 11.1977 89.4612 10.3197C90.3391 9.44508 91.3634 8.75669 92.5108 8.28113C94.8022 7.33667 97.4129 7.33334 99.7076 8.28113C100.855 8.75669 101.879 9.44508 102.757 10.3197C103.635 11.1977 104.32 12.2253 104.796 13.3693C105.271 14.5166 105.511 15.7304 105.511 16.9709V69.7245ZM31.358 31.3474C28.152 34.5532 26.3827 38.8166 26.3794 43.3461V96.1031C26.3794 98.6139 25.4016 100.975 23.6224 102.754C20.0706 106.313 13.8715 106.313 10.3163 102.754C8.54038 100.975 7.56263 98.6139 7.56263 96.1031V43.3494C7.56928 34.7727 10.6588 26.4754 16.2626 19.9838C21.8698 13.4923 29.6253 9.22892 38.1091 7.97185C39.8551 7.71246 41.6077 7.58276 43.3537 7.58276C50.0949 7.58276 56.7463 9.49164 62.4998 13.1332C65.2168 14.8525 67.6679 16.9177 69.803 19.2589C69.8229 19.2389 69.8362 19.2156 69.8562 19.1957L69.9061 19.3852C73.4147 23.2662 76.0619 27.8954 77.6017 32.9702L77.7481 33.4524C78.6826 36.6716 79.1548 40.0005 79.1582 43.3461V69.7245C79.1582 71.5902 78.6094 73.396 77.5718 74.9457C76.5342 76.4954 75.0775 77.6926 73.3548 78.411C72.2341 78.8765 71.0501 79.096 69.8562 79.1093V79.126C69.8096 79.126 69.7664 79.1127 69.7198 79.1127C69.1212 79.1127 68.5193 79.0728 67.9206 78.953C67.5748 78.8865 67.2389 78.7801 66.9063 78.6737V78.6271C66.6802 78.554 66.4474 78.5174 66.2279 78.4243C64.5051 77.7059 63.0485 76.5087 62.0109 74.959C60.9733 73.406 60.4245 71.6002 60.4245 69.7379V45.8469H60.4179V43.3427C60.4112 41.0913 59.9722 38.8998 59.1109 36.8312C58.2462 34.7594 56.9991 32.9037 55.4061 31.3174C53.813 29.7344 51.9507 28.5007 49.8688 27.646C47.7902 26.7913 45.582 26.3324 43.3537 26.3723C38.8241 26.3756 34.5639 28.1448 31.358 31.3474ZM108.095 4.97884C104.889 1.7763 100.632 0.0104134 96.1059 0.00376225H96.0992C91.573 0.0170646 87.3194 1.78628 84.1201 4.98881C80.9274 8.19134 79.1648 12.4448 79.1582 16.9709V18.8764C74.3891 11.9093 67.6646 6.4554 59.7561 3.22293C49.902 -0.794369 38.9472 -1.0704 28.8969 2.47467C20.4031 5.48764 13.1631 10.9682 7.96171 18.3244C2.76032 25.6839 0.00665139 34.3371 0 43.3461V96.1031C0 100.636 1.76594 104.896 4.97191 108.102C8.17455 111.308 12.4381 113.073 16.971 113.073C21.5039 113.073 25.7641 111.308 28.9701 108.102C32.1761 104.896 33.942 100.636 33.942 96.1031V94.2108C38.7144 101.175 45.4323 106.629 53.3408 109.854C63.1882 113.872 74.1397 114.134 84.1866 110.599C92.6771 107.59 99.9105 102.106 105.115 94.7495C110.313 87.39 113.067 78.7435 113.074 69.7379V16.9675C113.067 12.4414 111.298 8.1847 108.095 4.97884Z" fill="url(#paint0_linear_23_198)"/>
<defs>
<linearGradient id="paint0_linear_23_198" x1="-4.98854" y1="112.238" x2="112.426" y2="-13.5472" gradientUnits="userSpaceOnUse">
<stop offset="0.05" stop-color="#A0ADFF"/>
<stop offset="1" stop-color="#4C52D8"/>
</linearGradient>
</defs>
</svg>
