<svg width="980" height="738" viewBox="0 0 980 738" fill="none" xmlns="http://www.w3.org/2000/svg">
<rect width="980" height="738" rx="5" fill="#141414"/>
<g opacity="0.2">
<rect x="20" y="25" width="180" height="20" rx="10" fill="#FDFCFD"/>
</g>
<rect x="850" y="20" width="30" height="30" rx="5" fill="#959595" fill-opacity="0.1"/>
<rect x="890" y="20" width="30" height="30" rx="5" fill="#959595" fill-opacity="0.1"/>
<rect x="930" y="20" width="30" height="30" rx="5" fill="#959595" fill-opacity="0.1"/>
<g opacity="0.2">
<rect x="712" y="81" width="24" height="12" rx="6" fill="#7D7D7D"/>
</g>
<path d="M760 83.5L756 87ZM756 87L760 90.5Z" fill="#B0B0B0"/>
<path d="M760 83.5L756 87L760 90.5" stroke="#7D7D7D" stroke-width="2" stroke-linecap="round" stroke-linejoin="round"/>
<rect x="780" y="70" width="114" height="34" rx="5" fill="#272727"/>
<g opacity="0.2">
<rect x="800" y="81" width="74" height="12" rx="6" fill="#C9C9CA"/>
</g>
<path d="M914 90.5L918 87ZM918 87L914 83.5Z" fill="#B0B0B0"/>
<path d="M914 90.5L918 87L914 83.5" stroke="#C9C9CA" stroke-width="2" stroke-linecap="round" stroke-linejoin="round"/>
<g opacity="0.2">
<rect x="938" y="81" width="22" height="12" rx="6" fill="#C9C9CA"/>
</g>
<g clip-path="url(#clip0_1775_2626)">
<mask id="path-14-inside-1_1775_2626" fill="white">
<path d="M20 124H960V164H20V124Z"/>
</mask>
<path d="M960 162H20V166H960V162Z" fill="#7D7D7D" mask="url(#path-14-inside-1_1775_2626)"/>
<g opacity="0.2">
<rect x="60" y="137" width="49" height="14" rx="7" fill="#B0B0B0"/>
</g>
<g opacity="0.2">
<rect x="360" y="137" width="38" height="14" rx="7" fill="#B0B0B0"/>
</g>
<path d="M407.064 137L411.129 142.871H403L407.064 137Z" fill="#7D7D7D"/>
<path d="M407.065 151L403 145.129H411.129L407.065 151Z" fill="#7D7D7D"/>
<g opacity="0.2">
<rect x="510" y="137" width="41" height="14" rx="7" fill="#B0B0B0"/>
</g>
<g opacity="0.2">
<rect x="860" y="137" width="70" height="14" rx="7" fill="#B0B0B0"/>
</g>
<mask id="path-22-inside-2_1775_2626" fill="white">
<path d="M20 164H1660V214H20V164Z"/>
</mask>
<path d="M1660 212H20V216H1660V212Z" fill="#37343D" mask="url(#path-22-inside-2_1775_2626)"/>
<g clip-path="url(#clip1_1775_2626)">
<g opacity="0.2">
<rect x="60" y="182" width="182" height="14" rx="7" fill="#BC3D70"/>
</g>
</g>
<g opacity="0.2">
<rect x="360" y="182" width="48" height="14" rx="7" fill="#22BA4F"/>
</g>
<rect x="510" y="179" width="90" height="20" rx="2" fill="#1C1C1C"/>
<g opacity="0.2">
<rect x="520" y="183" width="70" height="12" rx="6" fill="#C88864"/>
</g>
<rect x="610" y="179" width="85" height="20" rx="2" fill="#1C1C1C"/>
<g opacity="0.2">
<rect x="620" y="183" width="65" height="12" rx="6" fill="#C88864"/>
</g>
<rect x="705" y="179" width="66" height="20" rx="2" fill="#1C1C1C"/>
<g opacity="0.2">
<rect x="715" y="183" width="46" height="12" rx="6" fill="#C88864"/>
</g>
<g opacity="0.2">
<rect x="860" y="182" width="118" height="14" rx="7" fill="#B0B0B0"/>
</g>
<mask id="path-33-inside-3_1775_2626" fill="white">
<path d="M20 214H1660V264H20V214Z"/>
</mask>
<path d="M1660 262H20V266H1660V262Z" fill="#37343D" mask="url(#path-33-inside-3_1775_2626)"/>
<g clip-path="url(#clip2_1775_2626)">
<g opacity="0.2">
<rect x="60" y="232" width="182" height="14" rx="7" fill="#BC3D70"/>
</g>
</g>
<g opacity="0.2">
<rect x="360" y="232" width="48" height="14" rx="7" fill="#22BA4F"/>
</g>
<rect x="510" y="229" width="90" height="20" rx="2" fill="#1C1C1C"/>
<g opacity="0.2">
<rect x="520" y="233" width="70" height="12" rx="6" fill="#C88864"/>
</g>
<rect x="610" y="229" width="85" height="20" rx="2" fill="#1C1C1C"/>
<g opacity="0.2">
<rect x="620" y="233" width="65" height="12" rx="6" fill="#C88864"/>
</g>
<rect x="705" y="229" width="66" height="20" rx="2" fill="#1C1C1C"/>
<g opacity="0.2">
<rect x="715" y="233" width="46" height="12" rx="6" fill="#C88864"/>
</g>
<g opacity="0.2">
<rect x="860" y="232" width="118" height="14" rx="7" fill="#B0B0B0"/>
</g>
<mask id="path-44-inside-4_1775_2626" fill="white">
<path d="M20 264H1660V314H20V264Z"/>
</mask>
<path d="M1660 312H20V316H1660V312Z" fill="#37343D" mask="url(#path-44-inside-4_1775_2626)"/>
<g clip-path="url(#clip3_1775_2626)">
<g opacity="0.2">
<rect x="60" y="282" width="182" height="14" rx="7" fill="#BC3D70"/>
</g>
</g>
<g opacity="0.2">
<rect x="360" y="282" width="48" height="14" rx="7" fill="#22BA4F"/>
</g>
<rect x="510" y="279" width="90" height="20" rx="2" fill="#1C1C1C"/>
<g opacity="0.2">
<rect x="520" y="283" width="70" height="12" rx="6" fill="#C88864"/>
</g>
<rect x="610" y="279" width="85" height="20" rx="2" fill="#1C1C1C"/>
<g opacity="0.2">
<rect x="620" y="283" width="65" height="12" rx="6" fill="#C88864"/>
</g>
<rect x="705" y="279" width="66" height="20" rx="2" fill="#1C1C1C"/>
<g opacity="0.2">
<rect x="715" y="283" width="46" height="12" rx="6" fill="#C88864"/>
</g>
<g opacity="0.2">
<rect x="860" y="282" width="118" height="14" rx="7" fill="#B0B0B0"/>
</g>
<mask id="path-55-inside-5_1775_2626" fill="white">
<path d="M20 314H1660V364H20V314Z"/>
</mask>
<path d="M1660 362H20V366H1660V362Z" fill="#37343D" mask="url(#path-55-inside-5_1775_2626)"/>
<g clip-path="url(#clip4_1775_2626)">
<g opacity="0.2">
<rect x="60" y="332" width="182" height="14" rx="7" fill="#BC3D70"/>
</g>
</g>
<g opacity="0.2">
<rect x="360" y="332" width="48" height="14" rx="7" fill="#22BA4F"/>
</g>
<rect x="510" y="329" width="90" height="20" rx="2" fill="#1C1C1C"/>
<g opacity="0.2">
<rect x="520" y="333" width="70" height="12" rx="6" fill="#C88864"/>
</g>
<rect x="610" y="329" width="85" height="20" rx="2" fill="#1C1C1C"/>
<g opacity="0.2">
<rect x="620" y="333" width="65" height="12" rx="6" fill="#C88864"/>
</g>
<rect x="705" y="329" width="66" height="20" rx="2" fill="#1C1C1C"/>
<g opacity="0.2">
<rect x="715" y="333" width="46" height="12" rx="6" fill="#C88864"/>
</g>
<g opacity="0.2">
<rect x="860" y="332" width="118" height="14" rx="7" fill="#B0B0B0"/>
</g>
<mask id="path-66-inside-6_1775_2626" fill="white">
<path d="M20 364H1660V414H20V364Z"/>
</mask>
<path d="M1660 412H20V416H1660V412Z" fill="#37343D" mask="url(#path-66-inside-6_1775_2626)"/>
<g clip-path="url(#clip5_1775_2626)">
<g opacity="0.2">
<rect x="60" y="382" width="182" height="14" rx="7" fill="#BC3D70"/>
</g>
</g>
<g opacity="0.2">
<rect x="360" y="382" width="48" height="14" rx="7" fill="#22BA4F"/>
</g>
<rect x="510" y="379" width="90" height="20" rx="2" fill="#1C1C1C"/>
<g opacity="0.2">
<rect x="520" y="383" width="70" height="12" rx="6" fill="#C88864"/>
</g>
<rect x="610" y="379" width="85" height="20" rx="2" fill="#1C1C1C"/>
<g opacity="0.2">
<rect x="620" y="383" width="65" height="12" rx="6" fill="#C88864"/>
</g>
<rect x="705" y="379" width="66" height="20" rx="2" fill="#1C1C1C"/>
<g opacity="0.2">
<rect x="715" y="383" width="46" height="12" rx="6" fill="#C88864"/>
</g>
<g opacity="0.2">
<rect x="860" y="382" width="118" height="14" rx="7" fill="#B0B0B0"/>
</g>
<mask id="path-77-inside-7_1775_2626" fill="white">
<path d="M20 414H1660V464H20V414Z"/>
</mask>
<path d="M1660 462H20V466H1660V462Z" fill="#37343D" mask="url(#path-77-inside-7_1775_2626)"/>
<g clip-path="url(#clip6_1775_2626)">
<g opacity="0.2">
<rect x="60" y="432" width="182" height="14" rx="7" fill="#BC3D70"/>
</g>
</g>
<g opacity="0.2">
<rect x="360" y="432" width="48" height="14" rx="7" fill="#22BA4F"/>
</g>
<rect x="510" y="429" width="90" height="20" rx="2" fill="#1C1C1C"/>
<g opacity="0.2">
<rect x="520" y="433" width="70" height="12" rx="6" fill="#C88864"/>
</g>
<rect x="610" y="429" width="85" height="20" rx="2" fill="#1C1C1C"/>
<g opacity="0.2">
<rect x="620" y="433" width="65" height="12" rx="6" fill="#C88864"/>
</g>
<rect x="705" y="429" width="66" height="20" rx="2" fill="#1C1C1C"/>
<g opacity="0.2">
<rect x="715" y="433" width="46" height="12" rx="6" fill="#C88864"/>
</g>
<g opacity="0.2">
<rect x="860" y="432" width="118" height="14" rx="7" fill="#B0B0B0"/>
</g>
<mask id="path-88-inside-8_1775_2626" fill="white">
<path d="M20 464H1660V514H20V464Z"/>
</mask>
<path d="M1660 512H20V516H1660V512Z" fill="#37343D" mask="url(#path-88-inside-8_1775_2626)"/>
<g clip-path="url(#clip7_1775_2626)">
<g opacity="0.2">
<rect x="60" y="482" width="182" height="14" rx="7" fill="#BC3D70"/>
</g>
</g>
<g opacity="0.2">
<rect x="360" y="482" width="48" height="14" rx="7" fill="#22BA4F"/>
</g>
<rect x="510" y="479" width="90" height="20" rx="2" fill="#1C1C1C"/>
<g opacity="0.2">
<rect x="520" y="483" width="70" height="12" rx="6" fill="#C88864"/>
</g>
<rect x="610" y="479" width="85" height="20" rx="2" fill="#1C1C1C"/>
<g opacity="0.2">
<rect x="620" y="483" width="65" height="12" rx="6" fill="#C88864"/>
</g>
<rect x="705" y="479" width="66" height="20" rx="2" fill="#1C1C1C"/>
<g opacity="0.2">
<rect x="715" y="483" width="46" height="12" rx="6" fill="#C88864"/>
</g>
<g opacity="0.2">
<rect x="860" y="482" width="118" height="14" rx="7" fill="#B0B0B0"/>
</g>
<mask id="path-99-inside-9_1775_2626" fill="white">
<path d="M20 514H1660V564H20V514Z"/>
</mask>
<path d="M1660 562H20V566H1660V562Z" fill="#37343D" mask="url(#path-99-inside-9_1775_2626)"/>
<g clip-path="url(#clip8_1775_2626)">
<g opacity="0.2">
<rect x="60" y="532" width="182" height="14" rx="7" fill="#BC3D70"/>
</g>
</g>
<g opacity="0.2">
<rect x="360" y="532" width="48" height="14" rx="7" fill="#22BA4F"/>
</g>
<rect x="510" y="529" width="90" height="20" rx="2" fill="#1C1C1C"/>
<g opacity="0.2">
<rect x="520" y="533" width="70" height="12" rx="6" fill="#C88864"/>
</g>
<rect x="610" y="529" width="85" height="20" rx="2" fill="#1C1C1C"/>
<g opacity="0.2">
<rect x="620" y="533" width="65" height="12" rx="6" fill="#C88864"/>
</g>
<rect x="705" y="529" width="66" height="20" rx="2" fill="#1C1C1C"/>
<g opacity="0.2">
<rect x="715" y="533" width="46" height="12" rx="6" fill="#C88864"/>
</g>
<g opacity="0.2">
<rect x="860" y="532" width="118" height="14" rx="7" fill="#B0B0B0"/>
</g>
<mask id="path-110-inside-10_1775_2626" fill="white">
<path d="M20 564H1660V614H20V564Z"/>
</mask>
<path d="M1660 612H20V616H1660V612Z" fill="#37343D" mask="url(#path-110-inside-10_1775_2626)"/>
<g clip-path="url(#clip9_1775_2626)">
<g opacity="0.2">
<rect x="60" y="582" width="182" height="14" rx="7" fill="#BC3D70"/>
</g>
</g>
<g opacity="0.2">
<rect x="360" y="582" width="48" height="14" rx="7" fill="#22BA4F"/>
</g>
<rect x="510" y="579" width="90" height="20" rx="2" fill="#1C1C1C"/>
<g opacity="0.2">
<rect x="520" y="583" width="70" height="12" rx="6" fill="#C88864"/>
</g>
<rect x="610" y="579" width="85" height="20" rx="2" fill="#1C1C1C"/>
<g opacity="0.2">
<rect x="620" y="583" width="65" height="12" rx="6" fill="#C88864"/>
</g>
<rect x="705" y="579" width="66" height="20" rx="2" fill="#1C1C1C"/>
<g opacity="0.2">
<rect x="715" y="583" width="46" height="12" rx="6" fill="#C88864"/>
</g>
<g opacity="0.2">
<rect x="860" y="582" width="118" height="14" rx="7" fill="#B0B0B0"/>
</g>
<mask id="path-121-inside-11_1775_2626" fill="white">
<path d="M20 614H1660V664H20V614Z"/>
</mask>
<path d="M1660 662H20V666H1660V662Z" fill="#37343D" mask="url(#path-121-inside-11_1775_2626)"/>
<g clip-path="url(#clip10_1775_2626)">
<g opacity="0.2">
<rect x="60" y="632" width="182" height="14" rx="7" fill="#BC3D70"/>
</g>
</g>
<g opacity="0.2">
<rect x="360" y="632" width="48" height="14" rx="7" fill="#22BA4F"/>
</g>
<rect x="510" y="629" width="90" height="20" rx="2" fill="#1C1C1C"/>
<g opacity="0.2">
<rect x="520" y="633" width="70" height="12" rx="6" fill="#C88864"/>
</g>
<rect x="610" y="629" width="85" height="20" rx="2" fill="#1C1C1C"/>
<g opacity="0.2">
<rect x="620" y="633" width="65" height="12" rx="6" fill="#C88864"/>
</g>
<rect x="705" y="629" width="66" height="20" rx="2" fill="#1C1C1C"/>
<g opacity="0.2">
<rect x="715" y="633" width="46" height="12" rx="6" fill="#C88864"/>
</g>
<g opacity="0.2">
<rect x="860" y="632" width="118" height="14" rx="7" fill="#B0B0B0"/>
</g>
</g>
<g opacity="0.2">
<rect x="20" y="695" width="30" height="12" rx="6" fill="#C9C9CA"/>
</g>
<rect x="60" y="684" width="40.6863" height="34" rx="5" fill="#272727"/>
<g opacity="0.2">
<rect x="70" y="695" width="7" height="12" rx="3.5" fill="#C9C9CA"/>
</g>
<path d="M90.4943 699.691C90.3719 699.569 90.2058 699.5 90.0327 699.5C89.8595 699.5 89.6934 699.569 89.571 699.691L86.3384 702.924L83.1059 699.691C82.9828 699.572 82.8178 699.506 82.6466 699.508C82.4754 699.509 82.3116 699.578 82.1905 699.699C82.0694 699.82 82.0007 699.984 81.9992 700.155C81.9978 700.326 82.0636 700.491 82.1825 700.615L85.8767 704.309C85.9992 704.431 86.1653 704.5 86.3384 704.5C86.5116 704.5 86.6777 704.431 86.8001 704.309L90.4943 700.615C90.6168 700.492 90.6855 700.326 90.6855 700.153C90.6855 699.98 90.6168 699.814 90.4943 699.691Z" fill="#C9C9C9"/>
<g opacity="0.2" clip-path="url(#clip11_1775_2626)">
<rect x="110.686" y="695" width="39" height="12" rx="6" fill="#C9C9CA"/>
</g>
<g opacity="0.2">
<rect x="702" y="695" width="24" height="12" rx="6" fill="#7D7D7D"/>
</g>
<path d="M750 697.5L746 701ZM746 701L750 704.5Z" fill="#B0B0B0"/>
<path d="M750 697.5L746 701L750 704.5" stroke="#7D7D7D" stroke-width="2" stroke-linecap="round" stroke-linejoin="round"/>
<rect x="770" y="684" width="114" height="34" rx="5" fill="#272727"/>
<g opacity="0.2">
<rect x="790" y="695" width="74" height="12" rx="6" fill="#C9C9CA"/>
</g>
<path d="M904 704.5L908 701ZM908 701L904 697.5Z" fill="#B0B0B0"/>
<path d="M904 704.5L908 701L904 697.5" stroke="#C9C9CA" stroke-width="2" stroke-linecap="round" stroke-linejoin="round"/>
<g opacity="0.2">
<rect x="928" y="695" width="22" height="12" rx="6" fill="#C9C9CA"/>
</g>
<defs>
<clipPath id="clip0_1775_2626">
<rect width="940" height="540" fill="white" transform="translate(20 124)"/>
</clipPath>
<clipPath id="clip1_1775_2626">
<rect width="300" height="17" fill="white" transform="translate(40 180.5)"/>
</clipPath>
<clipPath id="clip2_1775_2626">
<rect width="300" height="17" fill="white" transform="translate(40 230.5)"/>
</clipPath>
<clipPath id="clip3_1775_2626">
<rect width="300" height="17" fill="white" transform="translate(40 280.5)"/>
</clipPath>
<clipPath id="clip4_1775_2626">
<rect width="300" height="17" fill="white" transform="translate(40 330.5)"/>
</clipPath>
<clipPath id="clip5_1775_2626">
<rect width="300" height="17" fill="white" transform="translate(40 380.5)"/>
</clipPath>
<clipPath id="clip6_1775_2626">
<rect width="300" height="17" fill="white" transform="translate(40 430.5)"/>
</clipPath>
<clipPath id="clip7_1775_2626">
<rect width="300" height="17" fill="white" transform="translate(40 480.5)"/>
</clipPath>
<clipPath id="clip8_1775_2626">
<rect width="300" height="17" fill="white" transform="translate(40 530.5)"/>
</clipPath>
<clipPath id="clip9_1775_2626">
<rect width="300" height="17" fill="white" transform="translate(40 580.5)"/>
</clipPath>
<clipPath id="clip10_1775_2626">
<rect width="300" height="17" fill="white" transform="translate(40 630.5)"/>
</clipPath>
<clipPath id="clip11_1775_2626">
<rect width="39" height="14" fill="white" transform="translate(110.686 694)"/>
</clipPath>
</defs>
</svg>
