<svg width="520" height="413" viewBox="0 0 520 413" fill="none" xmlns="http://www.w3.org/2000/svg">
<rect width="520" height="413" rx="5" fill="#141414"/>
<g opacity="0.2" clip-path="url(#clip0_19_512)">
<rect x="20" y="25" width="180" height="20" rx="10" fill="#FDFCFD"/>
</g>
<rect x="390" y="20" width="30" height="30" rx="5" fill="#959595" fill-opacity="0.1"/>
<rect x="430" y="20" width="30" height="30" rx="5" fill="#959595" fill-opacity="0.1"/>
<rect x="470" y="20" width="30" height="30" rx="5" fill="#959595" fill-opacity="0.1"/>
<mask id="path-6-inside-1_19_512" fill="white">
<path d="M20 70H490V120H20V70Z"/>
</mask>
<path d="M490 120V118H20V120V122H490V120Z" fill="#37343D" mask="url(#path-6-inside-1_19_512)"/>
<g clip-path="url(#clip1_19_512)">
<g opacity="0.2">
<rect x="60" y="88" width="397" height="14" rx="7" fill="#BC3D70"/>
</g>
</g>
<mask id="path-9-inside-2_19_512" fill="white">
<path d="M20 119H490V169H20V119Z"/>
</mask>
<path d="M490 169V167H20V169V171H490V169Z" fill="#37343D" mask="url(#path-9-inside-2_19_512)"/>
<g clip-path="url(#clip2_19_512)">
<g opacity="0.2">
<rect x="60" y="137" width="397" height="14" rx="7" fill="#22BA4F"/>
</g>
</g>
<mask id="path-12-inside-3_19_512" fill="white">
<path d="M20 169H490V219H20V169Z"/>
</mask>
<path d="M490 219V217H20V219V221H490V219Z" fill="#37343D" mask="url(#path-12-inside-3_19_512)"/>
<g clip-path="url(#clip3_19_512)">
<g opacity="0.2">
<rect x="60" y="187" width="397" height="14" rx="7" fill="#C88864"/>
</g>
</g>
<mask id="path-15-inside-4_19_512" fill="white">
<path d="M20 219H490V269H20V219Z"/>
</mask>
<path d="M490 269V267H20V269V271H490V269Z" fill="#37343D" mask="url(#path-15-inside-4_19_512)"/>
<g clip-path="url(#clip4_19_512)">
<g opacity="0.2">
<rect x="60" y="237" width="397" height="14" rx="7" fill="#B0B0B0"/>
</g>
</g>
<mask id="path-18-inside-5_19_512" fill="white">
<path d="M20 269H490V319H20V269Z"/>
</mask>
<path d="M490 319V317H20V319V321H490V319Z" fill="#37343D" mask="url(#path-18-inside-5_19_512)"/>
<g clip-path="url(#clip5_19_512)">
<g opacity="0.2">
<rect x="60" y="287" width="397" height="14" rx="7" fill="#DF5866"/>
</g>
</g>
<mask id="path-21-inside-6_19_512" fill="white">
<path d="M20 319H490V369H20V319Z"/>
</mask>
<path d="M490 369V367H20V369V371H490V369Z" fill="#37343D" mask="url(#path-21-inside-6_19_512)"/>
<g clip-path="url(#clip6_19_512)">
<g opacity="0.2">
<rect x="60" y="337" width="397" height="14" rx="7" fill="#F77C5C"/>
</g>
</g>
<defs>
<clipPath id="clip0_19_512">
<rect width="180" height="24" fill="white" transform="translate(20 23)"/>
</clipPath>
<clipPath id="clip1_19_512">
<rect width="430" height="17" fill="white" transform="translate(40 86.5)"/>
</clipPath>
<clipPath id="clip2_19_512">
<rect width="430" height="17" fill="white" transform="translate(40 135.5)"/>
</clipPath>
<clipPath id="clip3_19_512">
<rect width="430" height="17" fill="white" transform="translate(40 185.5)"/>
</clipPath>
<clipPath id="clip4_19_512">
<rect width="430" height="17" fill="white" transform="translate(40 235.5)"/>
</clipPath>
<clipPath id="clip5_19_512">
<rect width="430" height="17" fill="white" transform="translate(40 285.5)"/>
</clipPath>
<clipPath id="clip6_19_512">
<rect width="430" height="17" fill="white" transform="translate(40 335.5)"/>
</clipPath>
</defs>
</svg>
