<svg width="520" height="300" viewBox="0 0 520 300" fill="none" xmlns="http://www.w3.org/2000/svg">
<g clip-path="url(#clip0_1749_7690)">
<rect width="520" height="300" rx="5" fill="#141414"/>
<g opacity="0.2">
<rect x="40" y="33" width="103" height="32" rx="16" fill="#FDFCFD"/>
</g>
<g opacity="0.2">
<rect x="153" y="43.5" width="45" height="20" rx="10" fill="#22BA4F"/>
</g>
<path d="M208 49.8889L213 57.1111H203L208 49.8889Z" fill="#646464"/>
<g filter="url(#filter0_b_1749_7690)">
<rect x="315" y="32" width="164" height="34" rx="4" stroke="#37343D" stroke-width="2"/>
<rect x="319" y="36" width="34" height="26" rx="5" fill="#383838"/>
<g opacity="0.2">
<rect x="329" y="44" width="14" height="10" rx="5" fill="#C9C9CA"/>
</g>
<g opacity="0.2">
<rect x="368" y="44" width="14" height="10" rx="5" fill="#969697"/>
</g>
<g opacity="0.2">
<rect x="407" y="44" width="20" height="10" rx="5" fill="#969697"/>
</g>
<g opacity="0.2">
<rect x="452" y="44" width="13" height="10" rx="5" fill="#969697"/>
</g>
</g>
<g opacity="0.2">
<rect x="40" y="69.5" width="209" height="16" rx="8" fill="#AAAAAA"/>
</g>
<mask id="path-16-inside-1_1749_7690" fill="white">
<path d="M-544 198.664L-511.184 172.624L-478.367 176.189L-445.551 168.169L-412.735 137.376L-379.918 137.475L-347.102 152.723L-314.286 142.723L-281.469 135L-248.653 148.565L-215.837 135.891L-183.02 173.614L-150.204 146.98L-117.388 200.546L-84.5714 190.347L-51.7551 173.02L-18.9387 189.258L13.8776 140.842L46.6938 170.842L79.5103 175.199L112.327 199.951L145.143 187.773L177.959 195.1L210.776 154.703L243.592 187.575L276.408 150.545L309.225 160.248L342.041 164.208L374.857 162.129L407.674 191.932L440.49 157.773L473.306 160.644L506.122 155L538.939 184.803L571.755 179.159L604.571 182.822L637.388 138.861L670.204 164.802L703.021 158.07L735.837 148.961L768.653 136.683L801.469 196.486L834.286 172.822L867.102 176.882L899.918 137.871L932.735 189.654L965.551 188.664L998.367 189.258L1031.18 185.991L1064 203.516V325H1031.18H998.367H965.551H932.735H899.918H867.102H834.286H801.469H768.653H735.837H703.021H670.204H637.388H604.571H571.755H538.939H506.122H473.306H440.49H407.674H374.857H342.041H309.225H276.408H243.592H210.776H177.959H145.143H112.327H79.5103H46.6938H13.8776H-18.9387H-51.7551H-84.5714H-117.388H-150.204H-183.02H-215.837H-248.653H-281.469H-314.286H-347.102H-379.918H-412.735H-445.551H-478.367H-511.184H-544V198.664Z"/>
</mask>
<path d="M-544 198.664L-511.184 172.624L-478.367 176.189L-445.551 168.169L-412.735 137.376L-379.918 137.475L-347.102 152.723L-314.286 142.723L-281.469 135L-248.653 148.565L-215.837 135.891L-183.02 173.614L-150.204 146.98L-117.388 200.546L-84.5714 190.347L-51.7551 173.02L-18.9387 189.258L13.8776 140.842L46.6938 170.842L79.5103 175.199L112.327 199.951L145.143 187.773L177.959 195.1L210.776 154.703L243.592 187.575L276.408 150.545L309.225 160.248L342.041 164.208L374.857 162.129L407.674 191.932L440.49 157.773L473.306 160.644L506.122 155L538.939 184.803L571.755 179.159L604.571 182.822L637.388 138.861L670.204 164.802L703.021 158.07L735.837 148.961L768.653 136.683L801.469 196.486L834.286 172.822L867.102 176.882L899.918 137.871L932.735 189.654L965.551 188.664L998.367 189.258L1031.18 185.991L1064 203.516V325H1031.18H998.367H965.551H932.735H899.918H867.102H834.286H801.469H768.653H735.837H703.021H670.204H637.388H604.571H571.755H538.939H506.122H473.306H440.49H407.674H374.857H342.041H309.225H276.408H243.592H210.776H177.959H145.143H112.327H79.5103H46.6938H13.8776H-18.9387H-51.7551H-84.5714H-117.388H-150.204H-183.02H-215.837H-248.653H-281.469H-314.286H-347.102H-379.918H-412.735H-445.551H-478.367H-511.184H-544V198.664Z" fill="url(#paint0_linear_1749_7690)" fill-opacity="0.2" stroke="#BC3D70" stroke-opacity="0.4" stroke-width="4" mask="url(#path-16-inside-1_1749_7690)"/>
</g>
<defs>
<filter id="filter0_b_1749_7690" x="304" y="21" width="186" height="56" filterUnits="userSpaceOnUse" color-interpolation-filters="sRGB">
<feFlood flood-opacity="0" result="BackgroundImageFix"/>
<feGaussianBlur in="BackgroundImageFix" stdDeviation="5"/>
<feComposite in2="SourceAlpha" operator="in" result="effect1_backgroundBlur_1749_7690"/>
<feBlend mode="normal" in="SourceGraphic" in2="effect1_backgroundBlur_1749_7690" result="shape"/>
</filter>
<linearGradient id="paint0_linear_1749_7690" x1="260" y1="135" x2="260" y2="297" gradientUnits="userSpaceOnUse">
<stop stop-color="#787878"/>
<stop offset="1" stop-color="#0F0F0F"/>
</linearGradient>
<clipPath id="clip0_1749_7690">
<rect width="520" height="300" rx="5" fill="white"/>
</clipPath>
</defs>
</svg>
