<svg width="1020" height="495" viewBox="0 0 1020 495" fill="none" xmlns="http://www.w3.org/2000/svg">
<path fill-rule="evenodd" clip-rule="evenodd" d="M567.728 455.998C627.367 455.998 679.704 411.635 650.312 351.379C620.919 291.122 730.131 293.069 762.211 251.424C801.335 200.635 790.005 -14.9519 538.846 116.481C498.613 137.535 395.287 94.821 361.013 116.015C320.669 140.962 263.908 192.045 320.669 244.373C348.629 270.149 248.387 337.05 292.291 396.977C335.13 455.451 365.159 399.708 430.381 411.635C495.603 423.562 523.434 455.998 567.728 455.998Z" fill="#BC3D70"/>
<path d="M303.6 247C306.8 247 309.467 248.067 311.6 250.2C313.733 252.333 314.8 254.867 314.8 257.8V317.4C314.8 320.333 313.733 322.867 311.6 325C309.467 327.133 306.933 328.2 304 328.2H268.8V362.2C268.8 365.133 267.733 367.667 265.6 369.8C263.467 371.933 260.933 373 258 373H177.6C174.667 373 172.133 371.933 170 369.8C167.867 367.667 166.8 365.133 166.8 362.2V328.2H37.2C34.2667 328.2 31.7333 327.133 29.6 325C27.4667 322.867 26.4 320.333 26.4 317.4V258.2C26.4 253.667 27.8667 249.533 30.8 245.8L152 99.8C155.733 95.2667 160.667 93 166.8 93H258C260.933 93 263.467 94.0666 265.6 96.2C267.733 98.3333 268.8 100.867 268.8 103.8V247H303.6ZM169.6 251.4V195L123.6 251.4H169.6ZM643.844 269.4C643.844 304.867 631.444 331.667 606.644 349.8C582.11 367.933 549.844 377 509.844 377C469.577 377 437.177 367.933 412.644 349.8C388.11 331.667 375.844 304.6 375.844 268.6V197.4C375.844 173.4 381.844 153.267 393.844 137C405.844 120.733 421.844 108.733 441.844 101C462.11 93 484.777 89 509.844 89C534.91 89 557.444 93 577.444 101C597.71 108.733 613.844 120.733 625.844 137C637.844 153 643.844 172.867 643.844 196.6V269.4ZM483.844 272.6C483.844 280.067 486.377 286.333 491.444 291.4C496.51 296.2 502.644 298.6 509.844 298.6C517.044 298.6 523.177 296.067 528.244 291C533.31 285.933 535.844 279.8 535.844 272.6V192.6C535.844 185.133 533.31 179 528.244 174.2C523.444 169.133 517.31 166.6 509.844 166.6C502.377 166.6 496.11 169.133 491.044 174.2C486.244 179.267 483.844 185.4 483.844 192.6V272.6ZM983.288 247C986.488 247 989.154 248.067 991.288 250.2C993.421 252.333 994.488 254.867 994.488 257.8V317.4C994.488 320.333 993.421 322.867 991.288 325C989.154 327.133 986.621 328.2 983.688 328.2H948.488V362.2C948.488 365.133 947.421 367.667 945.288 369.8C943.154 371.933 940.621 373 937.688 373H857.288C854.354 373 851.821 371.933 849.688 369.8C847.554 367.667 846.488 365.133 846.488 362.2V328.2H716.888C713.954 328.2 711.421 327.133 709.288 325C707.154 322.867 706.087 320.333 706.087 317.4V258.2C706.087 253.667 707.554 249.533 710.488 245.8L831.688 99.8C835.421 95.2667 840.354 93 846.488 93H937.688C940.621 93 943.154 94.0666 945.288 96.2C947.421 98.3333 948.488 100.867 948.488 103.8V247H983.288ZM849.288 251.4V195L803.288 251.4H849.288Z" fill="white"/>
<path d="M498.505 351.169C498.505 351.169 512.237 344.709 517.364 340.215C522.491 335.721 528.864 324.556 528.864 324.556C528.864 324.556 598.874 375.116 644.522 367.904C655.04 366.242 675.534 359.251 676.841 346.933C680.41 313.298 631.034 304.702 641.819 287.645C648.403 277.233 668.855 292.729 668.855 292.729L753.681 334.453C753.681 334.453 724.376 406.692 653.259 409.586C565.776 413.148 498.505 351.169 498.505 351.169Z" fill="white"/>
<path fill-rule="evenodd" clip-rule="evenodd" d="M431.251 68.2684C430.455 67.9558 426.18 62.7204 420.751 61.7675C418.285 61.3345 420.524 64.4754 417.809 64.5037C409.724 64.5878 396.585 63.0689 394.15 64.5037C392.341 65.5666 396.326 69.2801 394.15 69.4506C373.63 71.0591 342.324 91.5485 335.531 101.489C333.37 104.652 350.852 99.2851 348.067 100.849C344.94 102.604 341.473 114.098 339.4 122.975C337.965 129.088 337.061 136.955 336.742 145.513C336.476 152.902 336.583 154.124 337.646 158.164C338.868 162.682 339.825 164.011 341.473 163.373C342.058 163.161 342.324 162.364 342.324 160.875C342.324 159.706 342.961 156.197 343.759 153.061L345.141 147.427L345.726 149.766C346.47 152.477 350.828 160.875 354.762 166.988C354.974 167.312 355.887 166.9 356.71 164.91C357.46 163.097 357.156 160.201 358.43 157.097C361.332 150.027 367.031 140.834 373.63 133.475C383.382 122.6 386.618 110.014 395.759 99.9104C412.82 81.0557 434.232 69.4384 431.251 68.2684Z" fill="white"/>
<path fill-rule="evenodd" clip-rule="evenodd" d="M348.309 103.414C345.573 105.614 341.51 123.465 341.44 123.763C340.005 129.876 338.622 151.104 340.036 155.123C341.45 159.142 345.41 144.654 345.41 144.654C345.41 144.654 351.395 160.196 356.684 164.457C356.909 164.639 350.397 145.229 348.309 133.898C345.553 118.94 349.867 102.161 348.309 103.414Z" fill="#E7EAEE"/>
<path fill-rule="evenodd" clip-rule="evenodd" d="M450.314 416.037C455.417 414.921 464.027 411.034 467.324 409.704C470.621 408.375 480.666 394.19 484.281 378.19C486.885 366.39 488.214 349.592 486.726 346.775C486.506 346.375 485.702 338.737 487.843 341.231C492.6 346.775 498.248 355.479 516.068 339.883C520.921 335.635 527.354 330.153 525.66 325.307C520.921 311.746 500.377 284.442 497.246 282.374C493.501 279.901 474.574 282.002 446.408 273.689C414.465 264.26 401.163 236.498 388.663 240.111C378.554 243.034 354.333 260.995 348.255 272.369C319.558 326.065 354.333 363.69 362.253 374.497L369.943 377.818L370.209 384.675L370.581 388.981C371.272 397.22 371.537 397.964 375.258 400.728C384.561 407.798 402.899 414.389 419.484 416.728C427.192 417.791 443.936 417.419 450.314 416.037Z" fill="white"/>
<path fill-rule="evenodd" clip-rule="evenodd" d="M372.967 382.165L373.339 386.471C374.03 394.71 374.296 395.454 378.017 398.218C383.504 402.389 392.137 406.393 401.699 409.456C408.346 411.585 415.441 413.259 422.242 414.218C429.95 415.282 446.694 414.909 453.073 413.527C456.226 412.844 430.291 392.469 415.013 398.218C403.28 402.634 375.626 368.956 386.87 360.158C399.483 350.288 376.37 311.36 375.626 302.909C374.882 294.457 371.951 292.438 371.866 292.734C371.78 293.031 371.78 294.042 372.01 296.478C373.002 306.98 372.967 382.165 372.967 382.165Z" fill="#E7EAEE"/>
<path fill-rule="evenodd" clip-rule="evenodd" d="M370.198 300.495C371.314 300.278 372.395 301.007 372.612 302.123C376.624 322.734 393.593 336.687 423.937 343.984C454.462 351.324 475.253 350.928 486.209 343.093C487.134 342.432 486.444 348.095 485.767 348.53C478.621 353.112 454.328 359.949 425.337 353.769C388.27 345.868 370.866 314.7 368.571 302.909C368.353 301.793 369.082 300.713 370.198 300.495Z" fill="#F77C5C"/>
<path fill-rule="evenodd" clip-rule="evenodd" d="M354.74 263.306C355.727 262.742 392.544 304.936 443.068 314.487C493.593 324.038 505.826 317.964 507.792 304.936C507.962 303.812 509.011 303.038 510.135 303.208C511.259 303.378 512.033 304.427 511.863 305.551C509.371 322.061 485.992 325.989 442.376 318.546C399.307 311.196 369.779 293.735 353.976 266.115C353.411 265.129 353.754 263.871 354.74 263.306Z" fill="#F77C5C"/>
<path fill-rule="evenodd" clip-rule="evenodd" d="M566.8 260.969C565.418 260.491 563.93 259.428 562.973 258.205L561.379 256.239L567.013 250.657C575.678 242.152 582.322 233.435 588.063 223.069C589.976 219.614 594.814 208.079 594.814 206.963C594.814 206.591 595.398 205.103 596.089 203.561C597.152 201.329 597.95 200.478 600.236 199.202C602.946 197.608 606.029 197.076 607.358 197.98C609.91 199.681 609.91 205.049 607.358 214.299C604.541 224.451 600.767 231.734 592.953 242.205C591.731 243.8 589.445 246.936 587.797 249.116C583.385 254.963 580.515 257.78 576.634 259.959C572.807 262.086 570.575 262.351 566.8 260.969ZM604.967 256.187L608.794 257.888C609.587 258.254 618.342 262.461 628.858 267.514C645.813 275.661 667.347 286.007 667.478 286.007C667.69 286.007 668.688 283.701 668.913 281.011C669.445 275.217 671.411 267.35 673.697 261.875C674.76 259.43 675.611 256.374 675.611 256.108C675.611 255.986 674.746 255.638 673.332 255.067C671.648 254.388 669.183 253.394 666.468 252.094C653.073 245.662 626.867 232.533 623.624 230.566C620.435 228.706 619.797 228.546 619.797 229.769C619.797 231.363 616.555 238.752 614.056 242.739C612.727 244.918 610.123 248.852 608.262 251.456L604.967 256.187ZM666.574 276.438C668.098 277.321 665.458 278.617 664.82 278.83C661.064 279.149 656.642 278.443 653.019 276.332C651.125 274.988 636.209 266.702 626.315 261.205C621.792 258.692 618.318 256.762 617.618 256.345C615.385 255.016 613.259 253.581 612.887 253.156C611.77 251.72 612.834 251.083 615.97 251.348C617.855 251.508 663.282 274.53 666.574 276.438ZM450.496 415.599C454.596 414.702 460.961 412.016 465.014 410.306L465.016 410.305L465.033 410.298C466.016 409.883 466.862 409.526 467.506 409.266C470.802 407.937 480.848 393.752 484.462 377.752C487.067 365.952 488.396 349.154 486.907 346.337C486.01 344.706 491.341 350.179 495.312 354.255C496.515 355.491 497.594 356.598 498.336 357.34C521.512 380.357 556.01 398.855 591.837 407.52C609.697 411.878 622.402 413.42 639.465 413.42C668.116 413.42 690.707 407.785 711.225 395.4C712.2 394.812 713.113 394.271 713.983 393.756C721.136 389.521 725.397 386.999 737.059 373.872C750.14 359.148 761.776 324.969 765.656 313.168C767.357 307.852 771.504 286.71 771.504 281.434C771.504 275.188 769.324 272.238 766.347 269.208C761.085 264.052 753.962 262.192 748.062 264.424L745.298 265.487L744.447 262.67C743.225 258.418 740.673 255.016 736.74 252.464C730.893 248.584 730.042 248.318 724.78 248.318C720.687 248.318 719.57 248.531 716.966 249.753L713.936 251.135L713.298 249.222C712.075 245.288 707.975 239.805 704.793 238.218C701.971 236.812 697.087 236.683 693.683 237.315C686.242 238.697 680.926 242.152 678.747 246.989C678.109 248.477 677.311 249.647 676.993 249.647C676.727 249.647 666.255 246.722 653.763 241.194C651.657 240.259 649.677 239.381 647.819 238.557C625.387 228.615 620.525 226.46 620.966 223.76C621.338 221.474 621.232 220.199 620.594 218.232C619.478 214.936 618.202 214.032 614.588 214.032C611.717 214.032 611.717 214.032 612.036 212.597C613.737 204.464 613.684 199.787 611.877 196.81C610.654 194.843 609.219 194.046 605.923 193.567C604.01 193.302 603.106 193.461 600.98 194.631C599.545 195.375 598.322 195.906 598.216 195.8C598.109 195.694 598.481 192.77 599.066 189.315C603.425 163.747 600.058 141.718 588.948 118.329C588.843 118.109 588.722 117.849 588.583 117.551L588.581 117.545L588.577 117.538C585.2 110.287 571.62 81.1307 532.781 66.4188C531.023 65.7529 529.359 65.109 527.761 64.4902C514.531 59.3693 505.736 55.9649 484.515 56.0003C460.731 56.0399 452.675 59.4022 436.994 66.5783C434.815 67.5882 432.901 68.173 432.742 67.9603C432.582 67.6945 431.572 67.0567 430.562 66.5251C429.552 65.9936 427.373 64.6647 425.778 63.6016C421.207 60.5185 418.39 59.2428 416.954 59.5617C415.307 59.987 415.307 61.369 416.954 62.0069C417.645 62.2727 418.443 63.1763 418.762 64.08C419.453 65.9936 420.25 66.2062 420.728 64.6115C420.941 64.0268 421.26 63.6016 421.419 63.7079C421.48 63.738 421.681 63.8324 421.989 63.9765L421.99 63.9769L421.991 63.9773L421.991 63.9774L421.991 63.9775C422.768 64.3413 424.219 65.0203 425.778 65.7809C427.958 66.8441 430.35 67.9603 430.987 68.2261C432.157 68.6514 431.785 68.9703 426.735 71.947C407.014 83.535 390.961 101.555 381.978 122.073C380.596 125.156 379.373 127.07 378.097 128.133C374.855 130.844 368.476 138.551 366.988 141.581C366.191 143.229 364.49 145.78 363.161 147.269C361.885 148.757 360.503 150.671 360.025 151.468C359.599 152.319 359.174 152.903 359.015 152.797C358.908 152.638 359.068 150.033 359.44 147.003C360.237 139.933 360.237 138.073 359.599 137.913C358.642 137.648 357.26 141.368 356.676 145.993C356.25 148.81 356.144 153.063 356.41 157.422L356.729 164.332L352.955 158.219C351.655 156.171 350.375 154.124 349.467 152.672C348.89 151.749 348.463 151.066 348.277 150.777C346.895 148.757 346.098 145.727 346.682 144.717C347.001 144.133 346.948 143.867 346.417 143.867C345.3 143.867 343.121 147.428 341.686 151.521C340.995 153.435 340.304 155.03 340.091 155.03C339.294 155.03 339.666 136 340.516 129.887C342.27 117.82 346.895 102.937 348.968 102.937C349.393 102.937 349.765 102.724 349.765 102.405C349.765 101.448 348.383 101.821 347.267 103.043C344.769 105.754 341.473 114.1 339.4 122.977C337.965 129.09 337.061 136.957 336.742 145.515C336.476 152.903 336.583 154.126 337.646 158.166C338.868 162.684 339.825 164.013 341.473 163.375C342.058 163.162 342.324 162.365 342.324 160.877C342.324 159.707 342.961 156.199 343.759 153.063L345.141 147.428L345.726 149.767C346.47 152.478 350.829 160.877 354.762 166.99C357.473 171.136 357.526 171.402 358.43 177.887C358.908 181.554 360.397 190.475 363.852 204.199C366.905 216.324 384.067 228.352 388.352 231.356C388.917 231.751 389.258 231.99 389.313 232.052C389.845 232.637 390.589 232.956 391.014 232.796C391.493 232.637 391.759 232.85 391.759 233.434C391.759 233.966 392.131 234.657 392.556 234.976C393.087 235.348 393.459 236.783 393.566 239.281C393.832 244.278 397.552 253.846 400.423 256.982C402.283 259.002 406.164 259.853 410.469 259.109C413.287 258.683 414.084 258.364 413.818 257.727C413.659 257.301 414.669 257.833 416.051 258.896C432.21 271.228 448.582 278.617 466.974 281.806C474.097 283.029 485.897 283.72 492.329 283.241C496.453 282.971 497.587 282.897 497.797 283.303C497.877 283.456 497.824 283.679 497.751 283.985C497.379 285.474 497.857 286.378 505.671 299.613C511.891 310.085 512.422 310.776 519.332 317.846C534.003 332.995 550.003 344.743 568.129 353.832C585.192 362.337 612.435 369.407 637.338 371.639C662.242 373.872 680.129 351.015 680.076 345.168C679.969 337.141 678.853 331.879 676.142 326.776C673.484 321.832 671.73 320.131 663.757 314.816C654.88 308.916 649.405 304.078 645.79 298.922C643.504 295.68 642.654 292.012 642.654 290.045C642.654 288.77 644.302 285.899 646.747 285.314C648.979 284.73 649.405 284.783 651.903 286.005C653.391 286.696 657.272 288.504 660.461 290.045C663.704 291.534 666.84 293.022 667.478 293.341C669.358 293.863 670.153 297.544 670.584 299.539C670.68 299.985 670.759 300.347 670.826 300.57C671.571 303.334 675.092 306.903 677.365 308.118C681.355 310.252 691.186 310.537 693.897 307.614C694.588 306.87 696.879 305.955 697.351 306.232C697.823 306.509 699.531 308.809 699.531 310.67C699.584 313.859 701.232 316.783 704.74 319.706C711.384 325.234 716.54 326.563 721.75 324.118C724.461 322.842 726.683 322.344 726.683 322.344C726.683 322.344 728.898 325.171 729.032 326.138C730.076 333.69 741.258 336.857 744.234 337.175C744.917 337.244 746.244 336.952 747.593 336.655L747.593 336.655C749.396 336.259 751.236 335.854 751.623 336.291C752.383 337.147 738.919 359.414 737.059 362.231C719.358 388.809 684.913 405.074 642.76 406.775C615.385 407.892 581.737 400.237 552.555 386.31C533.897 377.327 517.366 366.324 499.665 350.909C496.582 348.251 493.02 345.221 491.745 344.158C490.469 343.148 487.439 339.693 485.1 336.503C481.167 331.188 478.934 329.274 478.934 331.082C478.934 331.879 481.486 336.769 484.409 341.606C485.578 343.52 486.323 344.849 486.057 344.636C485.791 344.424 484.941 348.251 484.143 353.141C481.539 368.822 477.233 384.29 472.874 393.912C470.482 399.121 465.896 403.011 464.514 404.074C459.411 407.955 451.771 409.699 441.193 410.762C427.798 412.091 408.077 409.114 393.034 403.48C389.048 401.991 378.789 397.686 378.097 397.207C378.056 397.166 377.82 395.636 377.492 393.502C377.399 392.901 377.299 392.251 377.194 391.573C375.28 378.443 372.622 327.892 372.622 304.504C372.622 294.829 372.516 292.703 371.878 292.703C370.549 292.703 370.018 293.979 369.433 298.55C368.104 308.969 368.37 363.347 369.805 374.776L370.124 377.38L368.317 376.37C365.553 374.776 355.028 364.091 351.36 359.148C348.255 354.922 346.41 349.509 345.029 345.459C344.708 344.518 344.412 343.649 344.131 342.887C336.423 321.518 339.134 297.54 349.765 275.959C358.802 257.567 369.911 247.361 386.177 242.418C388.835 241.62 391.174 240.77 391.44 240.557C392.45 239.6 385.965 240.079 382.403 241.195C370.815 244.757 358.696 254.484 350.456 266.922C338.868 284.358 333.659 310.085 337.327 332.038C338.177 337.248 341.633 348.517 342.589 349.314C342.674 349.399 343.111 350.316 343.773 351.703C345.601 355.538 349.142 362.967 351.679 366.324C354.762 370.523 364.064 379.666 367.945 382.483L370.39 384.237L370.762 388.543C371.453 396.782 371.719 397.526 375.44 400.29C384.742 407.36 403.081 413.951 419.665 416.29C427.373 417.353 444.117 416.981 450.496 415.599ZM630.162 365.687C599.279 362.976 561.963 348.251 534.96 325.5C523.585 315.879 508.808 297.169 502.961 286.804C501.738 284.677 500.834 283.667 499.771 283.402C498.655 283.083 499.612 282.764 504.183 282.02C523.479 278.724 542.243 270.697 557.392 259.269L559.625 257.621L560.262 259.163C561.698 262.618 567.226 266.126 571.319 266.126C572.967 266.126 578.495 263.628 581.844 261.342L584.129 259.801L585.99 261.661C587.691 263.362 588.01 263.468 591.199 263.468C594.867 263.468 599.279 261.82 601.724 259.482L603.053 258.259L606.827 260.757C608.847 262.193 614.481 265.329 619.319 267.827C626.548 271.548 634.202 275.854 641.485 280.319L642.654 281.063L641.538 282.551C640.368 284.146 638.19 287.176 638.19 291.8C638.19 297.01 643.607 306.369 653.976 312.797C662.123 317.847 676.142 327.78 675.611 342.298C675.546 344.052 673.591 348.411 670.986 352.345C669.285 354.843 664.554 358.564 660.249 360.743C652.913 364.411 639.996 366.537 630.162 365.687ZM346.736 127.07C348.171 127.389 349.128 127.867 348.915 128.08C348.224 128.771 344.556 128.452 343.706 127.602C342.377 126.326 342.696 125.422 344.556 125.05C345.513 124.891 346.948 124.093 347.746 123.296C348.543 122.499 349.234 122.127 349.234 122.392C349.234 123.083 346.576 125.529 345.247 126.06C344.397 126.432 344.663 126.592 346.736 127.07ZM367.892 127.92C369.433 127.07 369.114 126.485 367.307 126.751C365.5 127.017 365.393 126.804 366.563 124.997C367.041 124.306 367.307 123.296 367.201 122.764C367.041 122.073 366.669 122.392 365.819 124.093C365.181 125.316 364.277 126.326 363.852 126.326C362.523 126.326 362.417 127.389 363.692 127.867C365.34 128.558 366.616 128.558 367.892 127.92ZM349.5 98.8959C348.224 99.1085 344.237 100.703 340.729 102.457C337.168 104.158 334.138 105.594 333.925 105.54C328.503 104.956 336.051 95.9192 349.765 86.67C362.895 77.793 371.772 73.1153 380.011 70.7233C385.167 69.2349 390.961 69.0223 392.609 70.2449C393.513 70.9359 393.194 70.9891 389.26 71.0422C380.755 71.0422 370.921 75.401 354.922 86.0853C346.629 91.6135 337.008 99.5337 337.008 100.809C337.008 101.075 338.55 100.544 340.463 99.6932C344.556 97.8328 348.755 96.876 350.616 97.3012C352.583 97.8328 352.157 98.5238 349.5 98.8959ZM370.071 103.467C375.068 102.457 375.28 102.404 375.28 101.873C375.28 101.607 373.367 101.341 370.975 101.235L366.669 101.075L370.656 96.557C372.835 94.0587 375.387 91.5603 376.29 90.9756C378.257 89.6999 378.363 88.7962 376.769 88.2647L375.546 87.8926L376.875 87.4142C377.619 87.1484 379.001 87.0421 379.958 87.2016C381.393 87.4142 381.712 87.3079 381.553 86.5637C381.393 85.8195 380.808 85.66 378.204 85.7132C370.602 85.8195 367.36 87.8394 373.313 88.7962C374.961 89.062 376.343 89.4873 376.343 89.753C376.343 89.9657 376.078 90.1783 375.759 90.1783C374.749 90.1783 366.191 98.8427 365.127 100.969C363.48 104.105 364.383 104.584 370.071 103.467ZM405.154 82.8436C403.612 82.9499 403.24 83.2156 403.347 83.9598L403.363 84.0681L403.363 84.0681C403.423 84.4613 403.457 84.6872 403.369 84.7558C403.25 84.8484 402.908 84.6543 402.104 84.1984L401.965 84.1193C400.955 83.5877 400.848 83.322 401.433 82.8967C401.805 82.5778 402.815 82.0994 403.612 81.9399L405.101 81.5678L403.984 80.3984C403.4 79.7074 403.081 79.0695 403.24 78.8569C403.666 78.4316 408.875 79.0163 409.619 79.6011C409.938 79.8668 410.416 79.8137 410.735 79.4947C411.479 78.7506 412.489 79.3353 412.489 80.5047C412.489 81.1426 412.33 81.1957 411.852 80.7173C411.426 80.2921 411.054 80.2921 410.576 80.6642C410.151 81.0363 409.832 81.0363 409.566 80.611C409.406 80.3452 408.396 80.0795 407.333 80.0795C406.352 80.0795 405.889 80.0795 405.794 80.2664C405.709 80.434 405.921 80.752 406.323 81.3552C407.171 82.68 407.121 82.6841 405.172 82.8421L405.154 82.8436ZM397.074 68.7055C397.074 68.0145 396.436 66.7919 395.639 65.9946L394.151 64.5062L402.124 64.8252C406.536 65.0378 411.532 65.5162 413.287 65.9946C415.041 66.4198 417.061 66.7388 417.805 66.7388C418.921 66.7388 418.709 66.5261 416.635 65.4099C413.021 63.5494 408.396 62.6458 399.519 62.0079C388.888 61.2637 383.519 62.2737 384.529 64.9315C384.689 65.463 385.539 65.7288 386.815 65.7288C389.42 65.7288 393.672 67.2703 395.107 68.7055C396.649 70.247 397.074 70.247 397.074 68.7055ZM371.134 209.461C375.44 214.989 381.127 221.262 383.785 223.388C385.38 224.664 386.762 225.727 386.868 225.727C386.921 225.727 385.752 223.282 384.264 220.305C378.257 208.345 374.749 196.438 373.101 182.724C372.729 179.694 372.144 177.142 371.506 176.079C370.23 173.953 370.23 171.189 371.559 168.584C372.25 167.202 372.622 165.448 372.622 163.535V160.611L370.071 163.269C367.573 165.873 365.181 166.937 365.181 165.342C365.181 164.172 369.114 158.538 371.187 156.784C372.835 155.402 373.048 154.923 373.579 150.777C373.951 148.279 374.802 143.867 375.493 140.943C376.237 138.02 376.662 135.521 376.556 135.415C376.184 135.043 363.692 149.39 361.991 153.967C361.618 154.971 360.609 156.731 359.812 157.794L358.43 159.568C358.43 159.568 358.859 162.053 359.333 165.176C359.813 168.331 360.038 170.5 360.238 172.431C360.506 175.016 360.73 177.175 361.46 180.704C362.31 185.063 363.161 188.837 363.373 189.102C363.533 189.421 364.224 191.867 364.915 194.578C366.403 200.584 368.901 206.538 371.134 209.461ZM586.84 259.745L585.724 258.629C585.724 258.629 604.251 235.09 607.571 226.416C610.105 219.797 611.596 217.92 613.607 217.92C614.732 217.92 615.651 218.177 616.076 218.815C616.82 219.931 617.537 221.313 616.581 226.044C614.986 233.699 612.541 238.748 605.205 249.645C603.504 252.144 601.325 254.908 600.368 255.864C598.135 257.938 593.113 260.064 590.189 260.542C588.329 260.808 587.797 260.702 586.84 259.745Z" fill="#00160A"/>
<path d="M734.029 311.749C740.642 293.731 739.641 289.892 738.494 289.516C738.494 289.516 735.969 290.952 734.852 293.981C732.779 299.669 725.683 314.553 723.026 317.21C719.889 320.347 719.889 320.347 716.7 320.347C713.511 320.347 704.312 315.544 703.06 310.809C701.056 303.234 709.683 276.918 709.896 275.43L708.461 274.42C707.504 275.324 695.058 313.064 678.694 303.231C676.82 302.104 672.846 296.799 672.528 293.981C670.756 285.795 678.883 257.171 680.265 251.291C681.502 246.029 687.943 241.145 695.863 241.145C708.036 241.145 706.401 251.785 711.853 255.534C714.269 257.196 718.24 254.184 719.464 253.955C726.321 252.679 728.949 254.165 733.976 258.154C737.856 261.234 740.727 267.329 743.887 269.477C745.642 270.67 747.505 269.039 748.115 268.732C750.616 267.477 755.982 268.413 757.471 269.477C759.652 270.428 764.999 275.568 765.844 278.557C769.672 292.105 757.584 322.142 753.02 327.776C745.465 337.103 727.416 329.767 734.029 311.749Z" fill="white"/>
<path fill-rule="evenodd" clip-rule="evenodd" d="M428.436 262.375C443.001 271.571 458.019 277.578 475.135 279.225C488.636 280.501 506.841 278.747 519.917 274.495C530.92 270.933 545.804 261.067 555.744 252.722C575.04 236.562 587.212 211.321 592.528 184.531C593.272 180.757 594.407 171.27 594.354 161.861C594.354 150.911 589.535 120.988 574.933 103.734C544.818 68.1482 495.314 52.1178 453.71 65.8148C438.702 70.7557 422.723 79.7077 410.657 91.4019C395.454 106.232 384.238 126.432 379.773 147.056C375.096 168.85 381.181 194.896 391.759 216.265C400.21 233.275 414.137 253.285 428.436 262.375ZM570.362 198.138C560.369 228.171 534.322 250.603 501.578 257.407C496.582 258.417 493.127 258.789 486.11 258.895C481.167 259.055 476.223 259.002 475.213 258.895C452.303 256.131 434.868 247.679 418.815 231.626C411.798 224.557 408.822 220.729 404.463 213.181C397.606 201.221 393.938 188.995 392.822 174.271C388.994 123.826 425.087 81.7801 475.904 77.4213C495.838 75.7203 517.95 81.8333 534.748 93.7402C540.967 98.1521 552.236 109.315 555.744 114.524C557.179 116.597 571.106 136.956 573.551 148.65C576.688 163.853 575.465 182.882 570.362 198.138Z" fill="white"/>
<path fill-rule="evenodd" clip-rule="evenodd" d="M594.373 161.86C594.373 197.539 577.496 236.545 555.715 253.203C545.323 261.151 531.743 270.775 519.917 274.493C502.586 279.942 475.135 279.224 475.135 279.224C475.135 279.224 503.141 275.48 513.519 271.303C543.28 259.326 559.526 240.941 569.558 223.3C589.361 188.479 594.373 160.993 594.373 161.86Z" fill="#E7EAEE"/>
<path fill-rule="evenodd" clip-rule="evenodd" d="M475.745 252.515C461.552 250.707 447.466 245.658 436.09 238.163C429.34 233.751 419.134 223.385 414.19 215.997C407.121 205.365 402.443 193.99 400.157 181.764C398.509 172.887 398.562 159.226 400.21 151.306C401.911 143.226 404.091 137.06 407.971 129.246C412.489 120.21 417.273 113.565 424.449 106.389C436.675 94.1635 450.868 86.4028 467.771 82.6818C473.246 81.5124 493.073 80.5556 493.764 81.4593C493.924 81.725 494.987 82.4161 496.103 83.0008C497.22 83.6387 500.196 85.8712 502.642 88.0506C506.309 91.2399 507.957 93.2599 511.146 98.2565C513.326 101.658 515.08 104.742 515.08 105.007C515.08 105.592 516.781 106.655 517.738 106.655C519.067 106.655 519.97 102.668 520.236 95.6519C520.396 91.7715 520.714 88.5821 520.927 88.5821C521.671 88.5821 529.857 93.1004 533.684 95.6519C541.179 100.649 548.674 107.665 554.203 115.001C556.701 118.296 557.073 119.147 557.073 121.167C557.073 123.027 557.605 124.462 559.252 127.333C563.399 134.562 566.641 143.652 568.608 153.698C569.884 160.449 569.884 173.206 568.555 180.276C564.94 199.731 554.203 219.08 540.223 231.359C528.369 241.724 515.771 248.103 500.887 251.239C495.784 252.355 480.476 253.099 475.745 252.515ZM437.738 216.158C438.217 215.626 438.536 214.829 438.376 214.457C438.328 214.345 437.663 214.032 436.688 213.574C434.417 212.506 430.469 210.65 428.758 208.716C421.954 200.955 419.456 195.161 417.914 183.201C416.426 171.56 417.676 163.69 420.359 151.042C421.668 144.872 425.147 139.775 427.311 136.604C428.783 134.448 429.647 133.183 428.808 133.075C426.735 132.756 426.416 132.916 424.237 134.989C419.559 139.454 417.433 143.015 415.2 149.872C411.745 160.61 411.077 189.628 417.914 202.709C424.751 215.791 436.516 217.54 437.738 216.158ZM513.326 171.505C512.423 179.762 508.595 191.704 504.13 196.913C502.057 199.358 494.447 203.558 488.024 202.707C481.819 201.886 476.967 198.986 472.821 192.767C469.26 187.398 467.42 180.882 466.177 172.674C464.029 158.502 473.406 142.003 477.446 137.91C481.539 133.711 484.462 132.223 488.183 132.17C491.798 132.17 494.137 132.967 497.804 135.571C504.502 140.249 515.08 155.459 513.326 171.505ZM441.672 127.547C442.735 126.324 442.894 125.739 442.575 123.454C442.363 121.327 441.938 120.477 440.821 119.573C438.855 117.979 436.409 117.979 434.602 119.679C433.326 120.902 433.167 121.327 433.326 124.251C433.486 127.387 433.592 127.6 435.346 128.557C437.685 129.832 439.971 129.46 441.672 127.547ZM474.841 94.7488C465.273 101.606 461.127 104.423 456.821 107.081C453.419 109.207 452.356 109.26 452.356 107.347C452.356 106.337 453.1 105.22 455.014 103.466L457.672 101.021L452.516 100.33C446.722 99.586 441.087 97.9913 439.865 96.7687C437.845 94.6956 439.599 94.2172 445.34 95.2803C447.891 95.7056 452.835 96.2371 456.343 96.3434L462.722 96.6092L467.346 93.2604C477.499 85.9249 488.024 81.7788 493.073 83.0545C496.21 83.7987 495.838 84.6492 492.276 85.0744C488.183 85.5528 485.685 86.9349 474.841 94.7488Z" fill="white"/>
<path d="M488.502 195.43C488.502 195.164 488.821 194.898 489.246 194.898C489.672 194.898 490.203 195.164 490.363 195.43C490.522 195.749 490.203 195.962 489.618 195.962C488.981 195.962 488.502 195.749 488.502 195.43Z" fill="white"/>
<path d="M491.691 194.948C491.691 194.364 493.02 193.832 494.509 193.832C495.678 193.885 495.678 193.885 494.668 194.629C493.499 195.533 491.691 195.692 491.691 194.948Z" fill="white"/>
<path d="M483.452 193.568C483.293 193.143 483.08 192.398 482.921 191.973C482.761 191.442 483.027 191.176 483.718 191.176C484.303 191.176 484.781 191.495 484.781 191.92C484.781 192.345 484.941 193.036 485.1 193.515C485.313 194.099 485.153 194.365 484.569 194.365C484.09 194.365 483.559 193.993 483.452 193.568Z" fill="white"/>
<path d="M486.27 192.236C486.004 190.641 486.588 190.109 488.502 190.109C489.087 190.109 489.565 190.641 489.778 191.545C490.203 193.086 489.512 193.83 487.652 193.83C486.801 193.83 486.429 193.458 486.27 192.236Z" fill="white"/>
<path d="M480.848 192.504C479.838 191.707 479.838 191.707 480.954 191.707C481.645 191.707 482.123 192.026 482.123 192.504C482.123 193.461 482.123 193.461 480.848 192.504Z" fill="white"/>
<path d="M491.532 192.449C490.841 191.758 491.16 189.685 492.01 189.366C493.552 188.781 494.243 189.047 494.562 190.429C494.774 191.226 494.881 191.917 494.774 191.97C494.349 192.449 491.851 192.768 491.532 192.449Z" fill="white"/>
<path d="M496.263 191.335C496.103 191.176 495.944 190.485 495.944 189.847C495.944 188.943 496.369 188.571 497.645 188.306C498.761 188.093 499.452 188.199 499.771 188.624C500.303 189.475 500.303 190.538 499.824 190.804C498.867 191.335 496.635 191.654 496.263 191.335Z" fill="white"/>
<path d="M478.402 189.687C478.402 189.05 478.881 188.518 479.572 188.359C480.954 187.987 480.901 187.933 481.166 189.315C481.273 190.113 481.007 190.432 479.891 190.538C478.721 190.697 478.402 190.485 478.402 189.687Z" fill="white"/>
<path d="M482.442 189.739C481.698 188.941 482.177 187.453 483.187 187.453C483.878 187.453 484.25 187.825 484.25 188.463C484.25 189.473 483.027 190.324 482.442 189.739Z" fill="white"/>
<path d="M485.632 188.145C485.206 187.135 486.11 186.391 487.864 186.391C488.662 186.391 489.034 186.71 489.034 187.401C489.034 187.985 488.555 188.517 487.864 188.729C486.11 189.155 486.004 189.155 485.632 188.145Z" fill="white"/>
<path d="M500.994 187.985C501.153 187.719 501.419 187.453 501.578 187.453C501.738 187.453 501.685 187.719 501.525 187.985C501.366 188.304 501.1 188.516 500.941 188.516C500.781 188.516 500.834 188.304 500.994 187.985Z" fill="white"/>
<path d="M490.416 187.081C489.991 186.018 490.522 185.487 492.223 185.221C493.18 185.115 493.605 185.327 493.712 186.071C494.084 187.826 491.054 188.782 490.416 187.081Z" fill="white"/>
<path d="M477.658 186.179C477.18 184.425 477.286 184.266 478.668 184.266C479.413 184.266 479.997 184.478 479.997 184.744C479.997 185.01 480.157 185.595 480.316 186.02C480.476 186.551 480.157 186.87 479.253 187.03C478.243 187.242 477.871 187.03 477.658 186.179Z" fill="white"/>
<path d="M495.412 185.593C495.412 184.636 495.784 184.211 496.794 183.945C498.283 183.573 499.133 184.317 499.133 186.018C499.133 186.709 498.708 186.922 497.273 186.922C495.625 186.922 495.412 186.763 495.412 185.593Z" fill="white"/>
<path d="M476.064 185.594C475.904 185.169 476.011 184.797 476.276 184.797C476.595 184.797 476.808 185.169 476.808 185.594C476.808 186.019 476.702 186.392 476.595 186.392C476.489 186.392 476.276 186.019 476.064 185.594Z" fill="white"/>
<path d="M481.432 186.018C480.688 185.327 481.114 183.839 482.07 183.573C482.655 183.413 483.24 183.467 483.399 183.626C484.037 184.211 483.665 185.752 482.868 186.071C481.858 186.443 481.858 186.443 481.432 186.018Z" fill="white"/>
<path d="M500.409 185.65C499.824 184.108 500.462 182.939 501.95 182.779C503.067 182.62 503.386 182.833 503.386 183.683C503.386 185.437 502.801 186.394 501.738 186.394C501.153 186.394 500.568 186.075 500.409 185.65Z" fill="white"/>
<path d="M485.153 184.958C484.515 184.373 484.728 183.31 485.632 182.991C486.642 182.619 488.768 183.682 488.183 184.267C487.439 184.905 485.525 185.383 485.153 184.958Z" fill="white"/>
<path d="M489.778 183.625C489.3 182.881 491.001 181.605 492.383 181.605C493.02 181.605 493.286 181.924 493.18 182.509C492.967 183.572 490.256 184.423 489.778 183.625Z" fill="white"/>
<path d="M475.213 183.254C475.213 182.988 475.054 182.403 474.894 181.925C474.735 181.446 474.788 181.074 475.107 181.074C475.798 181.074 476.329 183.094 475.692 183.519C475.426 183.679 475.213 183.573 475.213 183.254Z" fill="white"/>
<path d="M476.648 182.036C476.33 180.866 476.967 180.016 478.19 180.016C478.881 180.016 479.572 182.089 479.147 182.78C478.562 183.683 476.914 183.152 476.648 182.036Z" fill="white"/>
<path d="M480.369 182.295C479.572 181.498 480.05 179.584 481.113 179.319C481.911 179.106 482.336 179.372 482.761 180.329C483.08 181.02 483.24 181.711 483.133 181.817C482.602 182.295 480.688 182.668 480.369 182.295Z" fill="white"/>
<path d="M494.721 182.3C494.03 181.609 494.349 181.184 495.944 180.599C497.273 180.174 497.645 180.227 497.911 180.865C498.389 182.141 495.731 183.363 494.721 182.3Z" fill="white"/>
<path d="M499.399 181.075C498.867 180.225 499.612 179.48 500.994 179.48C502.641 179.48 503.12 180.863 501.631 181.288C500.037 181.713 499.771 181.66 499.399 181.075Z" fill="white"/>
<path d="M503.917 179.801C503.917 179.004 504.874 178.153 505.299 178.578C505.671 178.95 504.927 180.545 504.396 180.545C504.13 180.545 503.917 180.226 503.917 179.801Z" fill="white"/>
<path d="M474.522 179.111C474.309 178.952 474.15 178.261 474.203 177.676C474.203 176.666 474.256 176.666 474.735 177.836C475.266 179.111 475.16 179.749 474.522 179.111Z" fill="white"/>
<path d="M475.532 178.313C475.053 176.452 475.107 176.293 476.489 176.293C478.03 176.293 478.987 178.26 477.818 179.004C476.595 179.748 475.904 179.535 475.532 178.313Z" fill="white"/>
<path d="M493.818 179.377C493.818 179.217 494.083 178.367 494.402 177.41C495.147 175.284 496.794 175.177 497.166 177.25C497.326 178.048 497.379 178.739 497.326 178.792C497.06 179.111 493.818 179.589 493.818 179.377Z" fill="white"/>
<path d="M479.306 178.048C479.094 177.888 478.934 177.251 478.934 176.666C478.934 175.815 479.094 175.762 479.731 176.294C480.157 176.666 480.529 177.304 480.529 177.676C480.529 178.473 479.891 178.686 479.306 178.048Z" fill="white"/>
<path d="M498.442 176.984C498.123 175.337 498.814 174.592 500.462 174.805C501.259 174.911 501.525 175.39 501.525 176.559C501.525 177.888 501.313 178.207 500.143 178.313C498.974 178.473 498.708 178.207 498.442 176.984Z" fill="white"/>
<path d="M503.652 177.196C502.961 175.07 503.173 174.432 504.608 174.273C505.884 174.113 506.044 174.273 506.044 175.655C506.044 176.824 505.725 177.303 504.927 177.515C504.343 177.675 503.758 177.515 503.652 177.196Z" fill="white"/>
<path d="M473.725 174.165C473.725 173.155 473.831 172.73 473.99 173.261C474.097 173.74 474.097 174.59 473.99 175.122C473.831 175.6 473.725 175.175 473.725 174.165Z" fill="white"/>
<path d="M475.054 174.858C474.363 174.22 474.682 172.147 475.532 171.828C476.755 171.35 477.34 171.935 477.34 173.689C477.34 174.805 477.074 175.23 476.383 175.23C475.851 175.23 475.213 175.071 475.054 174.858Z" fill="white"/>
<path d="M478.243 173.419C478.031 172.622 477.924 171.771 478.137 171.612C478.668 171.08 478.987 171.931 478.828 173.472L478.668 174.961L478.243 173.419Z" fill="white"/>
<path d="M495.412 173.047C495.412 172.462 495.678 172.143 495.944 172.303C496.263 172.462 496.475 172.994 496.475 173.419C496.475 173.844 496.263 174.163 495.944 174.163C495.678 174.163 495.412 173.685 495.412 173.047Z" fill="white"/>
<path d="M497.804 173.741C497.06 172.943 497.645 171.508 498.867 171.189C500.409 170.817 500.462 170.817 500.94 172.359C501.259 173.315 501.047 173.528 499.665 173.741C498.814 173.9 497.964 173.847 497.804 173.741Z" fill="white"/>
<path d="M502.695 172.732C502.11 172.2 502.27 170.446 502.854 170.446C503.173 170.446 503.386 170.234 503.386 169.915C503.386 169.649 503.067 169.383 502.642 169.383C501.738 169.383 500.994 166.779 501.738 166.034C502.695 165.078 503.758 166.087 504.396 168.692C504.768 170.074 505.14 171.669 505.299 172.2C505.512 172.891 505.299 173.104 504.289 173.104C503.598 173.104 502.854 172.945 502.695 172.732Z" fill="white"/>
<path d="M505.565 169.913C505.193 168.319 504.236 165.129 503.545 162.79C502.482 159.388 502.376 158.538 502.96 158.166C503.333 157.9 503.811 157.688 503.97 157.688C504.555 157.688 506.681 168.584 506.469 170.711L506.309 172.837L505.565 169.913Z" fill="white"/>
<path d="M473.193 169.648C473.193 168.797 473.299 168.478 473.459 169.01C473.565 169.488 473.565 170.232 473.459 170.605C473.299 170.923 473.193 170.551 473.193 169.648Z" fill="white"/>
<path d="M474.256 169.537C474.469 167.677 476.01 167.252 476.436 168.953C476.808 170.335 476.914 170.175 475.319 170.707C474.203 171.026 474.097 170.919 474.256 169.537Z" fill="white"/>
<path d="M496.688 169.06C496.263 167.519 497.166 166.615 498.867 166.828C500.143 166.987 500.622 169.273 499.559 169.964C498.23 170.814 497.007 170.442 496.688 169.06Z" fill="white"/>
<path d="M477.339 168.636C477.339 167.732 477.605 167.254 478.19 167.254C478.721 167.254 478.934 167.626 478.828 168.423C478.562 170.124 477.339 170.284 477.339 168.636Z" fill="white"/>
<path d="M472.609 166.403C472.609 165.818 472.768 165.659 472.928 166.084C473.087 166.456 473.034 166.934 472.874 167.094C472.715 167.307 472.555 166.988 472.609 166.403Z" fill="white"/>
<path d="M473.619 166.245C473.619 165.448 473.938 165.129 474.735 165.129C475.479 165.129 475.745 165.395 475.639 166.033C475.373 167.415 473.619 167.574 473.619 166.245Z" fill="white"/>
<path d="M476.542 165.767C476.17 164.81 476.17 164.81 477.765 164.384C478.721 164.066 478.934 164.225 478.934 165.022C478.934 166.298 477.02 166.936 476.542 165.767Z" fill="white"/>
<path d="M495.784 165.024C495.412 163.695 496.103 163.004 497.964 163.004C498.867 163.004 499.133 163.323 499.133 164.333C499.133 165.13 498.814 165.662 498.389 165.662C497.964 165.662 497.273 165.821 496.847 165.981C496.369 166.14 495.997 165.821 495.784 165.024Z" fill="white"/>
<path d="M500.409 163.802C499.984 162.739 500.622 161.941 501.844 161.941C502.588 161.941 502.854 162.313 502.854 163.27C502.854 164.227 502.588 164.599 501.791 164.599C501.206 164.599 500.568 164.227 500.409 163.802Z" fill="white"/>
<path d="M473.087 163.056C473.087 161.939 474.309 160.664 474.841 161.248C475.054 161.408 475.213 162.152 475.213 162.843C475.213 163.694 474.894 164.066 474.15 164.066C473.459 164.066 473.087 163.694 473.087 163.056Z" fill="white"/>
<path d="M476.01 162.416C475.585 161.087 476.064 160.502 477.871 160.236C479.519 160.024 480.05 161.778 478.615 162.841C477.233 163.851 476.383 163.692 476.01 162.416Z" fill="white"/>
<path d="M495.253 162.101C494.881 161.782 494.721 159.815 495.04 159.815C495.093 159.815 495.891 159.603 496.847 159.337C498.442 158.859 498.548 158.912 498.495 160.347C498.442 161.41 498.123 161.942 497.326 162.154C495.891 162.526 495.678 162.526 495.253 162.101Z" fill="white"/>
<path d="M493.286 160.875C493.286 160.503 493.446 160.344 493.658 160.503C493.818 160.716 493.818 161.035 493.658 161.247C493.446 161.407 493.286 161.247 493.286 160.875Z" fill="white"/>
<path d="M499.24 160.026C499.399 159.122 501.047 157.793 501.419 158.218C501.578 158.378 501.844 159.016 502.004 159.707C502.376 160.77 502.216 160.876 500.728 160.876C499.452 160.876 499.08 160.664 499.24 160.026Z" fill="white"/>
<path d="M473.619 159.973C473.619 159.707 473.884 159.176 474.15 158.75C474.575 158.113 474.682 158.166 474.682 159.176C474.682 159.814 474.469 160.345 474.15 160.345C473.884 160.345 473.619 160.186 473.619 159.973Z" fill="white"/>
<path d="M475.213 158.804C475.213 157.316 476.329 156.837 477.18 157.954C477.711 158.751 477.711 159.017 477.18 159.389C476.064 160.08 475.213 159.867 475.213 158.804Z" fill="white"/>
<path d="M491.373 158.113C490.416 157.05 490.416 156.997 491.319 157.316C491.851 157.528 492.542 157.688 492.808 157.688C493.074 157.688 493.286 158.06 493.286 158.485C493.286 159.602 492.542 159.495 491.373 158.113Z" fill="white"/>
<path d="M479.944 158.059C477.658 156.305 477.339 152.371 479.466 152.371C480.901 152.371 482.23 154.604 482.017 156.677C481.858 158.59 481.22 159.016 479.944 158.059Z" fill="white"/>
<path d="M494.509 158.377C494.721 158.218 495.04 158.218 495.253 158.377C495.412 158.59 495.253 158.75 494.881 158.75C494.509 158.75 494.349 158.59 494.509 158.377Z" fill="white"/>
<path d="M502.535 156.303C502.695 155.825 502.854 155.346 502.854 155.24C502.854 155.134 503.12 155.027 503.386 155.027C503.705 155.027 503.917 155.506 503.917 156.09C503.917 156.728 503.545 157.154 503.067 157.154C502.482 157.154 502.323 156.888 502.535 156.303Z" fill="white"/>
<path d="M474.682 156.145C474.682 154.922 475.798 152.902 476.436 152.902C477.552 152.902 476.755 156.304 475.585 156.517C475.107 156.623 474.682 156.464 474.682 156.145Z" fill="white"/>
<path d="M486.642 155.559L485.047 155.187L486.482 154.815C487.97 154.39 489.034 154.709 489.034 155.612C489.034 156.144 488.98 156.144 486.642 155.559Z" fill="white"/>
<path d="M484.781 153.01C484.781 150.831 486.004 150.512 487.12 152.425C487.864 153.701 487.917 153.967 487.226 153.967C486.801 153.967 486.11 154.126 485.631 154.286C484.994 154.551 484.781 154.233 484.781 153.01Z" fill="white"/>
<path d="M494.03 153.752C491.638 152.689 490.097 149.872 490.097 146.523C490.097 144.131 490.309 143.546 491.745 142.217C492.648 141.367 493.552 140.676 493.818 140.676C494.987 140.676 499.293 144.769 500.728 147.32L502.376 150.244L500.622 152.104C498.602 154.231 496.369 154.815 494.03 153.752Z" fill="white"/>
<path d="M482.921 152.371C482.761 152.106 482.867 151.84 483.133 151.84C483.452 151.84 483.718 152.106 483.718 152.371C483.718 152.69 483.612 152.903 483.505 152.903C483.346 152.903 483.08 152.69 482.921 152.371Z" fill="white"/>
<path d="M475.957 151.522C476.117 151.043 476.276 150.565 476.276 150.459C476.276 150.352 476.755 150.246 477.339 150.246C478.668 150.246 478.722 151.097 477.393 151.841C475.957 152.585 475.585 152.532 475.957 151.522Z" fill="white"/>
<path d="M480.157 150.884C478.934 150.725 478.562 150.034 479.359 149.555C479.572 149.396 480.529 149.13 481.486 148.917C482.921 148.598 483.187 148.705 483.187 149.608C483.187 150.725 482.07 151.203 480.157 150.884Z" fill="white"/>
<path d="M484.25 149.078C484.25 148.44 484.303 148.068 484.409 148.174C484.462 148.281 484.887 148.812 485.259 149.344C485.897 150.088 485.844 150.247 485.1 150.247C484.568 150.247 484.25 149.822 484.25 149.078Z" fill="white"/>
<path d="M476.808 148.704C476.808 148.385 477.074 148.013 477.339 147.854C477.658 147.694 477.871 147.907 477.871 148.332C477.871 148.811 477.658 149.183 477.339 149.183C477.074 149.183 476.808 148.97 476.808 148.704Z" fill="white"/>
<path d="M478.775 147.906C478.349 146.843 482.123 145.673 482.761 146.683C483.24 147.534 482.761 147.906 480.741 148.331C479.519 148.597 478.987 148.491 478.775 147.906Z" fill="white"/>
<path d="M483.771 146.204C483.771 145.619 483.931 145.46 484.09 145.885C484.25 146.257 484.197 146.735 484.037 146.895C483.878 147.107 483.718 146.788 483.771 146.204Z" fill="white"/>
<path d="M479.253 145.356C479.891 144.187 481.751 142.273 482.23 142.273C482.761 142.273 482.814 144.772 482.283 145.091C482.017 145.197 481.167 145.463 480.369 145.675C479.2 145.941 478.934 145.888 479.253 145.356Z" fill="white"/>
<path d="M483.505 144.133C482.921 142.538 483.186 141.847 484.462 141.634C485.791 141.369 485.791 141.369 484.94 143.016C483.877 145.143 483.931 145.143 483.505 144.133Z" fill="white"/>
<path d="M483.187 140.943C483.187 140.837 484.25 140.093 485.579 139.349C487.173 138.392 488.289 138.073 489.087 138.286C490.044 138.605 489.778 138.817 487.439 139.933C484.834 141.103 483.187 141.528 483.187 140.943Z" fill="white"/>
<path d="M512.688 93.8478C511.253 91.7748 508.223 88.426 506.044 86.406C503.864 84.3861 502.429 82.7383 502.854 82.7383C504.024 82.7383 512.954 85.1834 515.186 86.1403C517.047 86.9376 517.1 87.0439 516.622 88.6917C516.356 89.6485 516.143 92.0405 516.143 94.0073C516.143 96.0272 515.984 97.6219 515.771 97.6219C515.505 97.6219 514.176 95.9209 512.688 93.8478Z" fill="white"/>
<path d="M404.516 254.854C402.337 253.738 401.858 253.1 399.094 247.625C395.107 239.864 395.001 238.057 398.775 242.469C400.264 244.223 403.719 247.837 406.43 250.495C411.054 254.96 411.267 255.279 409.725 255.067C408.609 254.907 408.184 255.014 408.45 255.439C409.087 256.396 407.068 256.13 404.516 254.854Z" fill="white"/>
<path fill-rule="evenodd" clip-rule="evenodd" d="M493.599 351.701C493.158 350.654 493.65 349.447 494.697 349.005L495.843 348.519C506.977 343.755 513.368 340.893 517.711 336.349C522.053 331.805 522.573 325.13 523.389 321.068C523.613 319.954 526.137 321.911 527.251 322.135C528.366 322.359 529.088 323.444 528.864 324.559C527.883 329.442 525.242 334.098 520.989 338.517C516.751 342.922 508.545 347.642 496.295 352.8C495.247 353.241 494.04 352.749 493.599 351.701Z" fill="#00160A"/>
<path fill-rule="evenodd" clip-rule="evenodd" d="M543.951 139.61C544.928 139.029 546.191 139.349 546.773 140.326C552.596 150.108 555.715 161.289 555.715 172.923C555.715 208.167 527.144 236.737 491.9 236.737C482.535 236.737 473.452 234.717 465.134 230.869C464.102 230.392 460.204 226.591 464.13 228.136C468.056 229.682 483.244 233.153 492.009 233.153C524.98 233.153 548.304 205.893 548.304 172.923C548.304 162.036 543.951 152.372 543.235 142.432C543.152 141.28 542.974 140.192 543.951 139.61Z" fill="#00160A"/>
<path fill-rule="evenodd" clip-rule="evenodd" d="M340.078 295.411C340.805 294.537 342.103 292.772 342.977 293.5C346.561 296.485 350.385 299.943 354.475 300.611C358.732 301.305 363.782 301.305 369.619 300.599C370.747 300.462 371.773 301.266 371.91 302.395C372.046 303.524 371.242 304.549 370.114 304.686C363.915 305.436 358.484 305.436 353.812 304.674C348.975 303.885 344.476 301.754 340.342 298.31C339.468 297.583 339.35 296.285 340.078 295.411Z" fill="#00160A"/>
<path d="M383.785 223.386C381.127 221.26 375.44 214.988 371.134 209.459C368.901 206.536 366.403 200.582 364.915 194.576C364.224 191.865 363.533 189.42 363.373 189.101C363.161 188.835 362.31 185.061 361.46 180.702C360.184 174.536 360.454 172.55 359.333 165.174C358.859 162.051 358.43 159.566 358.43 159.566L359.812 157.792C360.609 156.729 361.618 154.97 361.991 153.965C363.692 149.388 376.184 135.041 376.556 135.413C376.662 135.52 376.237 138.018 375.493 140.942C374.802 143.865 373.951 148.277 373.579 150.775C373.048 154.922 372.835 155.4 371.187 156.782C369.114 158.536 365.18 164.171 365.18 165.34C365.18 166.935 367.572 165.872 370.071 163.267L372.622 160.609V163.533C372.622 165.446 372.25 167.201 371.559 168.583C370.23 171.187 370.23 173.951 371.506 176.078C372.144 177.141 372.729 179.692 373.101 182.722C374.749 196.436 378.257 208.343 384.263 220.303C385.752 223.28 386.921 225.725 386.868 225.725C386.762 225.725 385.38 224.662 383.785 223.386Z" fill="white"/>
<path fill-rule="evenodd" clip-rule="evenodd" d="M604.967 256.188L608.794 257.889C609.587 258.256 618.342 262.462 628.858 267.515C645.813 275.662 667.347 286.009 667.478 286.009C667.69 286.009 668.688 283.702 668.913 281.012C669.445 275.218 671.411 267.351 673.697 261.876C674.76 259.431 675.611 256.375 675.611 256.109C675.611 255.988 674.746 255.639 673.332 255.068C671.648 254.389 669.183 253.395 666.468 252.095C653.073 245.663 626.867 232.534 623.624 230.567C620.435 228.707 619.797 228.547 619.797 229.77C619.797 231.365 616.555 238.753 614.056 242.74C612.727 244.919 610.123 248.853 608.262 251.457L604.967 256.188ZM666.574 276.439C668.098 277.323 665.458 278.619 664.82 278.831C661.064 279.15 656.642 278.444 653.019 276.333C651.125 274.99 636.209 266.703 626.315 261.206C621.792 258.693 618.318 256.763 617.618 256.346C615.385 255.017 613.259 253.582 612.887 253.157C611.77 251.722 612.834 251.084 615.97 251.35C617.855 251.509 663.282 274.531 666.574 276.439Z" fill="white"/>
<path d="M566.801 260.968C565.419 260.489 563.93 259.426 562.973 258.204L561.379 256.237L567.013 250.656C575.678 242.151 582.056 232.856 587.797 222.49C589.711 219.035 595.398 205.101 596.089 203.56C597.153 201.327 597.95 200.476 600.236 199.201C602.946 197.606 606.03 197.075 607.358 197.978C609.91 199.679 609.91 205.048 607.358 214.297C604.541 224.45 600.767 231.732 592.953 242.204C591.731 243.798 589.445 246.935 587.797 249.114C583.385 254.961 580.515 257.778 576.634 259.958C572.807 262.084 570.575 262.35 566.801 260.968Z" fill="white"/>
<path d="M586.84 259.747L585.724 258.63C585.724 258.63 604.251 235.091 607.571 226.418C610.104 219.799 611.595 217.922 613.607 217.922C614.732 217.922 615.651 218.179 616.076 218.817C616.82 219.933 617.537 221.315 616.58 226.046C614.986 233.7 612.54 238.75 605.205 249.647C603.504 252.145 601.325 254.909 600.368 255.866C598.135 257.939 593.113 260.065 590.189 260.544C588.329 260.81 587.797 260.703 586.84 259.747Z" fill="white"/>
<path fill-rule="evenodd" clip-rule="evenodd" d="M617.961 235.132C619.033 232.679 619.797 230.54 619.797 229.766C619.797 228.543 620.435 228.703 623.624 230.563C626.867 232.53 653.073 245.66 666.468 252.091C671.464 254.483 675.611 255.839 675.611 256.105C675.611 256.371 616.825 237.732 617.961 235.132Z" fill="#E7EAEE"/>
<path fill-rule="evenodd" clip-rule="evenodd" d="M436.09 238.165C429.34 233.753 419.134 223.388 414.19 215.999C407.121 205.368 402.443 193.993 400.157 181.767C398.509 172.89 398.562 159.229 400.21 151.308C401.911 143.229 404.091 137.063 407.971 129.249C412.489 120.212 417.273 113.568 424.449 106.392C431.486 99.3547 400.21 128.456 407.971 180.524C414.19 224.157 440.918 241.346 436.09 238.165Z" fill="#E7EAEE"/>
</svg>
