<svg width="538" height="411" viewBox="0 0 538 411" fill="none" xmlns="http://www.w3.org/2000/svg">
<g clip-path="url(#clip0_1842_2626)">
<path fill-rule="evenodd" clip-rule="evenodd" d="M309.654 408C374.062 408 430.584 360.538 398.841 296.074C367.098 231.609 485.042 233.691 519.688 189.138C561.94 134.803 549.704 -95.8414 278.463 44.7705C235.013 67.2948 123.425 21.5982 86.4105 44.272C42.841 70.9614 -18.4589 125.613 42.841 181.595C73.0361 209.171 -35.2205 280.745 12.1938 344.857C58.4582 407.414 90.8887 347.779 161.326 360.538C231.763 373.298 261.819 408 309.654 408Z" fill="#BC3D70"/>
<path d="M347 253H394V393H347V253Z" fill="#0F0F0F"/>
<path d="M414.809 243.713H354.548C354.295 243.71 354.047 243.65 353.82 243.538C353.533 243.538 353.251 243.465 353 243.326C352.749 243.188 352.538 242.988 352.386 242.746L319.209 189.881V403.211C319.209 403.658 319.031 404.087 318.713 404.404C318.396 404.72 317.965 404.898 317.515 404.898C317.066 404.898 316.635 404.72 316.318 404.404C316 404.087 315.822 403.658 315.822 403.211V188.205L260.829 243.741C260.712 244.068 260.498 244.352 260.214 244.553C259.93 244.754 259.59 244.864 259.242 244.866H146.89C146.697 244.864 146.506 244.828 146.326 244.759V408.497H415.21V243.657C415.079 243.692 414.945 243.711 414.809 243.713ZM377.782 321.131V378.207H362.114V320.152H349.382L370.933 260.146L391.502 321.131H377.782Z" fill="white"/>
<path d="M257.527 241.509V231.562H83.8302L83.627 241.572L257.527 241.509Z" fill="white"/>
<path d="M477.036 230.398H356.243V240.346L477.03 240.396L477.024 230.421" fill="white"/>
<path d="M477.003 226.531L414 171.5H147L84 229L258.165 228.218L309.466 176.394C309.785 176.094 310.208 175.928 310.648 175.933C311.087 175.937 311.507 176.111 311.819 176.418C312.132 176.725 312.313 177.141 312.324 177.578C312.334 178.016 312.174 178.44 311.877 178.762L260.909 230.22V238.853L315.795 183.402C316.018 183.181 316.297 183.026 316.603 182.952L316.761 182.828C317.141 182.591 317.6 182.515 318.038 182.615C318.475 182.715 318.854 182.984 319.092 183.362L352.851 237.16V229.343L330.21 193.862C329.969 193.484 329.888 193.026 329.986 192.589C330.084 192.151 330.352 191.771 330.732 191.531C331.112 191.291 331.571 191.211 332.01 191.308C332.449 191.406 332.831 191.673 333.072 192.051L355.403 227.048H476.991" fill="white"/>
<path d="M316.03 183.829C316.174 183.573 316.383 183.359 316.636 183.208C316.889 183.056 317.177 182.973 317.472 182.967C317.188 182.894 316.891 182.894 316.607 182.967C316.329 183.187 316.127 183.489 316.03 183.829Z" fill="white"/>
<mask id="mask0_1842_2626" style="mask-type:luminance" maskUnits="userSpaceOnUse" x="80" y="169" width="400" height="242">
<path d="M479.627 169.5H80.627V410.5H479.627V169.5Z" fill="white"/>
<path d="M347 253H394V393H347V253Z" fill="black"/>
<path d="M414.809 243.713H354.548C354.295 243.71 354.047 243.65 353.82 243.538C353.533 243.538 353.251 243.465 353 243.326C352.749 243.188 352.538 242.988 352.386 242.746L319.209 189.881V403.211C319.209 403.658 319.031 404.087 318.713 404.404C318.396 404.72 317.965 404.898 317.515 404.898C317.066 404.898 316.635 404.72 316.318 404.404C316 404.087 315.822 403.658 315.822 403.211V188.205L260.829 243.741C260.712 244.068 260.498 244.352 260.214 244.553C259.93 244.754 259.59 244.864 259.242 244.866H146.89C146.697 244.864 146.506 244.828 146.326 244.759V408.497H415.21V243.657C415.079 243.692 414.945 243.711 414.809 243.713ZM377.782 321.131V378.207H362.114V320.152H349.382L370.933 260.146L391.502 321.131H377.782Z" fill="black"/>
<path d="M257.527 241.509V231.562H83.8302L83.627 241.572L257.527 241.509Z" fill="black"/>
<path d="M477.036 230.398H356.243V240.346L477.03 240.396L477.024 230.421" fill="black"/>
<path d="M477.003 226.531L414 171.5H147L84 229L258.165 228.218L309.466 176.394C309.785 176.094 310.208 175.928 310.648 175.933C311.087 175.937 311.507 176.111 311.819 176.418C312.132 176.725 312.313 177.141 312.324 177.578C312.334 178.016 312.174 178.44 311.877 178.762L260.909 230.22V238.853L315.795 183.402C316.018 183.181 316.297 183.026 316.603 182.952L316.761 182.828C317.141 182.591 317.6 182.515 318.038 182.615C318.475 182.715 318.854 182.984 319.092 183.362L352.851 237.16V229.343L330.21 193.862C329.969 193.484 329.888 193.026 329.986 192.589C330.084 192.151 330.352 191.771 330.732 191.531C331.112 191.291 331.571 191.211 332.01 191.308C332.449 191.406 332.831 191.673 333.072 192.051L355.403 227.048H476.991" fill="black"/>
<path d="M316.03 183.829C316.174 183.573 316.383 183.359 316.636 183.208C316.889 183.056 317.177 182.973 317.472 182.967C317.188 182.894 316.891 182.894 316.607 182.967C316.329 183.187 316.127 183.489 316.03 183.829Z" fill="black"/>
</mask>
<g mask="url(#mask0_1842_2626)">
<path d="M347 253V251H345V253H347ZM394 253H396V251H394V253ZM394 393V395H396V393H394ZM347 393H345V395H347V393ZM414.809 243.713V245.713H414.822H414.835L414.809 243.713ZM354.548 243.713L354.523 245.713H354.535H354.548V243.713ZM353.82 243.538L354.703 241.744L354.286 241.539L353.823 241.538L353.82 243.538ZM319.209 189.881L320.903 188.818L317.209 182.932V189.881H319.209ZM315.822 188.205H317.822V183.343L314.4 186.798L315.822 188.205ZM260.829 243.741L259.407 242.334L259.093 242.651L258.944 243.072L260.829 243.741ZM259.242 244.866V246.866H259.254L259.242 244.866ZM146.89 244.866L146.876 246.866H146.89V244.866ZM146.326 244.759L147.044 242.892L144.326 241.847V244.759H146.326ZM146.326 408.497H144.326V410.497H146.326V408.497ZM415.21 408.497V410.497H417.21V408.497H415.21ZM415.21 243.657H417.21V241.039L414.684 241.727L415.21 243.657ZM377.782 321.131V319.131H375.782V321.131H377.782ZM377.782 378.207V380.207H379.782V378.207H377.782ZM362.114 378.207H360.114V380.207H362.114V378.207ZM362.114 320.152H364.114V318.152H362.114V320.152ZM349.382 320.152L347.5 319.476L346.539 322.152H349.382V320.152ZM370.933 260.146L372.828 259.507L370.993 254.064L369.051 259.47L370.933 260.146ZM391.502 321.131V323.131H394.287L393.397 320.492L391.502 321.131ZM257.527 241.51L257.528 243.51H259.527V241.51H257.527ZM257.527 231.563H259.527V229.563H257.527V231.563ZM83.8302 231.563V229.563H81.8704L81.8306 231.522L83.8302 231.563ZM83.627 241.572L81.6274 241.532L81.5859 243.573L83.6277 243.572L83.627 241.572ZM356.243 230.398V228.398H354.243V230.398H356.243ZM356.243 240.346H354.243V242.345L356.242 242.346L356.243 240.346ZM477.03 240.396L477.029 242.396L479.031 242.397L479.03 240.395L477.03 240.396ZM414 171.5L415.316 169.994C414.951 169.675 414.484 169.5 414 169.5V171.5ZM147 171.5V169.5C146.501 169.5 146.02 169.686 145.652 170.023L147 171.5ZM84 229L82.6517 227.523C82.0408 228.08 81.8361 228.957 82.1369 229.727C82.4377 230.498 83.1818 231.004 84.009 231L84 229ZM258.165 228.218L258.174 230.218C258.705 230.216 259.213 230.002 259.587 229.625L258.165 228.218ZM309.466 176.394L308.094 174.939C308.077 174.955 308.061 174.971 308.045 174.987L309.466 176.394ZM311.877 178.762L313.298 180.169C313.314 180.153 313.33 180.136 313.346 180.119L311.877 178.762ZM260.909 230.22L259.488 228.813C259.117 229.187 258.909 229.693 258.909 230.22H260.909ZM260.909 238.853H258.909C258.909 239.663 259.399 240.394 260.149 240.702C260.899 241.011 261.76 240.836 262.331 240.26L260.909 238.853ZM315.795 183.402L314.39 181.979C314.384 181.984 314.379 181.989 314.374 181.995L315.795 183.402ZM316.603 182.952L317.074 184.895C317.351 184.828 317.611 184.702 317.835 184.527L316.603 182.952ZM316.761 182.828L315.704 181.13C315.643 181.168 315.584 181.209 315.528 181.253L316.761 182.828ZM319.092 183.362L320.787 182.299L320.785 182.296L319.092 183.362ZM352.851 237.16L351.156 238.223C351.63 238.978 352.547 239.328 353.404 239.082C354.26 238.835 354.851 238.051 354.851 237.16H352.851ZM352.851 229.343H354.851C354.851 228.962 354.742 228.588 354.537 228.267L352.851 229.343ZM330.21 193.862L328.523 194.937L328.524 194.938L330.21 193.862ZM355.403 227.048L353.717 228.124C354.084 228.7 354.72 229.048 355.403 229.048V227.048ZM316.03 183.828L314.106 183.281L317.772 184.811L316.03 183.828ZM317.472 182.966L317.516 184.966L317.972 181.029L317.472 182.966ZM316.607 182.966L316.107 181.029L315.697 181.135L315.365 181.398L316.607 182.966ZM347 255H394V251H347V255ZM392 253V393H396V253H392ZM394 391H347V395H394V391ZM349 393V253H345V393H349ZM414.809 241.713H354.548V245.713H414.809V241.713ZM354.574 241.713C354.618 241.714 354.662 241.724 354.703 241.744L352.937 245.333C353.431 245.576 353.973 245.706 354.523 245.713L354.574 241.713ZM353.823 241.538C353.873 241.539 353.923 241.551 353.968 241.576L352.032 245.077C352.579 245.379 353.193 245.538 353.817 245.538L353.823 241.538ZM353.968 241.576C354.013 241.601 354.052 241.637 354.08 241.683L350.692 243.809C351.024 244.338 351.486 244.774 352.032 245.077L353.968 241.576ZM354.08 241.683L320.903 188.818L317.515 190.945L350.692 243.809L354.08 241.683ZM317.209 189.881V403.211H321.209V189.881H317.209ZM317.209 403.211C317.209 403.125 317.243 403.045 317.302 402.987L320.125 405.821C320.818 405.13 321.209 404.191 321.209 403.211H317.209ZM317.302 402.987C317.36 402.929 317.437 402.898 317.515 402.898V406.898C318.492 406.898 319.431 406.511 320.125 405.821L317.302 402.987ZM317.515 402.898C317.594 402.898 317.671 402.929 317.729 402.987L314.906 405.821C315.6 406.511 316.538 406.898 317.515 406.898V402.898ZM317.729 402.987C317.787 403.045 317.822 403.125 317.822 403.211H313.822C313.822 404.191 314.213 405.13 314.906 405.821L317.729 402.987ZM317.822 403.211V188.205H313.822V403.211H317.822ZM314.4 186.798L259.407 242.334L262.25 245.148L317.243 189.613L314.4 186.798ZM258.944 243.072C258.966 243.01 259.006 242.958 259.057 242.922L261.37 246.185C261.99 245.746 262.459 245.126 262.713 244.41L258.944 243.072ZM259.057 242.922C259.108 242.885 259.169 242.866 259.23 242.866L259.254 246.866C260.012 246.861 260.751 246.624 261.37 246.185L259.057 242.922ZM259.242 242.866H146.89V246.866H259.242V242.866ZM146.904 242.866C146.952 242.866 146.999 242.875 147.044 242.892L145.607 246.625C146.013 246.781 146.442 246.863 146.876 246.866L146.904 242.866ZM144.326 244.759V408.497H148.326V244.759H144.326ZM146.326 410.497H415.21V406.497H146.326V410.497ZM417.21 408.497V243.657H413.21V408.497H417.21ZM414.684 241.727C414.717 241.718 414.75 241.713 414.783 241.713L414.835 245.713C415.139 245.709 415.442 245.666 415.736 245.586L414.684 241.727ZM375.782 321.131V378.207H379.782V321.131H375.782ZM377.782 376.207H362.114V380.207H377.782V376.207ZM364.114 378.207V320.152H360.114V378.207H364.114ZM362.114 318.152H349.382V322.152H362.114V318.152ZM351.264 320.828L372.816 260.822L369.051 259.47L347.5 319.476L351.264 320.828ZM369.038 260.785L389.607 321.77L393.397 320.492L372.828 259.507L369.038 260.785ZM391.502 319.131H377.782V323.131H391.502V319.131ZM259.527 241.51V231.563H255.527V241.51H259.527ZM257.527 229.563H83.8302V233.563H257.527V229.563ZM81.8306 231.522L81.6274 241.532L85.6265 241.613L85.8298 231.603L81.8306 231.522ZM83.6277 243.572L257.528 243.51L257.526 239.51L83.6262 239.572L83.6277 243.572ZM477.036 228.398H356.243V232.398H477.036V228.398ZM354.243 230.398V240.346H358.243V230.398H354.243ZM356.242 242.346L477.029 242.396L477.031 238.396L356.244 238.346L356.242 242.346ZM479.03 240.395L479.024 230.419L475.024 230.422L475.03 240.398L479.03 240.395ZM478.318 225.025L415.316 169.994L412.684 173.006L475.687 228.037L478.318 225.025ZM145.652 170.023L82.6517 227.523L85.3483 230.477L148.348 172.977L145.652 170.023ZM84.009 231L258.174 230.218L258.156 226.218L83.991 227L84.009 231ZM259.587 229.625L310.887 177.801L308.045 174.987L256.744 226.811L259.587 229.625ZM310.838 177.85C310.78 177.904 310.704 177.933 310.627 177.932L310.668 173.933C309.713 173.923 308.79 174.283 308.094 174.939L310.838 177.85ZM310.627 177.932C310.55 177.932 310.475 177.901 310.418 177.845L313.221 174.991C312.538 174.321 311.623 173.942 310.668 173.933L310.627 177.932ZM310.418 177.845C310.361 177.789 310.326 177.711 310.324 177.627L314.323 177.53C314.3 176.571 313.903 175.662 313.221 174.991L310.418 177.845ZM310.324 177.627C310.322 177.544 310.353 177.464 310.408 177.405L313.346 180.119C313.995 179.416 314.346 178.488 314.323 177.53L310.324 177.627ZM310.456 177.354L259.488 228.813L262.33 231.627L313.298 180.169L310.456 177.354ZM258.909 230.22V238.853H262.909V230.22H258.909ZM262.331 240.26L317.217 184.808L314.374 181.995L259.488 237.446L262.331 240.26ZM317.201 184.825C317.165 184.86 317.121 184.884 317.074 184.895L316.131 181.008C315.474 181.168 314.872 181.503 314.39 181.979L317.201 184.825ZM317.835 184.527L317.993 184.403L315.528 181.253L315.37 181.377L317.835 184.527ZM317.817 184.526C317.749 184.569 317.668 184.582 317.591 184.564L318.484 180.665C317.533 180.447 316.534 180.614 315.704 181.13L317.817 184.526ZM317.591 184.564C317.514 184.547 317.445 184.499 317.4 184.428L320.785 182.296C320.263 181.469 319.435 180.883 318.484 180.665L317.591 184.564ZM317.398 184.425L351.156 238.223L354.545 236.097L320.787 182.299L317.398 184.425ZM354.851 237.16V229.343H350.851V237.16H354.851ZM354.537 228.267L331.896 192.786L328.524 194.938L351.165 230.419L354.537 228.267ZM331.896 192.787C331.941 192.857 331.956 192.943 331.938 193.026L328.035 192.151C327.82 193.108 327.996 194.111 328.523 194.937L331.896 192.787ZM331.938 193.026C331.919 193.108 331.869 193.178 331.801 193.221L329.663 189.841C328.836 190.364 328.249 191.194 328.035 192.151L331.938 193.026ZM331.801 193.221C331.734 193.264 331.653 193.278 331.576 193.26L332.444 189.356C331.49 189.144 330.49 189.318 329.663 189.841L331.801 193.221ZM331.576 193.26C331.5 193.243 331.43 193.196 331.386 193.126L334.759 190.976C334.232 190.15 333.399 189.568 332.444 189.356L331.576 193.26ZM331.386 193.126L353.717 228.124L357.089 225.972L334.758 190.975L331.386 193.126ZM355.403 229.048H476.991V225.048H355.403V229.048ZM317.772 184.811C317.746 184.858 317.708 184.896 317.663 184.923L315.61 181.49C315.059 181.819 314.603 182.287 314.288 182.846L317.772 184.811ZM317.663 184.923C317.618 184.95 317.567 184.964 317.516 184.966L317.429 180.966C316.788 180.98 316.161 181.161 315.61 181.49L317.663 184.923ZM317.972 181.029C317.361 180.872 316.719 180.872 316.107 181.029L317.107 184.902C317.063 184.914 317.016 184.914 316.972 184.902L317.972 181.029ZM315.365 181.398C314.759 181.878 314.318 182.536 314.106 183.281L317.953 184.376C317.935 184.44 317.898 184.495 317.848 184.534L315.365 181.398ZM414 169.5H147V173.5H414V169.5Z" fill="black"/>
</g>
<path d="M382.639 73.7903C371.346 70.7028 363.21 72.6093 363.21 72.6093C356.029 56.677 333.286 41.875 333.286 41.875C317.291 50.1702 324.636 83.9976 324.636 83.9976L315.495 87.4113C304.067 73.5879 288.066 58.4654 283.454 58.1392C272.799 57.3856 272.432 104.975 272.432 104.975C246.511 120.333 219.997 136.384 199.366 150.213C200.128 140.332 204.854 127.566 216.372 111.971C237.432 83.4296 242.084 45.6824 222.656 22.8552C195.391 -9.20072 170.413 1.70953 155.558 15.8648C140.534 30.1718 138.247 55.3779 161.769 38.6301C185.431 21.7585 197.034 30.498 208.134 51.3175C219.235 72.1369 184.952 104.182 168.956 130.186C159.984 144.774 155.564 159.188 155.756 171.24H264.274C264.054 171.488 263.692 170.998 263.5 171.24H303.576C317.37 184.462 349.705 209.1 356.926 194.9C360.568 187.752 362.16 179.912 360.647 172.472C363.848 178.563 373.865 195.771 382.571 190.952C390.114 186.779 396.122 175.093 394.659 162.833C400.271 157.676 404.591 152.187 407.295 146.428C429.332 106.926 392.66 76.5404 382.639 73.7903Z" fill="white"/>
<path d="M322.405 131.238C312.767 128.098 293.497 125.943 278.75 140.054L322.405 131.238Z" fill="white"/>
<path d="M321.581 122.786C312.277 114.734 287.541 112.534 270.399 125.469L321.581 122.786Z" fill="white"/>
<path d="M288.604 62.207C288.604 62.207 276.357 91.2316 289.829 101.011L288.604 62.207Z" fill="white"/>
<path d="M335.866 45.8613C335.866 45.8613 329.497 67.7943 335.375 82.6919L335.866 45.8613Z" fill="white"/>
<path d="M338.31 118.628C340.61 117.841 341.463 114.271 340.215 110.655C338.968 107.039 336.091 104.747 333.791 105.534C331.491 106.322 330.638 109.891 331.886 113.507C333.134 117.123 336.01 119.416 338.31 118.628Z" fill="white"/>
<path d="M371.367 108.137C373.667 107.35 374.52 103.78 373.272 100.164C372.024 96.5488 369.148 94.2561 366.848 95.0436C364.548 95.8311 363.695 99.4007 364.942 103.016C366.19 106.632 369.066 108.925 371.367 108.137Z" fill="white"/>
<path d="M368.397 114.926L364.332 121.599C364.034 122.063 363.565 122.393 363.026 122.518C362.487 122.643 361.921 122.553 361.447 122.268L355.151 118.527C354.816 118.338 354.545 118.053 354.373 117.708C354.202 117.364 354.138 116.976 354.191 116.596C354.243 116.215 354.409 115.859 354.667 115.573C354.925 115.287 355.263 115.085 355.637 114.993L365.998 112.062C367.787 111.55 369.312 113.39 368.397 114.926Z" fill="white"/>
<path d="M357.546 128.61C364.033 136.808 364.527 128.379 363.5 123C365.589 127.676 370.413 132.673 371.266 125.156" fill="white"/>
<path d="M348.5 198C347.846 196.212 338.558 176.844 328.434 169.201L348.5 198Z" fill="white"/>
<path d="M342.966 163.186C343.452 163.349 355.526 180.174 356.001 193.502L342.966 163.186Z" fill="white"/>
<path d="M367.824 160.738C367.824 160.738 378.756 179.876 378.999 189.999L367.824 160.738Z" fill="white"/>
<path d="M381.538 156.119C381.538 156.119 390.271 178.108 385.5 187.5L381.538 156.119Z" fill="white"/>
<path d="M348.34 152.622C351.316 147.859 377.469 132.292 389.054 148.489C391.16 151.43 393.458 157.161 394.396 160.265" fill="white"/>
<path d="M382.639 73.7903L382.903 72.826L382.902 72.8257L382.639 73.7903ZM363.21 72.6093L362.299 73.0203C362.495 73.4562 362.973 73.6921 363.439 73.583L363.21 72.6093ZM333.286 41.875L333.832 41.0369C333.53 40.8404 333.145 40.8215 332.826 40.9873L333.286 41.875ZM324.636 83.9976L324.986 84.9344C325.452 84.7606 325.719 84.2711 325.613 83.7854L324.636 83.9976ZM315.495 87.4113L314.724 88.0484C314.996 88.3769 315.446 88.4972 315.845 88.3481L315.495 87.4113ZM272.432 104.975L272.942 105.835C273.244 105.656 273.43 105.333 273.432 104.982L272.432 104.975ZM199.366 150.213L198.369 150.136C198.34 150.518 198.531 150.883 198.862 151.076C199.193 151.269 199.605 151.257 199.923 151.043L199.366 150.213ZM155.756 171.24L154.756 171.256C154.764 171.802 155.209 172.24 155.756 172.24V171.24ZM264.274 171.24L265.021 171.905C265.283 171.611 265.347 171.19 265.186 170.831C265.025 170.472 264.668 170.24 264.274 170.24V171.24ZM263.5 171.24L262.717 170.619C262.478 170.919 262.433 171.33 262.6 171.675C262.766 172.021 263.116 172.24 263.5 172.24V171.24ZM303.576 171.24L304.268 170.518C304.082 170.34 303.834 170.24 303.576 170.24V171.24ZM356.926 194.9L356.035 194.446V194.447L356.926 194.9ZM360.647 172.472L361.532 172.007C361.301 171.566 360.78 171.363 360.311 171.53C359.843 171.697 359.568 172.183 359.667 172.671L360.647 172.472ZM394.659 162.833L393.983 162.096C393.746 162.314 393.628 162.632 393.666 162.951L394.659 162.833ZM407.295 146.428L406.422 145.941C406.411 145.961 406.4 145.982 406.39 146.003L407.295 146.428ZM393.067 96.7833C392.763 97.2448 392.891 97.8649 393.353 98.1683C393.814 98.4716 394.434 98.3435 394.738 97.882L393.067 96.7833ZM439.304 74.9108C439.854 74.8602 440.258 74.3735 440.208 73.8235C440.157 73.2735 439.671 72.8686 439.121 72.9191L439.304 74.9108ZM398.643 113.466C398.395 113.96 398.595 114.561 399.088 114.809C399.582 115.057 400.183 114.857 400.431 114.364L398.643 113.466ZM443.585 100.484C444.116 100.638 444.671 100.333 444.825 99.8027C444.979 99.2723 444.674 98.7175 444.143 98.5634L443.585 100.484ZM322.096 132.189C322.621 132.361 323.185 132.073 323.356 131.548C323.527 131.023 323.24 130.459 322.715 130.288L322.096 132.189ZM278.058 139.333C277.659 139.715 277.645 140.348 278.027 140.747C278.409 141.146 279.042 141.16 279.441 140.778L278.058 139.333ZM320.927 123.542C321.345 123.903 321.976 123.857 322.338 123.44C322.699 123.022 322.653 122.391 322.236 122.029L320.927 123.542ZM269.797 124.671C269.356 125.004 269.269 125.631 269.601 126.072C269.934 126.513 270.561 126.6 271.002 126.268L269.797 124.671ZM289.525 62.5963C289.74 62.0875 289.501 61.5009 288.993 61.2862C288.484 61.0715 287.897 61.31 287.683 61.8188L289.525 62.5963ZM289.242 101.821C289.689 102.146 290.314 102.046 290.638 101.6C290.963 101.153 290.864 100.527 290.417 100.203L289.242 101.821ZM336.826 46.1401C336.98 45.6097 336.675 45.0549 336.145 44.9009C335.614 44.7469 335.06 45.052 334.906 45.5824L336.826 46.1401ZM334.444 83.0588C334.647 83.5725 335.228 83.8247 335.742 83.622C336.255 83.4193 336.508 82.8385 336.305 82.3248L334.444 83.0588ZM368.397 114.926L369.251 115.446L369.256 115.437L368.397 114.926ZM364.332 121.599L365.173 122.14L365.18 122.129L365.186 122.119L364.332 121.599ZM361.447 122.268L361.963 121.412L361.958 121.409L361.447 122.268ZM355.151 118.527L355.662 117.667L355.652 117.661L355.642 117.655L355.151 118.527ZM355.637 114.993L355.876 115.964L355.893 115.96L355.909 115.955L355.637 114.993ZM365.998 112.062L366.27 113.024L366.273 113.023L365.998 112.062ZM358.33 127.99C357.987 127.557 357.358 127.483 356.925 127.826C356.492 128.169 356.419 128.798 356.761 129.231L358.33 127.99ZM363.5 123L364.413 122.592C364.206 122.129 363.684 121.894 363.2 122.046C362.716 122.198 362.422 122.689 362.517 123.188L363.5 123ZM372.259 125.268C372.322 124.719 371.927 124.224 371.378 124.162C370.83 124.1 370.334 124.494 370.272 125.043L372.259 125.268ZM347.561 198.345C347.751 198.864 348.326 199.13 348.844 198.94C349.363 198.75 349.629 198.176 349.439 197.657L347.561 198.345ZM329.037 168.404C328.596 168.072 327.969 168.159 327.636 168.6C327.303 169.041 327.391 169.668 327.832 170.001L329.037 168.404ZM343.285 162.237C342.761 162.061 342.194 162.343 342.018 162.866C341.843 163.39 342.124 163.957 342.648 164.133L343.285 162.237ZM355.001 193.537C355.021 194.089 355.484 194.52 356.036 194.501C356.588 194.481 357.02 194.018 357 193.466L355.001 193.537ZM261.224 169.371C260.876 169.799 260.941 170.429 261.37 170.777C261.799 171.125 262.429 171.06 262.777 170.631L261.224 169.371ZM356.023 194.454C355.772 194.946 355.968 195.549 356.46 195.799C356.952 196.05 357.554 195.854 357.805 195.362L356.023 194.454ZM368.693 160.242C368.419 159.762 367.808 159.595 367.328 159.869C366.849 160.143 366.682 160.754 366.956 161.234L368.693 160.242ZM377.999 190.023C378.013 190.575 378.471 191.012 379.023 190.999C379.575 190.986 380.012 190.527 379.999 189.975L377.999 190.023ZM382.467 155.751C382.264 155.237 381.682 154.986 381.169 155.19C380.656 155.394 380.405 155.976 380.609 156.489L382.467 155.751ZM384.608 187.048C384.358 187.54 384.555 188.142 385.047 188.392C385.539 188.642 386.141 188.446 386.392 187.953L384.608 187.048ZM347.492 152.092C347.2 152.561 347.342 153.178 347.811 153.47C348.279 153.763 348.896 153.62 349.188 153.152L347.492 152.092ZM393.438 160.554C393.598 161.083 394.156 161.382 394.685 161.222C395.213 161.063 395.513 160.505 395.353 159.976L393.438 160.554ZM382.902 72.8257C377.147 71.2521 372.19 70.9495 368.664 71.0424C366.9 71.0888 365.493 71.2341 364.52 71.3692C364.034 71.4368 363.656 71.5018 363.397 71.5508C363.267 71.5752 363.167 71.5957 363.097 71.6104C363.062 71.6178 363.035 71.6237 363.016 71.628C363.007 71.6301 362.999 71.6319 362.993 71.6331C362.99 71.6338 362.988 71.6343 362.986 71.6348C362.985 71.635 362.985 71.6352 362.984 71.6353C362.984 71.6354 362.983 71.6355 362.983 71.6355C362.983 71.6356 362.982 71.6357 363.21 72.6093C363.439 73.583 363.438 73.583 363.438 73.5831C363.439 73.5831 363.438 73.5832 363.439 73.583C363.442 73.5825 363.446 73.5813 363.452 73.5799C363.464 73.5772 363.484 73.5728 363.512 73.567C363.567 73.5553 363.653 73.5378 363.767 73.5161C363.997 73.4729 364.343 73.4131 364.796 73.3502C365.702 73.2243 367.034 73.0859 368.716 73.0417C372.081 72.9531 376.838 73.2411 382.375 74.7549L382.902 72.8257ZM364.122 72.1984C360.437 64.0239 352.815 56.2222 346.209 50.5111C342.892 47.6429 339.802 45.2775 337.541 43.6288C336.41 42.8042 335.486 42.1581 334.843 41.7173C334.521 41.4969 334.27 41.3278 334.098 41.2133C334.012 41.156 333.946 41.1124 333.902 41.0829C333.879 41.0681 333.862 41.0569 333.85 41.0492C333.844 41.0454 333.84 41.0424 333.837 41.0404C333.835 41.0393 333.834 41.0385 333.833 41.038C333.833 41.0377 333.832 41.037 333.832 41.0369C333.832 41.0367 333.832 41.0369 333.286 41.875C332.741 42.7131 332.74 42.7131 332.741 42.7131C332.741 42.713 332.741 42.7132 332.741 42.7131C332.742 42.7135 332.742 42.7143 332.744 42.7151C332.746 42.7166 332.75 42.7191 332.755 42.7224C332.765 42.7291 332.781 42.7393 332.801 42.753C332.843 42.7805 332.906 42.8219 332.988 42.877C333.153 42.9871 333.398 43.1515 333.712 43.367C334.341 43.7979 335.249 44.4328 336.363 45.2448C338.59 46.8693 341.635 49.2002 344.901 52.024C351.462 57.6969 358.802 65.2624 362.299 73.0203L364.122 72.1984ZM332.826 40.9873C328.532 43.2138 325.86 47.1303 324.245 51.6177C322.633 56.0989 322.045 61.2263 321.963 66.0298C321.88 70.8419 322.304 75.3819 322.747 78.7142C322.969 80.382 323.196 81.7511 323.368 82.7053C323.454 83.1824 323.526 83.556 323.577 83.8116C323.602 83.9394 323.623 84.0377 323.637 84.1046C323.644 84.1381 323.649 84.1638 323.653 84.1814C323.655 84.1902 323.656 84.197 323.657 84.2017C323.658 84.2041 323.658 84.206 323.658 84.2073C323.659 84.208 323.659 84.2086 323.659 84.209C323.659 84.2094 323.659 84.2098 324.636 83.9976C325.613 83.7854 325.613 83.7854 325.613 83.7854C325.613 83.7858 325.613 83.7852 325.613 83.7854C325.613 83.7847 325.613 83.7829 325.613 83.7812C325.612 83.7777 325.611 83.7722 325.609 83.7648C325.606 83.7498 325.601 83.7268 325.595 83.696C325.582 83.6345 325.563 83.5418 325.538 83.4198C325.489 83.1758 325.42 82.8146 325.336 82.3505C325.169 81.4223 324.947 80.0839 324.73 78.4507C324.295 75.1811 323.882 70.7459 323.963 66.0642C324.043 61.3739 324.618 56.4892 326.127 52.2947C327.634 48.1065 330.042 44.6839 333.746 42.7627L332.826 40.9873ZM324.286 83.0608L315.145 86.4745L315.845 88.3481L324.986 84.9344L324.286 83.0608ZM316.266 86.7741C310.524 79.8291 303.637 72.56 297.597 66.9793C294.579 64.1903 291.757 61.8079 289.384 60.0958C288.199 59.2403 287.108 58.5394 286.15 58.0377C285.215 57.5483 284.311 57.1973 283.524 57.1417L283.383 59.1367C283.749 59.1626 284.355 59.3555 285.222 59.8096C286.066 60.2513 287.072 60.8934 288.214 61.7175C290.496 63.3645 293.253 65.6879 296.24 68.4482C302.212 73.9662 309.038 81.1701 314.724 88.0484L316.266 86.7741ZM283.524 57.1417C281.762 57.0171 280.307 57.917 279.154 59.2931C278.013 60.6559 277.076 62.5826 276.293 64.8074C274.724 69.2686 273.669 75.2344 272.955 81.1545C272.239 87.0898 271.859 93.0418 271.657 97.5055C271.556 99.7385 271.5 101.602 271.469 102.907C271.454 103.56 271.444 104.074 271.439 104.425C271.436 104.601 271.435 104.735 271.434 104.827C271.433 104.872 271.433 104.907 271.433 104.931C271.433 104.942 271.432 104.951 271.432 104.957C271.432 104.96 271.432 104.963 271.432 104.964C271.432 104.965 271.432 104.966 271.432 104.966C271.432 104.967 271.432 104.967 272.432 104.975C273.432 104.982 273.432 104.982 273.432 104.982C273.432 104.98 273.432 104.977 273.432 104.974C273.432 104.969 273.432 104.961 273.433 104.95C273.433 104.927 273.433 104.894 273.434 104.849C273.435 104.761 273.436 104.628 273.439 104.455C273.444 104.11 273.453 103.602 273.469 102.955C273.499 101.661 273.555 99.8123 273.655 97.5956C273.855 93.16 274.233 87.2618 274.94 81.394C275.65 75.5111 276.685 69.721 278.18 65.4712C278.93 63.3404 279.77 61.6729 280.688 60.5774C281.594 59.4952 282.481 59.0729 283.383 59.1367L283.524 57.1417ZM271.923 104.114C246 119.473 219.465 135.536 198.809 149.382L199.923 151.043C220.529 137.231 247.022 121.193 272.942 105.835L271.923 104.114ZM200.363 150.29C201.106 140.654 205.729 128.064 217.177 112.565L215.568 111.377C203.979 127.067 199.15 140.009 198.369 150.136L200.363 150.29ZM217.177 112.565C238.382 83.828 243.27 45.5321 223.418 22.2071L221.895 23.5031C240.899 45.8324 236.484 83.0322 215.568 111.377L217.177 112.565ZM223.418 22.2071C209.646 6.0156 196.311 0.525146 184.411 1.03175C172.563 1.53614 162.385 7.97773 154.868 15.1408L156.248 16.5889C163.586 9.59684 173.325 3.5055 184.496 3.02994C195.615 2.55658 208.401 7.63876 221.895 23.5031L223.418 22.2071ZM154.868 15.1408C151.019 18.8059 147.989 23.1648 145.979 27.3827C143.98 31.5792 142.947 35.7321 143.212 38.9745C143.345 40.6032 143.813 42.0782 144.734 43.1952C145.674 44.336 147.011 45.0119 148.682 45.1471C151.917 45.4091 156.438 43.6532 162.349 39.4447L161.189 37.8155C155.339 41.9808 151.325 43.3546 148.843 43.1537C147.654 43.0574 146.838 42.6038 146.277 41.9233C145.697 41.219 145.317 40.181 145.205 38.8115C144.98 36.0574 145.865 32.273 147.785 28.2429C149.695 24.2342 152.584 20.0773 156.248 16.5889L154.868 15.1408ZM162.349 39.4447C174.088 31.0749 182.54 29.273 189.316 31.7776C196.18 34.315 201.707 41.3876 207.252 51.7879L209.017 50.847C203.462 40.4279 197.637 32.721 190.009 29.9017C182.293 27.0495 173.112 29.3141 161.188 37.8158L162.349 39.4447ZM207.252 51.7879C209.861 56.6817 209.845 62.2939 207.987 68.4795C206.127 74.677 202.446 81.3503 197.872 88.2552C193.303 95.1547 187.887 102.219 182.59 109.216C177.303 116.198 172.132 123.114 168.104 129.662L169.808 130.71C173.778 124.256 178.89 117.415 184.184 110.424C189.466 103.448 194.927 96.3242 199.54 89.3596C204.149 82.4003 207.958 75.5335 209.903 69.0546C211.852 62.5636 211.958 56.363 209.017 50.847L207.252 51.7879ZM168.104 129.662C159.064 144.362 154.56 158.962 154.756 171.256L156.755 171.224C156.567 159.414 160.905 145.187 169.808 130.71L168.104 129.662ZM155.756 172.24H264.274V170.24H155.756V172.24ZM263.527 170.576C263.604 170.489 263.716 170.405 263.86 170.356C263.998 170.308 264.118 170.308 264.194 170.316C264.264 170.324 264.309 170.34 264.313 170.341C264.315 170.342 264.311 170.341 264.272 170.324C264.245 170.312 264.18 170.284 264.113 170.259C264.044 170.234 263.931 170.198 263.794 170.181C263.652 170.163 263.456 170.163 263.243 170.239C263.021 170.319 262.845 170.457 262.717 170.619L264.283 171.862C264.203 171.963 264.08 172.064 263.916 172.123C263.76 172.178 263.625 172.175 263.548 172.165C263.509 172.161 263.479 172.154 263.461 172.149C263.443 172.144 263.432 172.14 263.43 172.139C263.427 172.138 263.429 172.139 263.439 172.143C263.449 172.147 263.46 172.152 263.48 172.161C263.513 172.175 263.579 172.204 263.653 172.229C263.727 172.255 263.842 172.29 263.98 172.305C264.123 172.32 264.309 172.316 264.51 172.247C264.717 172.176 264.889 172.054 265.021 171.905L263.527 170.576ZM302.884 171.962C309.819 178.609 321.418 188.133 332.225 194.224C337.615 197.262 342.903 199.502 347.363 200.046C349.602 200.319 351.697 200.172 353.507 199.427C355.34 198.673 356.811 197.332 357.818 195.353L356.035 194.447C355.236 196.018 354.117 197.013 352.746 197.578C351.351 198.152 349.628 198.307 347.605 198.06C343.54 197.565 338.528 195.481 333.207 192.482C322.592 186.499 311.127 177.093 304.268 170.518L302.884 171.962ZM357.817 195.354C361.536 188.055 363.195 179.985 361.627 172.273L359.667 172.671C361.125 179.84 359.6 187.448 356.035 194.446L357.817 195.354ZM359.762 172.937C361.372 176 364.722 181.914 368.799 186.47C370.834 188.744 373.109 190.747 375.5 191.861C377.927 192.991 380.532 193.223 383.055 191.827L382.087 190.077C380.257 191.09 378.345 190.979 376.345 190.048C374.309 189.1 372.247 187.324 370.29 185.136C366.382 180.77 363.124 175.034 361.532 172.007L359.762 172.937ZM383.055 191.827C391.017 187.422 397.153 175.301 395.652 162.714L393.666 162.951C395.09 174.884 389.211 186.136 382.087 190.077L383.055 191.827ZM395.336 163.569C401.016 158.349 405.427 152.759 408.2 146.853L406.39 146.003C403.755 151.615 399.526 157.002 393.983 162.096L395.336 163.569ZM408.168 146.915C419.393 126.795 415.66 108.939 407.848 95.8157C403.952 89.2699 399.041 83.898 394.468 79.9853C389.924 76.0977 385.619 73.5713 382.903 72.826L382.374 74.7547C384.669 75.3844 388.706 77.6875 393.168 81.505C397.601 85.2975 402.36 90.5066 406.13 96.8387C413.65 109.471 417.234 126.559 406.422 145.941L408.168 146.915ZM394.738 97.882C401.294 87.9085 412.371 82.1496 421.932 78.8852C426.698 77.258 431.05 76.263 434.21 75.6752C435.789 75.3815 437.068 75.1898 437.95 75.0718C438.391 75.0128 438.733 74.9723 438.962 74.9466C439.077 74.9338 439.164 74.9247 439.221 74.9189C439.25 74.9159 439.271 74.9138 439.285 74.9125C439.292 74.9118 439.297 74.9114 439.3 74.9111C439.302 74.9109 439.304 74.9108 439.304 74.9108C439.304 74.9109 439.305 74.9108 439.304 74.9108C439.304 74.9109 439.304 74.9108 439.212 73.915C439.121 72.9191 439.12 72.9192 439.12 72.9192C439.119 72.9193 439.119 72.9193 439.118 72.9194C439.117 72.9195 439.115 72.9197 439.113 72.9199C439.108 72.9203 439.101 72.921 439.093 72.9218C439.076 72.9234 439.051 72.9258 439.019 72.9291C438.955 72.9356 438.862 72.9454 438.74 72.959C438.497 72.9862 438.141 73.0285 437.685 73.0895C436.773 73.2115 435.46 73.4083 433.844 73.709C430.613 74.3099 426.164 75.3269 421.286 76.9925C411.559 80.3135 399.982 86.2635 393.067 96.7833L394.738 97.882ZM400.431 114.364C401.108 113.013 402.996 111.119 405.9 109.089C408.761 107.089 412.483 105.042 416.659 103.346C425.042 99.9395 435.078 98.0121 443.585 100.484L444.143 98.5634C435.018 95.9119 424.482 98.0084 415.906 101.493C411.603 103.241 407.747 105.357 404.754 107.45C401.803 109.514 399.557 111.645 398.643 113.466L400.431 114.364ZM322.715 130.288C312.919 127.097 293.192 124.852 278.058 139.333L279.441 140.778C293.803 127.036 312.615 129.101 322.096 132.189L322.715 130.288ZM322.236 122.029C317.332 117.786 308.547 115.196 298.923 115.257C289.263 115.319 278.572 118.049 269.797 124.671L271.002 126.268C279.368 119.954 289.617 117.317 298.936 117.257C308.291 117.198 316.526 119.733 320.927 123.542L322.236 122.029ZM288.604 62.2076C287.683 61.8188 287.682 61.8192 287.682 61.8196C287.682 61.8199 287.682 61.8205 287.682 61.8211C287.681 61.8223 287.68 61.8239 287.68 61.826C287.678 61.8301 287.675 61.836 287.672 61.8437C287.666 61.8589 287.657 61.8811 287.645 61.91C287.621 61.9679 287.586 62.0527 287.542 62.163C287.453 62.3835 287.326 62.7061 287.169 63.1189C286.856 63.9443 286.425 65.1313 285.95 66.5853C285.003 69.4901 283.877 73.4761 283.178 77.782C282.479 82.0792 282.196 86.7497 282.971 91.0022C283.747 95.265 285.604 99.1803 289.242 101.821L290.417 100.203C287.319 97.9539 285.654 94.5737 284.938 90.6437C284.22 86.7035 284.472 82.2842 285.152 78.1028C285.83 73.93 286.924 70.0486 287.852 67.2056C288.315 65.7858 288.735 64.6288 289.039 63.8287C289.191 63.4288 289.313 63.1182 289.398 62.9089C289.44 62.8042 289.472 62.7248 289.494 62.6722C289.505 62.6459 289.513 62.6263 289.518 62.6136C289.521 62.6073 289.523 62.6026 289.524 62.5997C289.524 62.5983 289.525 62.5969 289.525 62.5963C289.525 62.5964 289.525 62.596 289.525 62.5963C289.525 62.5963 289.525 62.5963 288.604 62.2076ZM335.866 45.8612C334.906 45.5824 334.905 45.5827 334.905 45.583C334.905 45.5833 334.905 45.5837 334.905 45.5842C334.905 45.5851 334.904 45.5864 334.904 45.588C334.903 45.5912 334.902 45.5957 334.9 45.6016C334.897 45.6133 334.892 45.6302 334.886 45.6523C334.873 45.6965 334.855 45.7613 334.832 45.8458C334.785 46.0148 334.718 46.2627 334.636 46.5823C334.47 47.2215 334.242 48.1481 333.986 49.3055C333.475 51.6191 332.856 54.8603 332.423 58.574C331.56 65.9663 331.413 75.3755 334.444 83.0588L336.305 82.3248C333.459 75.1104 333.557 66.1044 334.409 58.8059C334.833 55.174 335.439 52.0009 335.939 49.7366C336.189 48.6049 336.412 47.7017 336.572 47.0832C336.652 46.774 336.716 46.5361 336.76 46.3765C336.782 46.2967 336.799 46.2366 336.81 46.1969C336.816 46.177 336.82 46.1623 336.823 46.1528C336.824 46.148 336.825 46.1446 336.825 46.1425C336.826 46.1414 336.826 46.1405 336.826 46.1401C336.826 46.1402 336.826 46.1399 336.826 46.1401C336.826 46.1402 336.826 46.1401 335.866 45.8612ZM339.27 110.981C339.842 112.638 339.915 114.239 339.621 115.47C339.323 116.714 338.699 117.438 337.986 117.682L338.634 119.574C340.221 119.031 341.174 117.576 341.566 115.935C341.961 114.28 341.837 112.289 341.161 110.329L339.27 110.981ZM337.986 117.682C337.272 117.927 336.331 117.737 335.327 116.937C334.334 116.145 333.403 114.837 332.831 113.181L330.941 113.833C331.617 115.793 332.748 117.439 334.08 118.501C335.401 119.554 337.048 120.117 338.634 119.574L337.986 117.682ZM332.831 113.181C332.26 111.525 332.187 109.923 332.481 108.692C332.778 107.448 333.402 106.724 334.115 106.48L333.467 104.588C331.881 105.131 330.928 106.586 330.535 108.228C330.14 109.882 330.264 111.874 330.941 113.833L332.831 113.181ZM334.115 106.48C334.83 106.236 335.77 106.425 336.775 107.225C337.768 108.017 338.699 109.325 339.27 110.981L341.161 110.329C340.484 108.369 339.353 106.723 338.021 105.661C336.7 104.609 335.053 104.045 333.467 104.588L334.115 106.48ZM372.327 100.491C372.898 102.148 372.971 103.749 372.677 104.98C372.38 106.224 371.756 106.948 371.043 107.192L371.691 109.084C373.277 108.541 374.23 107.086 374.622 105.445C375.018 103.79 374.894 101.799 374.217 99.839L372.327 100.491ZM371.043 107.192C370.328 107.437 369.388 107.247 368.383 106.447C367.39 105.655 366.459 104.347 365.888 102.691L363.997 103.343C364.673 105.303 365.804 106.949 367.137 108.011C368.457 109.064 370.105 109.627 371.691 109.084L371.043 107.192ZM365.888 102.691C365.316 101.035 365.243 99.4334 365.537 98.2025C365.835 96.9581 366.458 96.2345 367.172 95.9903L366.524 94.0981C364.937 94.6414 363.984 96.0964 363.592 97.7376C363.197 99.3924 363.321 101.384 363.997 103.343L365.888 102.691ZM367.172 95.9903C367.886 95.7457 368.827 95.9349 369.831 96.7354C370.824 97.5269 371.755 98.8354 372.327 100.491L374.217 99.839C373.541 97.8792 372.41 96.2334 371.078 95.1715C369.757 94.1186 368.11 93.5552 366.524 94.0981L367.172 95.9903ZM367.543 114.405L363.478 121.079L365.186 122.119L369.251 115.446L367.543 114.405ZM363.491 121.058C363.334 121.303 363.086 121.477 362.8 121.544L363.252 123.492C364.044 123.308 364.734 122.823 365.173 122.14L363.491 121.058ZM362.8 121.544C362.514 121.61 362.213 121.563 361.963 121.412L360.931 123.125C361.628 123.544 362.46 123.676 363.252 123.492L362.8 121.544ZM361.958 121.409L355.662 117.667L354.641 119.386L360.936 123.128L361.958 121.409ZM355.642 117.655C355.48 117.564 355.35 117.427 355.269 117.263L353.478 118.154C353.739 118.678 354.151 119.111 354.661 119.398L355.642 117.655ZM355.269 117.263C355.187 117.098 355.156 116.913 355.181 116.732L353.2 116.46C353.12 117.039 353.217 117.63 353.478 118.154L355.269 117.263ZM355.181 116.732C355.206 116.55 355.285 116.38 355.409 116.243L353.924 114.903C353.532 115.337 353.28 115.88 353.2 116.46L355.181 116.732ZM355.409 116.243C355.533 116.106 355.695 116.009 355.876 115.964L355.398 114.022C354.83 114.162 354.317 114.468 353.924 114.903L355.409 116.243ZM355.909 115.955L366.27 113.024L365.725 111.1L355.365 114.031L355.909 115.955ZM366.273 113.023C366.76 112.884 367.188 113.06 367.444 113.366C367.696 113.669 367.753 114.054 367.538 114.414L369.256 115.437C369.957 114.262 369.708 112.959 368.98 112.085C368.254 111.215 367.025 110.728 365.723 111.1L366.273 113.023ZM356.761 129.231C358.393 131.292 359.807 132.533 361.074 132.908C361.762 133.111 362.447 133.069 363.049 132.723C363.621 132.395 363.998 131.861 364.249 131.314C364.744 130.237 364.912 128.759 364.915 127.301C364.919 125.812 364.749 124.213 364.482 122.813L362.517 123.188C362.764 124.477 362.918 125.949 362.915 127.297C362.912 128.675 362.743 129.801 362.432 130.479C362.28 130.809 362.137 130.941 362.053 130.989C362.001 131.019 361.895 131.065 361.641 130.99C361.023 130.807 359.942 130.027 358.33 127.99L356.761 129.231ZM362.587 123.408C363.138 124.642 363.869 125.896 364.676 126.968C365.471 128.024 366.394 128.975 367.352 129.52C367.837 129.795 368.384 129.997 368.963 130.01C369.567 130.023 370.144 129.827 370.635 129.409C371.548 128.63 372.041 127.191 372.259 125.268L370.272 125.043C370.064 126.878 369.634 127.634 369.338 127.887C369.224 127.984 369.125 128.013 369.007 128.01C368.863 128.007 368.643 127.952 368.34 127.781C367.725 127.431 366.997 126.726 366.273 125.765C365.562 124.82 364.906 123.696 364.413 122.592L362.587 123.408ZM349.439 197.657C349.08 196.675 346.556 191.322 342.872 185.277C339.193 179.24 334.259 172.347 329.037 168.404L327.832 170.001C332.733 173.701 337.504 180.313 341.164 186.318C344.819 192.314 347.266 197.54 347.561 198.345L349.439 197.657ZM342.648 164.133C342.546 164.099 342.474 164.055 342.444 164.036C342.408 164.013 342.383 163.993 342.37 163.983C342.345 163.963 342.333 163.951 342.339 163.956C342.348 163.966 342.376 163.995 342.426 164.054C342.523 164.168 342.664 164.346 342.847 164.589C343.211 165.072 343.713 165.779 344.31 166.672C345.501 168.456 347.053 170.962 348.605 173.876C351.727 179.737 354.772 187.109 355.001 193.537L357 193.466C356.754 186.565 353.526 178.86 350.37 172.936C348.784 169.957 347.197 167.394 345.973 165.561C345.361 164.645 344.837 163.906 344.445 163.386C344.251 163.128 344.083 162.915 343.949 162.758C343.884 162.681 343.816 162.605 343.752 162.54C343.72 162.509 343.676 162.467 343.625 162.426C343.6 162.406 343.472 162.3 343.285 162.237L342.648 164.133ZM262.777 170.631C264.985 167.91 269.366 164.57 275.163 161.248C280.934 157.94 288.021 154.7 295.558 152.147C303.097 149.594 311.059 147.737 318.584 147.18C326.117 146.623 333.146 147.372 338.869 149.963L339.693 148.141C333.559 145.363 326.162 144.614 318.436 145.186C310.702 145.758 302.57 147.66 294.916 150.253C287.261 152.846 280.055 156.139 274.169 159.512C268.308 162.871 263.668 166.358 261.224 169.371L262.777 170.631ZM338.869 149.963C350.521 155.238 356.709 162.542 359.062 170.349C361.423 178.182 359.978 186.693 356.023 194.454L357.805 195.362C361.929 187.27 363.524 178.221 360.977 169.772C358.423 161.299 351.755 153.601 339.693 148.141L338.869 149.963ZM367.824 160.738C366.956 161.234 366.956 161.234 366.956 161.234C366.956 161.235 366.957 161.235 366.958 161.236C366.959 161.238 366.961 161.242 366.963 161.246C366.968 161.255 366.976 161.268 366.986 161.286C367.006 161.321 367.036 161.375 367.075 161.445C367.154 161.585 367.27 161.793 367.419 162.063C367.715 162.601 368.14 163.382 368.651 164.352C369.674 166.293 371.039 168.984 372.411 171.988C373.784 174.993 375.157 178.299 376.201 181.469C377.249 184.655 377.942 187.639 377.999 190.023L379.999 189.975C379.935 187.298 379.17 184.094 378.1 180.844C377.026 177.579 375.621 174.201 374.23 171.157C372.839 168.11 371.456 165.384 370.421 163.42C369.903 162.438 369.472 161.645 369.17 161.097C369.019 160.823 368.9 160.61 368.819 160.465C368.778 160.393 368.747 160.337 368.726 160.3C368.715 160.281 368.707 160.267 368.701 160.257C368.699 160.252 368.696 160.248 368.695 160.246C368.694 160.245 368.694 160.243 368.693 160.242C368.693 160.242 368.693 160.242 367.824 160.738ZM381.538 156.12C380.609 156.489 380.609 156.489 380.609 156.489C380.609 156.49 380.609 156.49 380.61 156.492C380.611 156.494 380.612 156.497 380.614 156.502C380.618 156.512 380.624 156.527 380.632 156.547C380.647 156.587 380.671 156.648 380.702 156.728C380.763 156.887 380.853 157.124 380.966 157.43C381.193 158.042 381.512 158.928 381.88 160.022C382.618 162.21 383.551 165.222 384.335 168.52C385.121 171.822 385.751 175.383 385.895 178.679C386.04 181.996 385.686 184.927 384.608 187.048L386.392 187.953C387.7 185.378 388.043 182.038 387.893 178.591C387.741 175.122 387.082 171.426 386.281 168.057C385.478 164.683 384.526 161.611 383.776 159.383C383.4 158.268 383.074 157.363 382.842 156.736C382.725 156.422 382.633 156.177 382.568 156.01C382.536 155.927 382.511 155.863 382.494 155.819C382.486 155.797 382.479 155.78 382.475 155.769C382.472 155.763 382.471 155.759 382.469 155.756C382.469 155.754 382.468 155.753 382.468 155.752C382.468 155.752 382.467 155.751 381.538 156.12ZM349.188 153.152C349.475 152.694 350.11 152.012 351.108 151.182C352.088 150.367 353.359 149.459 354.852 148.541C357.839 146.704 361.669 144.857 365.751 143.655C373.967 141.234 382.826 141.5 388.241 149.071L389.868 147.907C383.697 139.281 373.687 139.232 365.186 141.736C360.91 142.996 356.919 144.922 353.804 146.837C352.246 147.796 350.895 148.758 349.83 149.644C348.783 150.514 347.95 151.36 347.492 152.092L349.188 153.152ZM388.241 149.071C390.252 151.88 392.512 157.487 393.438 160.554L395.353 159.976C394.404 156.834 392.068 150.98 389.867 147.907L388.241 149.071ZM263.5 172.24H303.576V170.24H263.5V172.24Z" fill="#111111"/>
</g>
<defs>
<clipPath id="clip0_1842_2626">
<rect width="538" height="411" fill="white"/>
</clipPath>
</defs>
</svg>