<svg width="480" height="300" viewBox="0 0 480 300" fill="none" xmlns="http://www.w3.org/2000/svg">
<rect width="480" height="300" rx="5" fill="#141414"/>
<g opacity="0.2">
<path d="M208 49.8889L213 57.1111H203L208 49.8889Z" fill="#22BA4F"/>
<rect x="153" y="49.5" width="45" height="11" rx="5.5" fill="#22BA4F"/>
<rect x="40" y="43" width="103" height="18" rx="9" fill="#FDFCFD"/>
<g filter="url(#filter0_b_1749_8172)">
<rect x="275" y="32" width="164" height="34" rx="4" stroke="#37343D" stroke-width="2"/>
<rect x="279" y="36" width="34" height="26" rx="5" fill="#37343D"/>
<rect x="289" y="47" width="14" height="6" rx="3" fill="#C9C9CA"/>
<rect x="328" y="47" width="14" height="6" rx="3" fill="#969697"/>
<rect x="367" y="47" width="20" height="6" rx="3" fill="#969697"/>
<rect x="412" y="47" width="13" height="6" rx="3" fill="#969697"/>
</g>
<rect x="40" y="74" width="209" height="9" rx="4.5" fill="#AAAAAA"/>
</g>
<g opacity="0.2">
<rect x="39" y="106" width="139" height="165" fill="#BC3D70" stroke="#141414" stroke-width="2"/>
<rect x="176" y="106" width="87" height="90" fill="#BC3D70" stroke="#141414" stroke-width="2"/>
<rect x="176" y="194" width="87" height="51" fill="#BC3D70" stroke="#141414" stroke-width="2"/>
<rect x="176" y="243" width="87" height="28" fill="#BC3D70" stroke="#141414" stroke-width="2"/>
<rect x="261" y="106" width="65" height="71" fill="#DF5866" stroke="#141414" stroke-width="2"/>
<rect x="261" y="175" width="65" height="48" fill="#DF5866" stroke="#141414" stroke-width="2"/>
<rect x="261" y="221" width="65" height="50" fill="#DF5866" stroke="#141414" stroke-width="2"/>
<rect x="318" y="106" width="42" height="99" fill="#DF5866" stroke="#141414" stroke-width="2"/>
<rect x="318" y="205" width="42" height="66" fill="#DF5866" stroke="#141414" stroke-width="2"/>
<rect x="355" y="106" width="86" height="165" fill="#F77C5C" stroke="#141414" stroke-width="2"/>
</g>
<defs>
<filter id="filter0_b_1749_8172" x="264" y="21" width="186" height="56" filterUnits="userSpaceOnUse" color-interpolation-filters="sRGB">
<feFlood flood-opacity="0" result="BackgroundImageFix"/>
<feGaussianBlur in="BackgroundImageFix" stdDeviation="5"/>
<feComposite in2="SourceAlpha" operator="in" result="effect1_backgroundBlur_1749_8172"/>
<feBlend mode="normal" in="SourceGraphic" in2="effect1_backgroundBlur_1749_8172" result="shape"/>
</filter>
</defs>
</svg>
