<svg width="1000" height="1000" viewBox="0 0 1000 1000" fill="none" xmlns="http://www.w3.org/2000/svg">
<g clip-path="url(#clip0_69_93)">
<path d="M1000 0H0V1000H1000V0Z" fill="#CE6533"/>
<path fill-rule="evenodd" clip-rule="evenodd" d="M294.924 376.152C292.911 370.703 294.253 364.583 298.36 360.47L354.281 304.549C358.388 300.442 364.514 299.1 369.957 301.107L489.194 344.91C492.125 345.988 494.07 348.777 494.07 351.899V378.006C494.07 379.982 493.288 381.873 491.891 383.27L462.865 412.29C460.815 414.346 457.754 415.017 455.027 414.008L422.996 402.198L387.801 389.212C384.827 388.11 381.921 391.01 383.023 393.99L407.819 461.216C408.822 463.943 408.157 467.004 406.101 469.054L380.295 494.847C377.389 497.753 377.389 502.47 380.295 505.376L406.236 531.317C408.293 533.373 408.964 536.434 407.954 539.155L383.158 606.375C382.056 609.355 384.956 612.255 387.937 611.153L455.162 586.351C457.89 585.347 460.95 586.018 463 588.069L491.884 616.953C493.282 618.35 494.064 620.241 494.064 622.217V648.33C494.064 651.446 492.125 654.235 489.2 655.313L370.105 699.251C364.656 701.265 358.529 699.917 354.422 695.81L298.495 639.883C294.388 635.776 293.046 629.655 295.06 624.2L338.844 505.505C340.07 502.18 340.07 498.523 338.844 495.198L294.924 376.152Z" fill="#F5F7F2"/>
<path fill-rule="evenodd" clip-rule="evenodd" d="M705.617 624.218C707.631 629.667 706.288 635.788 702.181 639.901L646.261 695.828C642.154 699.935 636.033 701.277 630.584 699.27L511.348 655.467C508.417 654.389 506.471 651.6 506.471 648.478V622.371C506.471 620.395 507.253 618.504 508.651 617.107L537.676 588.087C539.727 586.031 542.787 585.359 545.515 586.369L577.545 598.179L612.74 611.165C615.714 612.267 618.614 609.367 617.518 606.387L592.723 539.161C591.719 536.433 592.384 533.373 594.441 531.323L620.246 505.53C623.152 502.624 623.152 497.907 620.246 495.001L594.305 469.06C592.249 467.004 591.578 463.943 592.587 461.222L617.383 394.002C618.485 391.022 615.585 388.122 612.605 389.224L545.379 414.026C542.652 415.03 539.591 414.358 537.541 412.308L508.657 383.424C507.259 382.026 506.477 380.136 506.477 378.16V352.046C506.477 348.931 508.417 346.142 511.342 345.064L630.436 301.125C635.886 299.112 642.006 300.46 646.119 304.567L702.04 360.494C706.153 364.601 707.495 370.722 705.482 376.177L661.697 494.872C660.466 498.196 660.466 501.854 661.697 505.179L705.623 624.243L705.617 624.218Z" fill="#F5F7F2"/>
</g>
<defs>
<clipPath id="clip0_69_93">
<rect width="1000" height="1000" fill="white"/>
</clipPath>
</defs>
</svg>
