<svg width="20" height="20" viewBox="0 0 20 20" fill="none" xmlns="http://www.w3.org/2000/svg">
<path d="M20 0H0V20H20V0Z" fill="#CE6533"/>
<path fill-rule="evenodd" clip-rule="evenodd" d="M4.02684 6.20965C3.96827 6.05115 4.00732 5.87312 4.12678 5.75347L5.75341 4.12684C5.87288 4.00738 6.05109 3.96833 6.20942 4.02672L9.67779 5.30087C9.76304 5.33222 9.81964 5.41335 9.81964 5.50416V6.26356C9.81964 6.32106 9.79689 6.37604 9.75624 6.4167L8.91193 7.26082C8.85229 7.32064 8.76328 7.34017 8.68393 7.31079L7.75223 6.96727L6.72846 6.58954C6.64195 6.55748 6.55742 6.64183 6.58948 6.72852L7.31073 8.68399C7.33993 8.76334 7.32058 8.85235 7.26076 8.91199L6.51013 9.66227C6.4256 9.7468 6.4256 9.884 6.51013 9.96854L7.2647 10.7231C7.32452 10.7829 7.34405 10.8719 7.31467 10.9511L6.59342 12.9064C6.56136 12.9931 6.64572 13.0774 6.7324 13.0454L8.68787 12.3239C8.76722 12.2948 8.85623 12.3143 8.91588 12.3739L9.75606 13.2141C9.79671 13.2548 9.81946 13.3097 9.81946 13.3672V14.1268C9.81946 14.2174 9.76304 14.2986 9.67797 14.3299L6.21371 15.608C6.05521 15.6666 5.877 15.6274 5.75753 15.5079L4.13072 13.8811C4.01126 13.7616 3.97221 13.5836 4.03078 13.4249L5.3044 9.9723C5.34004 9.87558 5.34004 9.76919 5.3044 9.67248L4.02684 6.20965Z" fill="#F5F7F2"/>
<path fill-rule="evenodd" clip-rule="evenodd" d="M15.9732 13.4254C16.0317 13.584 15.9927 13.762 15.8732 13.8816L14.2466 15.5084C14.1271 15.6279 13.9491 15.6669 13.7906 15.6086L10.3222 14.3344C10.237 14.3031 10.1804 14.2219 10.1804 14.1311V13.3717C10.1804 13.3142 10.2031 13.2592 10.2438 13.2186L11.0881 12.3745C11.1477 12.3146 11.2367 12.2951 11.3161 12.3245L12.2478 12.668L13.2715 13.0457C13.358 13.0778 13.4424 12.9934 13.4105 12.9068L12.6893 10.9513C12.6601 10.8719 12.6794 10.7829 12.7392 10.7233L13.4899 9.97301C13.5744 9.88847 13.5744 9.75128 13.4899 9.66674L12.7353 8.91217C12.6755 8.85235 12.656 8.76334 12.6853 8.68417L13.4066 6.72888C13.4386 6.64219 13.3543 6.55783 13.2676 6.58989L11.3121 7.31133C11.2328 7.34052 11.1438 7.321 11.0841 7.26136L10.2439 6.42118C10.2033 6.38052 10.1805 6.32553 10.1805 6.26804V5.50846C10.1805 5.41783 10.237 5.33669 10.322 5.30535L13.7863 4.02726C13.9448 3.96869 14.1228 4.00791 14.2425 4.12738L15.8691 5.75419C15.9887 5.87365 16.0278 6.05168 15.9692 6.21037L14.6956 9.66298C14.6598 9.7597 14.6598 9.86609 14.6956 9.9628L15.9733 13.4262L15.9732 13.4254Z" fill="#F5F7F2"/>
</svg>
