<svg width="16" height="18" viewBox="0 0 16 18" fill="none" xmlns="http://www.w3.org/2000/svg">
<path d="M12.6316 8.57812H10.5264" stroke="white" stroke-width="0.75" stroke-miterlimit="10"/>
<path d="M11.3684 13.2099L9.47363 10.6836" stroke="white" stroke-width="0.75" stroke-miterlimit="10"/>
<path d="M6.94724 6.47276L5.68408 3.52539" stroke="white" stroke-width="0.75" stroke-miterlimit="10"/>
<path d="M6.52623 10.4746L3.57886 14.0536" stroke="white" stroke-width="0.75" stroke-miterlimit="10"/>
<path d="M5.68403 8.15697L3.15771 7.52539" stroke="white" stroke-width="0.75" stroke-miterlimit="10"/>
<path d="M11.5788 4.1582L9.44824 6.76873" stroke="white" stroke-width="0.75" stroke-miterlimit="10"/>
<path d="M10.4167 8.62864V8.67917C10.4178 8.99726 10.3561 9.31244 10.2352 9.60664C10.1142 9.90084 9.93635 10.1683 9.71182 10.3936C9.48728 10.6189 9.22048 10.7977 8.9267 10.9197C8.63293 11.0416 8.31796 11.1044 7.99987 11.1044C7.36016 11.0957 6.74923 10.8371 6.29763 10.3839C5.84603 9.93073 5.58956 9.31891 5.58303 8.67917C5.58002 8.4917 5.60269 8.3047 5.6504 8.12338C5.73702 7.74989 5.91125 7.40237 6.15871 7.10952C6.40617 6.81667 6.71975 6.58689 7.07355 6.43917C7.36838 6.32123 7.68236 6.25844 7.99987 6.25391C8.63167 6.2602 9.23644 6.51112 9.68712 6.95395C10.1378 7.39678 10.3993 7.99705 10.4167 8.62864Z" stroke="white" stroke-width="0.75" stroke-miterlimit="10"/>
<path d="M8.00005 10.1544C8.81394 10.1544 9.47374 9.49461 9.47374 8.68072C9.47374 7.86682 8.81394 7.20703 8.00005 7.20703C7.18616 7.20703 6.52637 7.86682 6.52637 8.68072C6.52637 9.49461 7.18616 10.1544 8.00005 10.1544Z" fill="white"/>
<path d="M11.9998 4.3678C12.4649 4.3678 12.8419 3.99078 12.8419 3.5257C12.8419 3.06062 12.4649 2.68359 11.9998 2.68359C11.5347 2.68359 11.1577 3.06062 11.1577 3.5257C11.1577 3.99078 11.5347 4.3678 11.9998 4.3678Z" stroke="white" stroke-width="0.75" stroke-miterlimit="10"/>
<path d="M2.31574 8.15882C2.78082 8.15882 3.15784 7.7818 3.15784 7.31671C3.15784 6.85163 2.78082 6.47461 2.31574 6.47461C1.85066 6.47461 1.47363 6.85163 1.47363 7.31671C1.47363 7.7818 1.85066 8.15882 2.31574 8.15882Z" stroke="white" stroke-width="0.75" stroke-miterlimit="10"/>
<path d="M12 15.3154C12.6976 15.3154 13.2631 14.7498 13.2631 14.0522C13.2631 13.3546 12.6976 12.7891 12 12.7891C11.3024 12.7891 10.7368 13.3546 10.7368 14.0522C10.7368 14.7498 11.3024 15.3154 12 15.3154Z" stroke="white" stroke-width="0.75" stroke-miterlimit="10"/>
<path d="M2.52625 16.9993C3.45642 16.9993 4.21046 16.2452 4.21046 15.3151C4.21046 14.3849 3.45642 13.6309 2.52625 13.6309C1.59609 13.6309 0.842041 14.3849 0.842041 15.3151C0.842041 16.2452 1.59609 16.9993 2.52625 16.9993Z" stroke="white" stroke-width="0.75" stroke-miterlimit="10"/>
<path d="M13.8947 9.84272C14.5924 9.84272 15.1579 9.27719 15.1579 8.57956C15.1579 7.88194 14.5924 7.31641 13.8947 7.31641C13.1971 7.31641 12.6316 7.88194 12.6316 8.57956C12.6316 9.27719 13.1971 9.84272 13.8947 9.84272Z" stroke="white" stroke-width="0.75" stroke-miterlimit="10"/>
<path d="M5.05246 3.52632C5.75009 3.52632 6.31562 2.96078 6.31562 2.26316C6.31562 1.56554 5.75009 1 5.05246 1C4.35484 1 3.78931 1.56554 3.78931 2.26316C3.78931 2.96078 4.35484 3.52632 5.05246 3.52632Z" stroke="white" stroke-width="0.75" stroke-miterlimit="10"/>
</svg>
