<svg width="20" height="20" viewBox="0 0 20 20" fill="none" xmlns="http://www.w3.org/2000/svg">
  <path d="M17.5798 13.315V6.20976L11.6587 2.87927" stroke="#37343d" stroke-width="1.5" stroke-linecap="round" stroke-linejoin="round"/>
  <path d="M8.34295 2.87927L2.42188 6.20976V13.315" stroke="#37343d" stroke-width="1.5" stroke-linecap="round" stroke-linejoin="round"/>
  <path d="M3.84293 15.5357L10.0008 18.9993L13.7903 16.8677L16.1588 15.5357" stroke="#37343d" stroke-width="1.5" stroke-linecap="round" stroke-linejoin="round"/>
  <path d="M10.0008 7.15713L11.4219 7.98608L12.843 8.81503V12.1308L11.4219 12.9598L10.0008 13.7887L8.57979 12.9598L7.15873 12.1308V8.81503L8.57979 7.98608L10.0008 7.15713ZM10.0008 7.15713V3.84133" stroke="#37343d" stroke-width="1.5" stroke-linecap="round" stroke-linejoin="round"/>
  <path d="M12.843 11.894L16.1588 13.7887" stroke="#37343d" stroke-width="1.5" stroke-linecap="round" stroke-linejoin="round"/>
  <path d="M7.15873 11.894L3.84293 13.7887" stroke="#37343d" stroke-width="1.5" stroke-linecap="round" stroke-linejoin="round"/>
  <path d="M9.99918 3.84211C10.784 3.84211 11.4202 3.20589 11.4202 2.42106C11.4202 1.63623 10.784 1 9.99918 1C9.21435 1 8.57812 1.63623 8.57812 2.42106C8.57812 3.20589 9.21435 3.84211 9.99918 3.84211Z" stroke="#37343d" stroke-width="1.5" stroke-linecap="round" stroke-linejoin="round"/>
  <path d="M2.42106 16.1579C3.20589 16.1579 3.84211 15.5217 3.84211 14.7369C3.84211 13.952 3.20589 13.3158 2.42106 13.3158C1.63623 13.3158 1 13.952 1 14.7369C1 15.5217 1.63623 16.1579 2.42106 16.1579Z" stroke="#37343d" stroke-width="1.5" stroke-linecap="round" stroke-linejoin="round"/>
  <path d="M17.5793 16.1579C18.3641 16.1579 19.0003 15.5217 19.0003 14.7369C19.0003 13.952 18.3641 13.3158 17.5793 13.3158C16.7944 13.3158 16.1582 13.952 16.1582 14.7369C16.1582 15.5217 16.7944 16.1579 17.5793 16.1579Z" stroke="#37343d" stroke-width="1.5" stroke-linecap="round" stroke-linejoin="round"/>
</svg>
 