<svg width="332" height="294" viewBox="0 0 332 294" fill="none" xmlns="http://www.w3.org/2000/svg">
<path d="M5.66542 202.751C-0.911074 198.886 -0.911192 189.376 5.66522 185.51L160.932 94.2356C164.06 92.3966 167.939 92.3966 171.068 94.2356L326.335 185.51C332.911 189.376 332.911 198.886 326.335 202.751L176.135 291.042C169.879 294.72 162.121 294.72 155.865 291.042L5.66542 202.751Z" fill="#5E0001"/>
<path d="M5.66542 158.002C-0.911075 154.136 -0.91119 144.626 5.66522 140.76L160.932 49.4864C164.06 47.6474 167.939 47.6474 171.068 49.4864L326.335 140.76C332.911 144.626 332.911 154.136 326.335 158.002L176.135 246.293C169.879 249.971 162.121 249.971 155.865 246.293L5.66542 158.002Z" fill="#AA0F4D"/>
<path d="M5.66542 108.495C-0.911075 104.629 -0.91119 95.1192 5.66522 91.2532L155.864 2.95818C162.121 -0.719727 169.879 -0.719732 176.135 2.95818L253.5 48.4371L326.335 91.2532C332.911 95.1191 332.911 104.629 326.335 108.495L176.135 196.786C169.879 200.463 162.121 200.463 155.865 196.786L5.66542 108.495Z" fill="#F75C9A"/>
</svg>