<svg width="1654" height="300" viewBox="0 0 1654 300" fill="none" xmlns="http://www.w3.org/2000/svg">
<path d="M14.6654 205.751C8.08893 201.886 8.08881 192.376 14.6652 188.51L169.932 97.2356C173.06 95.3966 176.939 95.3966 180.068 97.2356L335.335 188.51C341.911 192.376 341.911 201.886 335.335 205.751L185.135 294.042C178.879 297.72 171.121 297.72 164.865 294.042L14.6654 205.751Z" fill="#5E0001"/>
<path d="M14.6654 161.002C8.08893 157.136 8.08881 147.626 14.6652 143.76L169.932 52.4864C173.06 50.6474 176.939 50.6474 180.068 52.4864L335.335 143.76C341.911 147.626 341.911 157.136 335.335 161.002L185.135 249.293C178.879 252.971 171.121 252.971 164.865 249.293L14.6654 161.002Z" fill="#AA0F4D"/>
<path d="M14.6654 111.495C8.08893 107.629 8.08881 98.1192 14.6652 94.2532L164.864 5.95818C171.121 2.28027 178.879 2.28027 185.135 5.95818L262.5 51.4371L335.335 94.2532C341.911 98.1191 341.911 107.629 335.335 111.495L185.135 199.786C178.879 203.463 171.121 203.463 164.865 199.786L14.6654 111.495Z" fill="#F75C9A"/>
<path d="M571.024 240.768C567.221 240.768 564.163 239.197 561.848 236.056L500.096 156.448L519.192 137.104L582.184 219.192C584.168 221.837 585.16 224.731 585.16 227.872C585.16 231.84 583.672 234.981 580.696 237.296C577.72 239.611 574.496 240.768 571.024 240.768ZM572.264 66.176C575.571 66.176 578.299 67.4987 580.448 70.144C582.597 72.7893 583.672 75.5173 583.672 78.328C583.672 81.304 582.432 84.032 579.952 86.512L473.064 187.944L471.576 158.68L562.344 70.888C565.32 67.7467 568.627 66.176 572.264 66.176ZM462.896 240.52C459.093 240.52 455.952 239.363 453.472 237.048C451.157 234.568 450 231.509 450 227.872V79.568C450 75.9307 451.24 72.9547 453.72 70.64C456.2 68.16 459.424 66.92 463.392 66.92C467.195 66.92 470.253 68.16 472.568 70.64C474.883 72.9547 476.04 75.9307 476.04 79.568V227.872C475.875 231.509 474.635 234.568 472.32 237.048C470.005 239.363 466.864 240.52 462.896 240.52Z" fill="#F1F1F1"/>
<path d="M710.745 110.072C714.217 110.072 717.11 111.312 719.425 113.792C721.905 116.107 723.145 119.083 723.145 122.72V187.944C723.145 205.139 718.35 218.613 708.761 228.368C699.172 237.957 685.614 242.752 668.089 242.752C650.729 242.752 637.254 237.957 627.665 228.368C618.241 218.613 613.529 205.139 613.529 187.944V122.72C613.529 119.083 614.686 116.107 617.001 113.792C619.316 111.312 622.292 110.072 625.929 110.072C629.401 110.072 632.294 111.312 634.609 113.792C637.089 116.107 638.329 119.083 638.329 122.72V187.944C638.329 198.691 640.809 206.709 645.769 212C650.894 217.291 658.334 219.936 668.089 219.936C678.009 219.936 685.532 217.291 690.657 212C695.782 206.709 698.345 198.691 698.345 187.944V122.72C698.345 119.083 699.502 116.107 701.817 113.792C704.132 111.312 707.108 110.072 710.745 110.072Z" fill="#F1F1F1"/>
<path d="M828.31 107.096C839.884 107.096 850.134 109.989 859.062 115.776C868.156 121.563 875.348 129.581 880.638 139.832C885.929 149.917 888.574 161.573 888.574 174.8C888.574 188.027 885.929 199.765 880.638 210.016C875.348 220.267 868.238 228.368 859.31 234.32C850.382 240.107 840.297 243 829.054 243C822.772 243 816.82 242.008 811.198 240.024C805.577 237.875 800.617 235.229 796.318 232.088C792.02 228.781 788.465 225.309 785.654 221.672C783.009 218.035 781.356 214.645 780.694 211.504L787.39 208.28V229.856C787.39 233.328 786.15 236.304 783.67 238.784C781.356 241.099 778.462 242.256 774.99 242.256C771.353 242.256 768.377 241.099 766.062 238.784C763.748 236.469 762.59 233.493 762.59 229.856V69.648C762.59 66.0107 763.748 63.0347 766.062 60.72C768.377 58.24 771.353 57 774.99 57C778.462 57 781.356 58.24 783.67 60.72C786.15 63.0347 787.39 66.0107 787.39 69.648V139.336L783.422 137.104C783.918 133.963 785.489 130.739 788.134 127.432C790.78 123.96 794.086 120.653 798.054 117.512C802.188 114.371 806.817 111.891 811.942 110.072C817.233 108.088 822.689 107.096 828.31 107.096ZM825.582 129.912C817.646 129.912 810.702 131.896 804.75 135.864C798.964 139.832 794.417 145.205 791.11 151.984C787.804 158.597 786.15 166.203 786.15 174.8C786.15 183.397 787.804 191.168 791.11 198.112C794.417 204.891 798.964 210.264 804.75 214.232C810.702 218.2 817.646 220.184 825.582 220.184C833.353 220.184 840.132 218.2 845.918 214.232C851.705 210.264 856.252 204.808 859.559 197.864C863.03 190.92 864.767 183.232 864.767 174.8C864.767 166.203 863.03 158.597 859.559 151.984C856.252 145.205 851.705 139.832 845.918 135.864C840.132 131.896 833.353 129.912 825.582 129.912Z" fill="#F1F1F1"/>
<path d="M944.894 227.872C944.894 231.509 943.736 234.568 941.422 237.048C939.107 239.363 936.131 240.52 932.494 240.52C929.022 240.52 926.046 239.363 923.566 237.048C921.251 234.568 920.094 231.509 920.094 227.872V121.728C920.094 118.091 921.251 115.115 923.566 112.8C926.046 110.32 929.022 109.08 932.494 109.08C936.131 109.08 939.107 110.32 941.422 112.8C943.736 115.115 944.894 118.091 944.894 121.728V227.872ZM932.246 92.712C927.451 92.712 923.979 91.8853 921.83 90.232C919.68 88.4133 918.606 85.4373 918.606 81.304V77.336C918.606 73.2027 919.763 70.3093 922.078 68.656C924.392 67.0027 927.864 66.176 932.494 66.176C937.454 66.176 941.008 67.0853 943.158 68.904C945.307 70.5573 946.382 73.368 946.382 77.336V81.304C946.382 85.6027 945.224 88.5787 942.91 90.232C940.76 91.8853 937.206 92.712 932.246 92.712Z" fill="#F1F1F1"/>
<path d="M997.598 240.52C994.126 240.52 991.15 239.363 988.67 237.048C986.355 234.568 985.198 231.509 985.198 227.872V69.648C985.198 66.0107 986.355 63.0347 988.67 60.72C991.15 58.24 994.126 57 997.598 57C1001.23 57 1004.21 58.24 1006.53 60.72C1008.84 63.0347 1010 66.0107 1010 69.648V227.872C1010 231.509 1008.84 234.568 1006.53 237.048C1004.21 239.363 1001.23 240.52 997.598 240.52ZM1078.45 109.576C1081.59 109.576 1084.32 110.899 1086.63 113.544C1088.94 116.189 1090.1 118.835 1090.1 121.48C1090.1 124.787 1088.53 127.845 1085.39 130.656L1007.77 200.096L1006.77 171.576L1069.27 113.544C1071.91 110.899 1074.97 109.576 1078.45 109.576ZM1081.42 240.272C1077.95 240.272 1074.97 238.867 1072.49 236.056L1022.89 183.728L1041.74 166.368L1090.1 218.696C1092.75 221.507 1094.07 224.648 1094.07 228.12C1094.07 231.757 1092.58 234.733 1089.61 237.048C1086.79 239.197 1084.07 240.272 1081.42 240.272Z" fill="#F1F1F1"/>
<path d="M1117.56 220.184C1116.08 217.869 1115.41 215.224 1115.58 212.248C1115.75 209.107 1117.48 206.461 1120.79 204.312C1123.1 202.824 1125.5 202.245 1127.98 202.576C1130.63 202.741 1133.11 203.981 1135.42 206.296C1140.05 211.421 1145.17 215.472 1150.8 218.448C1156.58 221.424 1163.53 222.912 1171.63 222.912C1174.93 222.747 1178.32 222.251 1181.8 221.424C1185.27 220.432 1188.24 218.779 1190.72 216.464C1193.2 213.984 1194.44 210.429 1194.44 205.8C1194.44 201.667 1193.12 198.36 1190.48 195.88C1187.83 193.4 1184.36 191.416 1180.06 189.928C1175.76 188.275 1171.13 186.787 1166.17 185.464C1160.88 183.976 1155.51 182.323 1150.05 180.504C1144.76 178.685 1139.97 176.371 1135.67 173.56C1131.37 170.584 1127.81 166.781 1125 162.152C1122.36 157.523 1121.04 151.819 1121.04 145.04C1121.04 137.269 1123.19 130.573 1127.48 124.952C1131.95 119.331 1137.65 114.949 1144.6 111.808C1151.71 108.667 1159.39 107.096 1167.66 107.096C1172.45 107.096 1177.5 107.757 1182.79 109.08C1188.08 110.237 1193.2 112.139 1198.16 114.784C1203.12 117.429 1207.42 120.901 1211.06 125.2C1212.71 127.349 1213.62 129.912 1213.79 132.888C1214.12 135.864 1212.8 138.509 1209.82 140.824C1207.84 142.477 1205.44 143.221 1202.63 143.056C1199.82 142.891 1197.5 141.981 1195.68 140.328C1192.54 136.36 1188.49 133.301 1183.53 131.152C1178.57 128.837 1172.95 127.68 1166.67 127.68C1163.53 127.68 1160.22 128.176 1156.75 129.168C1153.44 129.995 1150.63 131.565 1148.32 133.88C1146 136.195 1144.84 139.584 1144.84 144.048C1144.84 148.181 1146.17 151.488 1148.81 153.968C1151.62 156.448 1155.26 158.515 1159.72 160.168C1164.19 161.821 1169.07 163.309 1174.36 164.632C1179.48 165.955 1184.52 167.525 1189.48 169.344C1194.61 171.163 1199.16 173.56 1203.12 176.536C1207.26 179.347 1210.56 183.067 1213.04 187.696C1215.69 192.16 1217.01 197.864 1217.01 204.808C1217.01 212.909 1214.61 219.853 1209.82 225.64C1205.19 231.261 1199.24 235.56 1191.96 238.536C1184.85 241.512 1177.33 243 1169.4 243C1159.97 243 1150.55 241.347 1141.12 238.04C1131.87 234.568 1124.01 228.616 1117.56 220.184Z" fill="#F1F1F1"/>
<path d="M1306.43 107.096C1315.35 107.096 1323.29 108.088 1330.23 110.072C1337.18 111.891 1342.55 114.536 1346.35 118.008C1350.32 121.315 1352.31 125.2 1352.31 129.664C1352.31 132.475 1351.48 135.12 1349.83 137.6C1348.17 139.915 1345.69 141.072 1342.39 141.072C1340.07 141.072 1338.09 140.659 1336.43 139.832C1334.95 139.005 1333.54 138.013 1332.22 136.856C1330.89 135.699 1329.24 134.541 1327.26 133.384C1325.44 132.392 1322.71 131.565 1319.07 130.904C1315.6 130.243 1312.46 129.912 1309.65 129.912C1300.89 129.912 1293.28 131.896 1286.83 135.864C1280.55 139.832 1275.59 145.205 1271.95 151.984C1268.48 158.763 1266.75 166.451 1266.75 175.048C1266.75 183.645 1268.48 191.333 1271.95 198.112C1275.59 204.891 1280.47 210.264 1286.59 214.232C1292.87 218.2 1300.14 220.184 1308.41 220.184C1313.37 220.184 1317.42 219.853 1320.56 219.192C1323.7 218.365 1326.43 217.373 1328.75 216.216C1331.23 214.728 1333.29 213.24 1334.95 211.752C1336.76 210.099 1339.24 209.272 1342.39 209.272C1346.02 209.272 1348.75 210.429 1350.57 212.744C1352.55 214.893 1353.55 217.621 1353.55 220.928C1353.55 224.565 1351.31 228.12 1346.85 231.592C1342.55 234.899 1336.76 237.627 1329.49 239.776C1322.21 241.925 1314.2 243 1305.43 243C1292.54 243 1281.29 240.024 1271.71 234.072C1262.28 228.12 1254.92 220.019 1249.63 209.768C1244.51 199.517 1241.95 187.944 1241.95 175.048C1241.95 161.987 1244.67 150.413 1250.13 140.328C1255.59 130.077 1263.19 121.976 1272.95 116.024C1282.7 110.072 1293.86 107.096 1306.43 107.096Z" fill="#F1F1F1"/>
<path d="M1489.09 108.088C1492.73 108.088 1495.7 109.328 1498.02 111.808C1500.33 114.123 1501.49 117.099 1501.49 120.736V227.872C1501.49 231.509 1500.33 234.568 1498.02 237.048C1495.7 239.363 1492.73 240.52 1489.09 240.52C1485.62 240.52 1482.64 239.363 1480.16 237.048C1477.85 234.568 1476.69 231.509 1476.69 227.872V210.016L1481.9 210.76C1481.9 213.736 1480.66 217.043 1478.18 220.68C1475.86 224.317 1472.64 227.872 1468.51 231.344C1464.37 234.651 1459.5 237.461 1453.88 239.776C1448.25 241.925 1442.22 243 1435.77 243C1424.36 243 1414.11 240.107 1405.02 234.32C1395.93 228.368 1388.73 220.267 1383.44 210.016C1378.15 199.765 1375.51 188.109 1375.51 175.048C1375.51 161.656 1378.15 149.917 1383.44 139.832C1388.73 129.581 1395.84 121.563 1404.77 115.776C1413.86 109.989 1423.95 107.096 1435.03 107.096C1442.14 107.096 1448.67 108.253 1454.62 110.568C1460.74 112.883 1466.03 115.859 1470.49 119.496C1474.95 123.133 1478.34 127.019 1480.66 131.152C1483.14 135.12 1484.38 138.923 1484.38 142.56L1476.69 143.304V120.736C1476.69 117.264 1477.85 114.288 1480.16 111.808C1482.64 109.328 1485.62 108.088 1489.09 108.088ZM1438.5 220.184C1446.27 220.184 1453.13 218.2 1459.08 214.232C1465.04 210.264 1469.66 204.891 1472.97 198.112C1476.28 191.168 1477.93 183.48 1477.93 175.048C1477.93 166.451 1476.28 158.763 1472.97 151.984C1469.66 145.205 1465.04 139.832 1459.08 135.864C1453.13 131.896 1446.27 129.912 1438.5 129.912C1430.89 129.912 1424.11 131.896 1418.16 135.864C1412.38 139.832 1407.75 145.205 1404.28 151.984C1400.97 158.763 1399.32 166.451 1399.32 175.048C1399.32 183.48 1400.97 191.168 1404.28 198.112C1407.75 204.891 1412.38 210.264 1418.16 214.232C1424.11 218.2 1430.89 220.184 1438.5 220.184Z" fill="#F1F1F1"/>
<path d="M1608.4 107.096C1620.14 107.096 1629.23 109.576 1635.68 114.536C1642.13 119.331 1646.59 125.861 1649.07 134.128C1651.72 142.229 1653.04 151.323 1653.04 161.408V227.872C1653.04 231.509 1651.8 234.568 1649.32 237.048C1647.01 239.363 1644.11 240.52 1640.64 240.52C1637.01 240.52 1634.03 239.363 1631.71 237.048C1629.4 234.568 1628.24 231.509 1628.24 227.872V161.656C1628.24 155.704 1627.42 150.413 1625.76 145.784C1624.11 140.989 1621.22 137.187 1617.08 134.376C1613.11 131.4 1607.49 129.912 1600.22 129.912C1593.44 129.912 1587.49 131.4 1582.36 134.376C1577.24 137.187 1573.19 140.989 1570.21 145.784C1567.4 150.413 1565.99 155.704 1565.99 161.656V227.872C1565.99 231.509 1564.75 234.568 1562.27 237.048C1559.96 239.363 1557.07 240.52 1553.59 240.52C1549.96 240.52 1546.98 239.363 1544.67 237.048C1542.35 234.568 1541.19 231.509 1541.19 227.872V122.72C1541.19 119.083 1542.35 116.107 1544.67 113.792C1546.98 111.312 1549.96 110.072 1553.59 110.072C1557.07 110.072 1559.96 111.312 1562.27 113.792C1564.75 116.107 1565.99 119.083 1565.99 122.72V136.608L1561.53 139.088C1562.69 135.451 1564.67 131.813 1567.48 128.176C1570.46 124.373 1574.01 120.901 1578.15 117.76C1582.28 114.453 1586.91 111.891 1592.03 110.072C1597.16 108.088 1602.62 107.096 1608.4 107.096Z" fill="#F1F1F1"/>
</svg>