<svg width="75" height="30" viewBox="0 0 75 30" fill="none" xmlns="http://www.w3.org/2000/svg">
<path d="M48.8649 29.8925C48.6278 29.8925 48.4403 29.8236 48.3025 29.6857C48.1646 29.5479 48.0957 29.3604 48.0957 29.1233V24.8472C48.1564 24.8362 48.2529 24.8224 48.3852 24.8058C48.5175 24.7838 48.6443 24.7727 48.7657 24.7727C48.8925 24.7727 49.0028 24.7838 49.0965 24.8058C49.1958 24.8224 49.2785 24.8555 49.3446 24.9051C49.4108 24.9547 49.4604 25.0236 49.4935 25.1119C49.5266 25.2001 49.5431 25.3159 49.5431 25.4592V28.7263H51.4372C51.4758 28.787 51.5116 28.8697 51.5447 28.9744C51.5778 29.0737 51.5944 29.1785 51.5944 29.2887C51.5944 29.5093 51.5475 29.6664 51.4537 29.7602C51.36 29.8484 51.2359 29.8925 51.0816 29.8925H48.8649Z" fill="white"/>
<path d="M55.9653 25.0043C56.059 24.9492 56.1996 24.8968 56.3871 24.8472C56.5801 24.7976 56.7731 24.7727 56.9661 24.7727C57.2418 24.7727 57.4844 24.8141 57.6939 24.8968C57.909 24.974 58.0468 25.0981 58.1075 25.269C58.2067 25.5557 58.3143 25.8893 58.4301 26.2698C58.5458 26.6503 58.6616 27.0445 58.7774 27.4526C58.8932 27.8551 59.0063 28.2549 59.1165 28.6519C59.2268 29.0434 59.3233 29.3907 59.406 29.694C59.3399 29.7712 59.2406 29.8319 59.1083 29.876C58.9759 29.9256 58.8188 29.9504 58.6368 29.9504C58.5045 29.9504 58.3915 29.9394 58.2977 29.9173C58.2095 29.8953 58.135 29.8622 58.0744 29.8181C58.0193 29.774 57.9724 29.7161 57.9338 29.6444C57.9007 29.5727 57.8704 29.49 57.8428 29.3963L57.6939 28.8256H56.1969C56.1528 28.991 56.1086 29.1619 56.0645 29.3384C56.0204 29.5148 55.9763 29.6857 55.9322 29.8512C55.855 29.8787 55.7723 29.9008 55.6841 29.9173C55.6014 29.9394 55.4993 29.9504 55.378 29.9504C55.0968 29.9504 54.8873 29.9035 54.7494 29.8098C54.6171 29.7106 54.5509 29.5755 54.5509 29.4045C54.5509 29.3273 54.562 29.2501 54.584 29.1729C54.6061 29.0957 54.6309 29.0048 54.6585 28.9C54.6971 28.7511 54.7494 28.5664 54.8156 28.3458C54.8873 28.1253 54.9645 27.8882 55.0472 27.6345C55.1299 27.3754 55.2181 27.1107 55.3119 26.8405C55.4056 26.5703 55.4938 26.3167 55.5765 26.0796C55.6593 25.8369 55.7337 25.6219 55.7999 25.4344C55.8715 25.2469 55.9267 25.1036 55.9653 25.0043ZM56.9578 26.0713C56.8806 26.3029 56.7924 26.562 56.6931 26.8488C56.5994 27.13 56.5139 27.4167 56.4367 27.709H57.4623C57.3851 27.4112 57.3052 27.1217 57.2225 26.8405C57.1453 26.5538 57.0736 26.2974 57.0074 26.0713H56.9578Z" fill="white"/>
<path d="M63.9713 28.8338C64.0485 28.8559 64.1477 28.8724 64.269 28.8835C64.3903 28.889 64.5061 28.8917 64.6164 28.8917C64.837 28.8917 65.0189 28.8476 65.1623 28.7594C65.3112 28.6656 65.3856 28.5223 65.3856 28.3293C65.3856 28.1473 65.325 28.0177 65.2036 27.9406C65.0823 27.8634 64.8976 27.8248 64.6495 27.8248H63.9713V28.8338ZM63.9713 26.8157H64.575C64.8122 26.8157 64.9831 26.7716 65.0879 26.6834C65.1981 26.5951 65.2533 26.4655 65.2533 26.2946C65.2533 26.1457 65.1899 26.0272 65.063 25.939C64.9417 25.8507 64.757 25.8066 64.5089 25.8066C64.4262 25.8066 64.3297 25.8094 64.2194 25.8149C64.1146 25.8204 64.0319 25.8287 63.9713 25.8397V26.8157ZM64.5089 30C64.4151 30 64.3049 29.9973 64.178 29.9918C64.0512 29.9863 63.9189 29.9752 63.781 29.9587C63.6487 29.9421 63.5164 29.9201 63.384 29.8925C63.2517 29.8705 63.1304 29.8374 63.0201 29.7933C62.7168 29.6775 62.5652 29.4762 62.5652 29.1895V25.3269C62.5652 25.2111 62.5955 25.1229 62.6562 25.0622C62.7223 24.9961 62.8106 24.9437 62.9208 24.9051C63.1083 24.8389 63.3427 24.792 63.6239 24.7645C63.9051 24.7314 64.1946 24.7148 64.4923 24.7148C65.1981 24.7148 65.7413 24.8334 66.1217 25.0705C66.5022 25.3076 66.6924 25.6743 66.6924 26.1705C66.6924 26.4187 66.6208 26.6337 66.4774 26.8157C66.334 26.9921 66.141 27.1217 65.8984 27.2044C66.1741 27.2816 66.403 27.4222 66.5849 27.6263C66.7724 27.8303 66.8661 28.0867 66.8661 28.3955C66.8661 28.9413 66.6621 29.3466 66.2541 29.6113C65.8515 29.8705 65.2698 30 64.5089 30Z" fill="white"/>
<path d="M71.5901 27.8744C71.3474 27.7917 71.1269 27.709 70.9284 27.6263C70.7299 27.538 70.5589 27.4333 70.4156 27.312C70.2722 27.1906 70.1592 27.0473 70.0765 26.8819C69.9993 26.7109 69.9607 26.5041 69.9607 26.2615C69.9607 25.7928 70.1399 25.4179 70.4983 25.1367C70.8622 24.8555 71.3695 24.7148 72.0202 24.7148C72.2573 24.7148 72.4778 24.7314 72.6818 24.7645C72.8859 24.7976 73.0595 24.8499 73.2029 24.9216C73.3518 24.9878 73.4676 25.076 73.5503 25.1863C73.633 25.2911 73.6744 25.4151 73.6744 25.5585C73.6744 25.7019 73.6413 25.8259 73.5751 25.9307C73.5089 26.0299 73.429 26.1154 73.3352 26.1871C73.2139 26.1099 73.0513 26.0437 72.8473 25.9886C72.6432 25.9279 72.4199 25.8976 72.1773 25.8976C71.9292 25.8976 71.7472 25.9334 71.6314 26.0051C71.5156 26.0713 71.4577 26.1568 71.4577 26.2615C71.4577 26.3442 71.4936 26.4132 71.5652 26.4683C71.6369 26.5179 71.7445 26.5648 71.8878 26.6089L72.3262 26.7495C72.8445 26.9149 73.2415 27.1272 73.5172 27.3864C73.7984 27.64 73.939 27.9874 73.939 28.4285C73.939 28.8972 73.7543 29.2777 73.3849 29.5699C73.0154 29.8567 72.4723 30 71.7555 30C71.5018 30 71.2647 29.978 71.0442 29.9339C70.8291 29.8953 70.6389 29.8374 70.4735 29.7602C70.3136 29.6775 70.1867 29.5782 70.093 29.4624C70.0048 29.3411 69.9607 29.2033 69.9607 29.0489C69.9607 28.889 70.0075 28.7539 70.1013 28.6436C70.195 28.5278 70.297 28.4396 70.4073 28.3789C70.5617 28.5002 70.7492 28.605 70.9697 28.6932C71.1958 28.7814 71.4412 28.8256 71.7059 28.8256C71.976 28.8256 72.1663 28.7842 72.2766 28.7015C72.3868 28.6188 72.442 28.5223 72.442 28.412C72.442 28.3017 72.3979 28.219 72.3096 28.1639C72.2214 28.1032 72.0973 28.0453 71.9374 27.9902L71.5901 27.8744Z" fill="white"/>
<path d="M51.9814 7.00721C51.9814 5.86522 52.9072 4.93945 54.0492 4.93945C55.1912 4.93945 56.117 5.86522 56.117 7.00721V18.0353C56.117 20.3193 54.2654 22.1708 51.9814 22.1708V7.00721Z" fill="white"/>
<rect width="4.13552" height="22.171" rx="2.06776" fill="white"/>
<path d="M9.39329 4.82471H14.8733L8.18192 12.9668L15.5078 22.1709H10.0855L4.81606 15.5628H2.06738V9.89877H5.06697L9.39329 4.82471Z" fill="white"/>
<rect x="57.2656" width="4.36527" height="22.171" rx="2.18264" fill="white"/>
<path d="M68.1253 5.28418H74.1523L67.3923 13.6867L73.8265 22.1709H68.1253L62.6399 15.3999H61.6309L61.6309 11.6473H62.6399L68.1253 5.28418Z" fill="white"/>
<path fill-rule="evenodd" clip-rule="evenodd" d="M38.6991 5.69042C36.9126 6.48952 33.8886 8.55806 33.8887 9.64938C33.8887 10.8865 34.8916 11.8895 36.1287 11.8895H39.8622L39.8623 11.8896C39.8623 11.5093 39.854 11.204 39.8473 10.9559C39.8195 9.92954 39.8182 9.88155 40.5394 9.5599C41.435 9.16047 42.4381 9.08192 43.3837 9.33717C44.3292 9.59243 45.1608 10.1663 45.7416 10.9643C46.3224 11.7623 46.6178 12.7369 46.5792 13.7277C46.5405 14.7185 46.1702 15.6664 45.529 16.4155C44.8879 17.1646 44.0142 17.6701 43.0518 17.849C42.0893 18.0279 41.0954 17.8693 40.2337 17.3996C40.06 17.3049 39.9499 17.2226 39.8815 17.1441L39.8622 17.1737C39.8622 17.1737 33.284 15.8945 34.061 17.6907C34.7918 19.3803 36.2632 20.1558 37.8743 21.005C37.9759 21.0586 38.0781 21.1124 38.1807 21.1668C39.9097 22.0837 41.8993 22.3846 43.8221 22.02C45.7449 21.6554 47.4862 20.6471 48.7596 19.1609C50.0329 17.6748 50.7624 15.7995 50.8279 13.8435C50.8934 11.8876 50.291 9.96763 49.12 8.39964C47.9489 6.83165 46.2789 5.70907 44.3849 5.21665C42.4908 4.72423 40.4855 4.89132 38.6991 5.69042ZM42.2052 13.5467L42.2747 13.5553L42.2011 13.5439L42.2052 13.5467Z" fill="white"/>
<ellipse cx="36.3014" cy="2.41239" rx="2.29751" ry="2.41239" fill="white"/>
<path d="M33.9463 15.2021C33.9463 14.3562 34.632 13.6704 35.478 13.6704H39.8854V15.9679C39.8854 17.2368 38.8567 18.2654 37.5878 18.2654H36.9158C35.2758 18.2654 33.9463 16.9359 33.9463 15.2959V15.2021Z" fill="white"/>
<path fill-rule="evenodd" clip-rule="evenodd" d="M20.809 7.57258C20.7984 7.6891 20.793 7.80713 20.793 7.92642V14.3379C20.793 16.4633 22.5159 18.1862 24.6413 18.1862C26.7667 18.1862 28.4896 16.4633 28.4896 14.3379V8.12872C28.4948 7.9486 28.5857 7.78135 28.735 7.67925L32.7398 4.93945V14.1295C32.7398 18.5706 29.1396 22.1708 24.6985 22.1708C20.2574 22.1708 16.6572 18.5706 16.6572 14.1295V6.01641H19.4465C20.19 6.01641 20.7927 6.61913 20.7927 7.36261C20.7927 7.43404 20.7983 7.50416 20.809 7.57258Z" fill="white"/>
</svg>
