<svg width="1204" height="186" viewBox="0 0 1204 186" fill="none" xmlns="http://www.w3.org/2000/svg">
<path d="M121.024 183.768C117.221 183.768 114.163 182.197 111.848 179.056L50.096 99.448L69.192 80.104L132.184 162.192C134.168 164.837 135.16 167.731 135.16 170.872C135.16 174.84 133.672 177.981 130.696 180.296C127.72 182.611 124.496 183.768 121.024 183.768ZM122.264 9.176C125.571 9.176 128.299 10.4987 130.448 13.144C132.597 15.7893 133.672 18.5173 133.672 21.328C133.672 24.304 132.432 27.032 129.952 29.512L23.064 130.944L21.576 101.68L112.344 13.888C115.32 10.7467 118.627 9.176 122.264 9.176ZM12.896 183.52C9.09334 183.52 5.952 182.363 3.472 180.048C1.15733 177.568 0 174.509 0 170.872V22.568C0 18.9307 1.24 15.9547 3.72 13.64C6.2 11.16 9.424 9.91999 13.392 9.91999C17.1947 9.91999 20.2533 11.16 22.568 13.64C24.8827 15.9547 26.04 18.9307 26.04 22.568V170.872C25.8747 174.509 24.6347 177.568 22.32 180.048C20.0053 182.363 16.864 183.52 12.896 183.52Z" fill="#F1F1F1"/>
<path d="M260.745 53.072C264.217 53.072 267.11 54.312 269.425 56.792C271.905 59.1067 273.145 62.0827 273.145 65.72V130.944C273.145 148.139 268.35 161.613 258.761 171.368C249.172 180.957 235.614 185.752 218.089 185.752C200.729 185.752 187.254 180.957 177.665 171.368C168.241 161.613 163.529 148.139 163.529 130.944V65.72C163.529 62.0827 164.686 59.1067 167.001 56.792C169.316 54.312 172.292 53.072 175.929 53.072C179.401 53.072 182.294 54.312 184.609 56.792C187.089 59.1067 188.329 62.0827 188.329 65.72V130.944C188.329 141.691 190.809 149.709 195.769 155C200.894 160.291 208.334 162.936 218.089 162.936C228.009 162.936 235.532 160.291 240.657 155C245.782 149.709 248.345 141.691 248.345 130.944V65.72C248.345 62.0827 249.502 59.1067 251.817 56.792C254.132 54.312 257.108 53.072 260.745 53.072Z" fill="#F1F1F1"/>
<path d="M378.31 50.096C389.884 50.096 400.134 52.9893 409.062 58.776C418.156 64.5627 425.348 72.5813 430.638 82.832C435.929 92.9173 438.574 104.573 438.574 117.8C438.574 131.027 435.929 142.765 430.638 153.016C425.348 163.267 418.238 171.368 409.31 177.32C400.382 183.107 390.297 186 379.054 186C372.772 186 366.82 185.008 361.198 183.024C355.577 180.875 350.617 178.229 346.318 175.088C342.02 171.781 338.465 168.309 335.654 164.672C333.009 161.035 331.356 157.645 330.694 154.504L337.39 151.28V172.856C337.39 176.328 336.15 179.304 333.67 181.784C331.356 184.099 328.462 185.256 324.99 185.256C321.353 185.256 318.377 184.099 316.062 181.784C313.748 179.469 312.59 176.493 312.59 172.856V12.648C312.59 9.01066 313.748 6.03466 316.062 3.72C318.377 1.24 321.353 0 324.99 0C328.462 0 331.356 1.24 333.67 3.72C336.15 6.03466 337.39 9.01066 337.39 12.648V82.336L333.422 80.104C333.918 76.9627 335.489 73.7387 338.134 70.432C340.78 66.96 344.086 63.6533 348.054 60.512C352.188 57.3707 356.817 54.8907 361.942 53.072C367.233 51.088 372.689 50.096 378.31 50.096ZM375.582 72.912C367.646 72.912 360.702 74.896 354.75 78.864C348.964 82.832 344.417 88.2053 341.11 94.984C337.804 101.597 336.15 109.203 336.15 117.8C336.15 126.397 337.804 134.168 341.11 141.112C344.417 147.891 348.964 153.264 354.75 157.232C360.702 161.2 367.646 163.184 375.582 163.184C383.353 163.184 390.132 161.2 395.918 157.232C401.705 153.264 406.252 147.808 409.559 140.864C413.03 133.92 414.767 126.232 414.767 117.8C414.767 109.203 413.03 101.597 409.559 94.984C406.252 88.2053 401.705 82.832 395.918 78.864C390.132 74.896 383.353 72.912 375.582 72.912Z" fill="#F1F1F1"/>
<path d="M494.894 170.872C494.894 174.509 493.736 177.568 491.422 180.048C489.107 182.363 486.131 183.52 482.494 183.52C479.022 183.52 476.046 182.363 473.566 180.048C471.251 177.568 470.094 174.509 470.094 170.872V64.728C470.094 61.0907 471.251 58.1147 473.566 55.8C476.046 53.32 479.022 52.08 482.494 52.08C486.131 52.08 489.107 53.32 491.422 55.8C493.736 58.1147 494.894 61.0907 494.894 64.728V170.872ZM482.246 35.712C477.451 35.712 473.979 34.8853 471.83 33.232C469.68 31.4133 468.606 28.4373 468.606 24.304V20.336C468.606 16.2027 469.763 13.3093 472.078 11.656C474.392 10.0027 477.864 9.176 482.494 9.176C487.454 9.176 491.008 10.0853 493.158 11.904C495.307 13.5573 496.382 16.368 496.382 20.336V24.304C496.382 28.6027 495.224 31.5787 492.91 33.232C490.76 34.8853 487.206 35.712 482.246 35.712Z" fill="#F1F1F1"/>
<path d="M547.598 183.52C544.126 183.52 541.15 182.363 538.67 180.048C536.355 177.568 535.198 174.509 535.198 170.872V12.648C535.198 9.01066 536.355 6.03466 538.67 3.72C541.15 1.24 544.126 0 547.598 0C551.235 0 554.211 1.24 556.526 3.72C558.84 6.03466 559.998 9.01066 559.998 12.648V170.872C559.998 174.509 558.84 177.568 556.526 180.048C554.211 182.363 551.235 183.52 547.598 183.52ZM628.446 52.576C631.587 52.576 634.315 53.8987 636.63 56.544C638.944 59.1893 640.102 61.8347 640.102 64.48C640.102 67.7867 638.531 70.8453 635.39 73.656L557.766 143.096L556.774 114.576L619.27 56.544C621.915 53.8987 624.974 52.576 628.446 52.576ZM631.422 183.272C627.95 183.272 624.974 181.867 622.494 179.056L572.894 126.728L591.742 109.368L640.102 161.696C642.747 164.507 644.07 167.648 644.07 171.12C644.07 174.757 642.582 177.733 639.606 180.048C636.795 182.197 634.067 183.272 631.422 183.272Z" fill="#F1F1F1"/>
<path d="M667.564 163.184C666.076 160.869 665.414 158.224 665.58 155.248C665.745 152.107 667.481 149.461 670.788 147.312C673.102 145.824 675.5 145.245 677.98 145.576C680.625 145.741 683.105 146.981 685.42 149.296C690.049 154.421 695.174 158.472 700.796 161.448C706.582 164.424 713.526 165.912 721.628 165.912C724.934 165.747 728.324 165.251 731.796 164.424C735.268 163.432 738.244 161.779 740.724 159.464C743.204 156.984 744.444 153.429 744.444 148.8C744.444 144.667 743.121 141.36 740.476 138.88C737.83 136.4 734.358 134.416 730.06 132.928C725.761 131.275 721.132 129.787 716.172 128.464C710.881 126.976 705.508 125.323 700.052 123.504C694.761 121.685 689.966 119.371 685.668 116.56C681.369 113.584 677.814 109.781 675.004 105.152C672.358 100.523 671.036 94.8187 671.036 88.04C671.036 80.2693 673.185 73.5733 677.484 67.952C681.948 62.3307 687.652 57.9493 694.596 54.808C701.705 51.6667 709.393 50.096 717.66 50.096C722.454 50.096 727.497 50.7573 732.788 52.08C738.078 53.2373 743.204 55.1387 748.164 57.784C753.124 60.4293 757.422 63.9013 761.06 68.2C762.713 70.3493 763.622 72.912 763.788 75.888C764.118 78.864 762.796 81.5093 759.82 83.824C757.836 85.4773 755.438 86.2213 752.628 86.056C749.817 85.8907 747.502 84.9813 745.684 83.328C742.542 79.36 738.492 76.3013 733.532 74.152C728.572 71.8373 722.95 70.68 716.668 70.68C713.526 70.68 710.22 71.176 706.748 72.168C703.441 72.9947 700.63 74.5653 698.316 76.88C696.001 79.1947 694.844 82.584 694.844 87.048C694.844 91.1813 696.166 94.488 698.812 96.968C701.622 99.448 705.26 101.515 709.724 103.168C714.188 104.821 719.065 106.309 724.356 107.632C729.481 108.955 734.524 110.525 739.484 112.344C744.609 114.163 749.156 116.56 753.124 119.536C757.257 122.347 760.564 126.067 763.044 130.696C765.689 135.16 767.012 140.864 767.012 147.808C767.012 155.909 764.614 162.853 759.82 168.64C755.19 174.261 749.238 178.56 741.964 181.536C734.854 184.512 727.332 186 719.396 186C709.972 186 700.548 184.347 691.124 181.04C681.865 177.568 674.012 171.616 667.564 163.184Z" fill="#F1F1F1"/>
<path d="M856.425 50.096C865.353 50.096 873.289 51.088 880.233 53.072C887.177 54.8907 892.551 57.536 896.353 61.008C900.321 64.3147 902.305 68.2 902.305 72.664C902.305 75.4747 901.479 78.12 899.825 80.6C898.172 82.9147 895.692 84.072 892.385 84.072C890.071 84.072 888.087 83.6587 886.433 82.832C884.945 82.0053 883.54 81.0133 882.217 79.856C880.895 78.6987 879.241 77.5413 877.257 76.384C875.439 75.392 872.711 74.5653 869.073 73.904C865.602 73.2427 862.46 72.912 859.649 72.912C850.887 72.912 843.281 74.896 836.833 78.864C830.551 82.832 825.591 88.2053 821.953 94.984C818.481 101.763 816.745 109.451 816.745 118.048C816.745 126.645 818.481 134.333 821.953 141.112C825.591 147.891 830.468 153.264 836.585 157.232C842.868 161.2 850.143 163.184 858.409 163.184C863.369 163.184 867.42 162.853 870.561 162.192C873.703 161.365 876.431 160.373 878.745 159.216C881.225 157.728 883.292 156.24 884.945 154.752C886.764 153.099 889.244 152.272 892.385 152.272C896.023 152.272 898.751 153.429 900.569 155.744C902.553 157.893 903.545 160.621 903.545 163.928C903.545 167.565 901.313 171.12 896.849 174.592C892.551 177.899 886.764 180.627 879.49 182.776C872.215 184.925 864.196 186 855.433 186C842.537 186 831.295 183.024 821.705 177.072C812.281 171.12 804.924 163.019 799.633 152.768C794.508 142.517 791.945 130.944 791.945 118.048C791.945 104.987 794.673 93.4133 800.129 83.328C805.585 73.0773 813.191 64.976 822.945 59.024C832.7 53.072 843.86 50.096 856.425 50.096Z" fill="#F1F1F1"/>
<path d="M1039.09 51.088C1042.73 51.088 1045.7 52.328 1048.02 54.808C1050.33 57.1227 1051.49 60.0987 1051.49 63.736V170.872C1051.49 174.509 1050.33 177.568 1048.02 180.048C1045.7 182.363 1042.73 183.52 1039.09 183.52C1035.62 183.52 1032.64 182.363 1030.16 180.048C1027.85 177.568 1026.69 174.509 1026.69 170.872V153.016L1031.9 153.76C1031.9 156.736 1030.66 160.043 1028.18 163.68C1025.86 167.317 1022.64 170.872 1018.51 174.344C1014.37 177.651 1009.5 180.461 1003.88 182.776C998.254 184.925 992.219 186 985.771 186C974.363 186 964.112 183.107 955.019 177.32C945.926 171.368 938.734 163.267 933.443 153.016C928.152 142.765 925.507 131.109 925.507 118.048C925.507 104.656 928.152 92.9173 933.443 82.832C938.734 72.5813 945.843 64.5627 954.771 58.776C963.864 52.9893 973.95 50.096 985.027 50.096C992.136 50.096 998.667 51.2533 1004.62 53.568C1010.74 55.8827 1016.03 58.8587 1020.49 62.496C1024.95 66.1333 1028.34 70.0187 1030.66 74.152C1033.14 78.12 1034.38 81.9227 1034.38 85.56L1026.69 86.304V63.736C1026.69 60.264 1027.85 57.288 1030.16 54.808C1032.64 52.328 1035.62 51.088 1039.09 51.088ZM988.499 163.184C996.27 163.184 1003.13 161.2 1009.08 157.232C1015.04 153.264 1019.66 147.891 1022.97 141.112C1026.28 134.168 1027.93 126.48 1027.93 118.048C1027.93 109.451 1026.28 101.763 1022.97 94.984C1019.66 88.2053 1015.04 82.832 1009.08 78.864C1003.13 74.896 996.27 72.912 988.499 72.912C980.894 72.912 974.115 74.896 968.163 78.864C962.376 82.832 957.747 88.2053 954.275 94.984C950.968 101.763 949.315 109.451 949.315 118.048C949.315 126.48 950.968 134.168 954.275 141.112C957.747 147.891 962.376 153.264 968.163 157.232C974.115 161.2 980.894 163.184 988.499 163.184Z" fill="#F1F1F1"/>
<path d="M1158.4 50.096C1170.14 50.096 1179.23 52.576 1185.68 57.536C1192.13 62.3307 1196.59 68.8613 1199.07 77.128C1201.72 85.2293 1203.04 94.3227 1203.04 104.408V170.872C1203.04 174.509 1201.8 177.568 1199.32 180.048C1197.01 182.363 1194.11 183.52 1190.64 183.52C1187.01 183.52 1184.03 182.363 1181.71 180.048C1179.4 177.568 1178.24 174.509 1178.24 170.872V104.656C1178.24 98.704 1177.42 93.4133 1175.76 88.784C1174.11 83.9893 1171.22 80.1867 1167.08 77.376C1163.11 74.4 1157.49 72.912 1150.22 72.912C1143.44 72.912 1137.49 74.4 1132.36 77.376C1127.24 80.1867 1123.19 83.9893 1120.21 88.784C1117.4 93.4133 1115.99 98.704 1115.99 104.656V170.872C1115.99 174.509 1114.75 177.568 1112.27 180.048C1109.96 182.363 1107.07 183.52 1103.59 183.52C1099.96 183.52 1096.98 182.363 1094.67 180.048C1092.35 177.568 1091.19 174.509 1091.19 170.872V65.72C1091.19 62.0827 1092.35 59.1067 1094.67 56.792C1096.98 54.312 1099.96 53.072 1103.59 53.072C1107.07 53.072 1109.96 54.312 1112.27 56.792C1114.75 59.1067 1115.99 62.0827 1115.99 65.72V79.608L1111.53 82.088C1112.69 78.4507 1114.67 74.8133 1117.48 71.176C1120.46 67.3733 1124.01 63.9013 1128.15 60.76C1132.28 57.4533 1136.91 54.8907 1142.03 53.072C1147.16 51.088 1152.62 50.096 1158.4 50.096Z" fill="#F1F1F1"/>
</svg>