<svg width="300" height="121" viewBox="0 0 300 121" fill="none" xmlns="http://www.w3.org/2000/svg">
<path d="M198.869 111.944C197.895 111.612 197.009 111.28 196.212 110.948C195.414 110.593 194.728 110.173 194.152 109.686C193.576 109.198 193.122 108.623 192.79 107.958C192.48 107.272 192.325 106.441 192.325 105.467C192.325 103.585 193.045 102.079 194.484 100.95C195.946 99.8201 197.983 99.2554 200.596 99.2554C201.548 99.2554 202.434 99.3219 203.254 99.4548C204.073 99.5876 204.77 99.798 205.346 100.086C205.944 100.352 206.409 100.706 206.741 101.149C207.073 101.57 207.24 102.068 207.24 102.644C207.24 103.219 207.107 103.718 206.841 104.138C206.575 104.537 206.254 104.88 205.878 105.168C205.39 104.858 204.737 104.592 203.918 104.371C203.099 104.127 202.202 104.005 201.227 104.005C200.231 104.005 199.5 104.149 199.035 104.437C198.57 104.703 198.337 105.046 198.337 105.467C198.337 105.799 198.481 106.076 198.769 106.297C199.057 106.497 199.489 106.685 200.065 106.862L201.825 107.427C203.907 108.091 205.501 108.944 206.608 109.984C207.738 111.003 208.302 112.398 208.302 114.17C208.302 116.052 207.561 117.58 206.077 118.754C204.593 119.905 202.412 120.481 199.533 120.481C198.515 120.481 197.562 120.392 196.677 120.215C195.813 120.06 195.049 119.828 194.385 119.518C193.742 119.186 193.233 118.787 192.857 118.322C192.502 117.835 192.325 117.281 192.325 116.661C192.325 116.019 192.513 115.476 192.89 115.033C193.266 114.568 193.676 114.214 194.119 113.97C194.739 114.458 195.492 114.878 196.378 115.233C197.286 115.587 198.271 115.764 199.334 115.764C200.419 115.764 201.183 115.598 201.626 115.266C202.069 114.934 202.29 114.546 202.29 114.103C202.29 113.66 202.113 113.328 201.759 113.107C201.404 112.863 200.906 112.631 200.264 112.409L198.869 111.944Z" fill="white"/>
<path d="M231.81 103.873C230.104 103.873 228.798 104.393 227.89 105.434C226.982 106.475 226.528 107.947 226.528 109.852C226.528 111.778 227.026 113.262 228.023 114.303C229.042 115.343 230.403 115.864 232.109 115.864C233.016 115.864 233.78 115.742 234.4 115.498C235.043 115.255 235.652 114.978 236.227 114.668C236.604 114.978 236.892 115.355 237.091 115.797C237.312 116.218 237.423 116.716 237.423 117.292C237.423 118.2 236.914 118.975 235.895 119.617C234.899 120.237 233.371 120.547 231.311 120.547C229.828 120.547 228.433 120.337 227.126 119.916C225.819 119.496 224.679 118.853 223.705 117.99C222.73 117.104 221.955 115.997 221.38 114.668C220.826 113.317 220.549 111.712 220.549 109.852C220.549 108.124 220.815 106.607 221.346 105.301C221.9 103.972 222.642 102.854 223.572 101.946C224.524 101.038 225.631 100.352 226.893 99.8866C228.156 99.4215 229.507 99.189 230.946 99.189C232.983 99.189 234.555 99.5212 235.663 100.186C236.792 100.85 237.357 101.702 237.357 102.743C237.357 103.319 237.213 103.817 236.925 104.238C236.637 104.659 236.305 104.991 235.928 105.234C235.353 104.858 234.733 104.537 234.068 104.271C233.426 104.005 232.673 103.873 231.81 103.873Z" fill="white"/>
<path d="M255.259 100.418C255.635 100.197 256.2 99.9862 256.953 99.7869C257.728 99.5876 258.503 99.488 259.278 99.488C260.385 99.488 261.359 99.654 262.201 99.9862C263.064 100.296 263.618 100.794 263.862 101.481C264.26 102.632 264.692 103.972 265.157 105.5C265.622 107.028 266.087 108.612 266.552 110.25C267.017 111.867 267.471 113.472 267.914 115.067C268.357 116.639 268.745 118.034 269.077 119.252C268.811 119.562 268.412 119.806 267.881 119.983C267.349 120.182 266.718 120.282 265.988 120.282C265.456 120.282 265.002 120.237 264.626 120.149C264.271 120.06 263.972 119.927 263.729 119.75C263.507 119.573 263.319 119.341 263.164 119.053C263.031 118.765 262.909 118.433 262.799 118.056L262.201 115.764H256.189C256.011 116.429 255.834 117.115 255.657 117.824C255.48 118.532 255.303 119.219 255.126 119.883C254.816 119.994 254.483 120.082 254.129 120.149C253.797 120.237 253.387 120.282 252.9 120.282C251.771 120.282 250.929 120.093 250.376 119.717C249.844 119.318 249.578 118.776 249.578 118.089C249.578 117.779 249.623 117.469 249.711 117.159C249.8 116.849 249.9 116.484 250.01 116.063C250.165 115.465 250.376 114.723 250.641 113.838C250.929 112.952 251.239 112 251.571 110.981C251.904 109.94 252.258 108.877 252.634 107.792C253.011 106.707 253.365 105.688 253.697 104.736C254.03 103.762 254.328 102.898 254.594 102.145C254.882 101.392 255.104 100.817 255.259 100.418ZM259.245 104.703C258.935 105.633 258.58 106.674 258.182 107.825C257.805 108.955 257.462 110.106 257.152 111.28H261.271C260.961 110.084 260.64 108.922 260.307 107.792C259.997 106.641 259.71 105.611 259.444 104.703H259.245Z" fill="white"/>
<path d="M300 119.252C299.69 119.562 299.236 119.794 298.638 119.95C298.062 120.127 297.365 120.215 296.545 120.215C295.726 120.215 294.951 120.093 294.22 119.85C293.489 119.606 292.892 119.019 292.427 118.089L289.138 111.38C288.806 110.693 288.507 110.051 288.241 109.453C287.976 108.833 287.688 108.124 287.378 107.327L287.178 107.36C287.267 108.556 287.311 109.774 287.311 111.014C287.333 112.254 287.344 113.472 287.344 114.668V119.817C287.101 119.883 286.724 119.95 286.215 120.016C285.728 120.082 285.241 120.116 284.753 120.116C284.266 120.116 283.834 120.082 283.458 120.016C283.082 119.95 282.772 119.817 282.528 119.617C282.284 119.418 282.096 119.152 281.963 118.82C281.83 118.466 281.764 118.012 281.764 117.458V100.85C282.074 100.407 282.55 100.075 283.192 99.8533C283.834 99.6319 284.521 99.5212 285.252 99.5212C286.071 99.5212 286.846 99.6541 287.577 99.9198C288.33 100.163 288.928 100.739 289.371 101.647L292.692 108.357C293.024 109.043 293.323 109.697 293.589 110.317C293.855 110.915 294.143 111.612 294.453 112.409L294.619 112.376C294.53 111.18 294.475 109.984 294.453 108.789C294.431 107.593 294.42 106.397 294.42 105.201V99.8201C294.663 99.7537 295.029 99.6873 295.516 99.6208C296.025 99.5544 296.523 99.5212 297.01 99.5212C297.985 99.5212 298.727 99.6983 299.236 100.053C299.745 100.385 300 101.093 300 102.179V119.252Z" fill="white"/>
<path d="M208.758 24.4512C208.758 21.9033 210.823 19.8378 213.371 19.8378H220.753C223.301 19.8378 225.366 21.9033 225.366 24.4512V84.426C225.366 86.9739 223.301 89.0394 220.753 89.0394H208.758V24.4512Z" fill="white"/>
<path d="M0 4.61344C0 2.06551 2.06551 0 4.61344 0H11.995C14.5429 0 16.6084 2.06551 16.6084 4.61344V84.426C16.6084 86.9739 14.5429 89.0394 11.995 89.0394H4.61344C2.06551 89.0394 0 86.9739 0 84.426V4.61344Z" fill="white"/>
<path d="M37.7253 19.3765H59.7332L32.8604 52.0754L62.2815 89.0394H40.5052L19.343 62.5012H8.3042V39.7541H20.3506L37.7253 19.3765Z" fill="white"/>
<path d="M229.98 4.61344C229.98 2.06551 232.045 0 234.593 0H242.897C245.445 0 247.511 2.06551 247.511 4.61344V84.426C247.511 86.9739 245.445 89.0394 242.897 89.0394H234.593C232.045 89.0394 229.98 86.9739 229.98 84.426V4.61344Z" fill="white"/>
<path d="M273.593 21.2218H297.798L270.649 54.9668L296.489 89.0394H273.593L251.564 61.8469H247.511L247.511 46.7763H251.564L273.593 21.2218Z" fill="white"/>
<path d="M155.415 22.8536C148.241 26.0628 136.096 34.3701 136.096 38.7529L136.096 45.4436C136.096 46.7154 137.126 47.7456 138.397 47.7491H160.086C160.086 46.222 160.053 44.9957 160.026 43.9991C159.914 39.8773 159.909 39.6846 162.805 38.3928C166.402 36.7887 170.431 36.4733 174.228 37.4984C178.025 38.5235 181.365 40.8281 183.698 44.0329C186.03 47.2377 187.217 51.1517 187.061 55.1308C186.906 59.1098 185.419 62.9168 182.844 65.9251C180.269 68.9334 176.761 70.9638 172.895 71.6821C169.03 72.4004 165.039 71.7639 161.578 69.8772C160.881 69.4972 160.439 69.167 160.164 68.8519L160.086 68.971C160.086 68.971 133.668 63.8335 136.788 71.047C139.724 77.8325 145.633 80.947 152.103 84.3574C152.511 84.5725 152.921 84.7889 153.334 85.0074C160.277 88.6894 168.268 89.8978 175.989 88.4336C183.711 86.9694 190.705 82.92 195.819 76.9516C200.932 70.9833 203.862 63.4518 204.125 55.5967C204.388 47.7416 201.969 40.031 197.266 33.7339C192.563 27.4368 185.856 22.9285 178.25 20.9509C170.643 18.9733 162.59 19.6444 155.415 22.8536Z" fill="white"/>
<path d="M169.495 54.404L169.775 54.4386L169.479 54.3926L169.495 54.404Z" fill="white"/>
<path d="M155.012 9.68823C155.012 15.0389 150.881 19.3765 145.785 19.3765C140.689 19.3765 136.558 15.0389 136.558 9.68823C136.558 4.33757 140.689 0 145.785 0C150.881 0 155.012 4.33757 155.012 9.68823Z" fill="white"/>
<path d="M136.327 57.2067C136.327 55.9327 137.36 54.9 138.634 54.9H160.179V68.7403C160.179 71.2882 158.113 73.3537 155.565 73.3537H140.941C138.393 73.3537 136.327 71.2882 136.327 68.7403V57.2067Z" fill="white"/>
<path d="M83.556 30.3268C83.5211 30.7473 83.5033 31.1726 83.5033 31.6021V57.8122C83.5033 66.2204 90.3195 73.0366 98.7277 73.0366H99.189C107.597 73.0366 114.413 66.2204 114.413 57.8122V32.7105C114.413 31.9627 114.782 31.2631 115.4 30.8409L131.483 19.8378V56.7453C131.483 74.5809 117.025 89.0394 99.189 89.0394C81.3535 89.0394 66.8949 74.5809 66.8949 56.7453V24.1629H81.1966C82.4706 24.1629 83.5033 25.1957 83.5033 26.4696V29.5693C83.5033 29.8264 83.5213 30.0793 83.556 30.3268Z" fill="white"/>
</svg>
